<?xml version="1.0" encoding="UTF-8"?>
<svg id="Livello_1" xmlns="http://www.w3.org/2000/svg" version="1.1" viewBox="0 0 750 500">
  <!-- Generator: Adobe Illustrator 29.1.0, SVG Export Plug-In . SVG Version: 2.1.0 Build 142)  -->
  <defs>
    <style>
      .st0, .st1, .st2, .st3, .st4, .st5, .st6, .st7, .st8, .st9, .st10, .st11 {
        fill: none;
      }

      .st12 {
        fill: #e0e0e0;
      }

      .st13, .st14, .st15, .st16, .st17, .st18, .st19, .st20, .st21, .st22, .st23 {
        isolation: isolate;
      }

      .st13, .st19 {
        opacity: .3;
      }

      .st14, .st15, .st20 {
        opacity: .2;
      }

      .st1 {
        stroke-dasharray: 2.9 2;
      }

      .st1, .st2, .st3, .st8, .st9, .st10, .st11 {
        stroke: #7558db;
      }

      .st1, .st2, .st4, .st5, .st6, .st7, .st8, .st9, .st10, .st11 {
        stroke-linecap: round;
        stroke-linejoin: round;
      }

      .st1, .st2, .st5, .st8, .st9, .st10, .st11 {
        stroke-width: .5px;
      }

      .st15, .st24 {
        fill: #7558db;
      }

      .st25 {
        fill: #e6e6e6;
      }

      .st26 {
        fill: #ebebeb;
      }

      .st27 {
        fill: #263238;
      }

      .st3 {
        stroke-miterlimit: 10;
      }

      .st4 {
        stroke-width: .2px;
      }

      .st4, .st5, .st6, .st7 {
        stroke: #263238;
      }

      .st6 {
        stroke-width: .5px;
      }

      .st7 {
        stroke-width: .7px;
      }

      .st28, .st16, .st17, .st18, .st19, .st20, .st21, .st22, .st23 {
        fill: #fff;
      }

      .st29 {
        fill: #f0f0f0;
      }

      .st30 {
        fill: #fafafa;
      }

      .st31, .st16 {
        opacity: .7;
      }

      .st32, .st21 {
        opacity: .6;
      }

      .st33, .st22 {
        opacity: .5;
      }

      .st8 {
        stroke-dasharray: 3.1 2.1;
      }

      .st34 {
        fill: #ebb376;
      }

      .st35 {
        fill: #f5f5f5;
      }

      .st36 {
        fill: #d58745;
      }

      .st9 {
        stroke-dasharray: 2.9 1.9;
      }

      .st10 {
        stroke-dasharray: 3.1 2.1;
      }

      .st11 {
        stroke-dasharray: 3.1 2;
      }

      .st17 {
        opacity: .9;
      }

      .st18 {
        opacity: .8;
      }

      .st23 {
        opacity: .4;
      }
    </style>
  </defs>
  <g id="freepik--background-complete--inject-37">
    <rect class="st26" x="125" y="382.4" width="500" height=".2"/>
    <rect class="st26" x="541.8" y="398.5" width="33.1" height=".2"/>
    <rect class="st26" x="447.5" y="401.2" width="8.7" height=".2"/>
    <rect class="st26" x="521.6" y="389.2" width="19.2" height=".2"/>
    <rect class="st26" x="177.5" y="390.9" width="43.2" height=".2"/>
    <rect class="st26" x="229.6" y="390.9" width="6.3" height=".2"/>
    <rect class="st26" x="256.5" y="395.1" width="93.7" height=".2"/>
    <path class="st26" d="M362,337.8h-193.1c-3.1,0-5.7-2.6-5.7-5.7V60.7c0-3.1,2.6-5.7,5.7-5.7h193.1c3.2,0,5.7,2.6,5.7,5.7h0v271.4c0,3.2-2.6,5.7-5.7,5.7ZM168.9,55.2c-3,0-5.5,2.4-5.5,5.5v271.4c0,3,2.4,5.5,5.5,5.5h193.1c3,0,5.5-2.4,5.5-5.5V60.7c0-3-2.4-5.5-5.5-5.5h-193.1Z"/>
    <path class="st26" d="M578.3,337.8h-193.1c-3.2,0-5.7-2.6-5.7-5.7V60.7c0-3.1,2.6-5.7,5.7-5.7h193.1c3.1,0,5.7,2.5,5.7,5.7v271.4c0,3.1-2.5,5.7-5.7,5.7ZM385.2,55.2c-3,0-5.5,2.4-5.5,5.5v271.4c0,3,2.4,5.5,5.5,5.5h193.1c3,0,5.5-2.4,5.5-5.5V60.7c0-3-2.4-5.5-5.5-5.5h-193.1Z"/>
    <path class="st25" d="M507.7,127.2s1.2-7.7-4.5-12.7-5.1-7.9-3.5-8.3,3.1,4.6,5.6,5.9c0,0,0-7.1-2.4-9.7s-3.8-9.3-1.5-9.4,2.6,4,3.1,6.9,3.2,7,3.2,7c0,0,.5-6.3,2.1-8.9s-2.7-8.6-1-11.2,4.6,2.4,4.4,7.9-4,11.5-3.1,17.3c0,0,1.6-4.1,3.1-4.5s3-3.1,3.9-4.1,2.2,2.5,0,5.7-7.9,11.8-7.1,18.8l-2.5-.9Z"/>
    <path class="st25" d="M504.3,123.7l-1.9,11.6c-.5,3.2,1.7,6.2,4.9,6.7.3,0,.6,0,.9,0h2c3.3,0,5.9-2.6,5.9-5.9,0-.3,0-.6,0-.9l-1.9-11.6h-9.9Z"/>
    <rect class="st12" x="401.8" y="137.9" width="130.4" height="6.7"/>
    <rect class="st26" x="407.8" y="113.2" width="5.8" height="24.7"/>
    <rect class="st26" x="435.6" y="113.2" width="5.8" height="24.7"/>
    <rect class="st26" x="469.3" y="112.8" width="5.8" height="24.7" transform="translate(-14.4 82) rotate(-9.8)"/>
    <rect class="st26" x="414.9" y="116.4" width="5.8" height="21.4"/>
    <rect class="st26" x="428.1" y="116.4" width="5.8" height="21.4"/>
    <rect class="st26" x="461.5" y="116.4" width="5.8" height="21.4"/>
    <rect class="st26" x="445.5" y="116" width="5.7" height="21.5" transform="translate(-16.8 100.3) rotate(-12.5)"/>
    <rect class="st26" x="422.7" y="111.9" width="2.9" height="25.9"/>
    <rect class="st26" x="456.9" y="111.9" width="2.9" height="25.9"/>
    <rect class="st12" x="401.8" y="187.9" width="130.4" height="6.7"/>
    <rect class="st26" x="520.5" y="163.2" width="5.8" height="24.7"/>
    <rect class="st26" x="492.7" y="163.2" width="5.8" height="24.7"/>
    <rect class="st26" x="449.5" y="172.3" width="24.7" height="5.7" transform="translate(210.8 600.6) rotate(-80.2)"/>
    <rect class="st26" x="513.4" y="166.4" width="5.8" height="21.4"/>
    <rect class="st26" x="500.1" y="166.4" width="5.8" height="21.4"/>
    <rect class="st26" x="466.8" y="166.4" width="5.8" height="21.4"/>
    <rect class="st26" x="474.9" y="173.9" width="21.4" height="5.8" transform="translate(207.7 612.5) rotate(-77.5)"/>
    <rect class="st26" x="508.4" y="162" width="2.9" height="25.9"/>
    <rect class="st26" x="474.2" y="162" width="2.9" height="25.9"/>
    <rect class="st26" x="414.3" y="168.3" width="28" height="19.3"/>
    <rect class="st25" x="462.4" y="290.2" width="75.8" height="81.6"/>
    <rect class="st25" x="540.2" y="284.2" width="9.5" height="98.2"/>
    <rect class="st30" x="474.4" y="296.7" width="6.2" height="30.5"/>
    <rect class="st35" x="500.2" y="296.7" width="6.2" height="30.5"/>
    <rect class="st35" x="480.6" y="298.8" width="6.2" height="28.4"/>
    <rect class="st30" x="494" y="298.8" width="6.2" height="28.4"/>
    <rect class="st26" x="490" y="296.7" width="4" height="30.5"/>
    <rect class="st30" x="486.8" y="298.8" width="3.1" height="28.4"/>
    <rect class="st26" x="506.4" y="296.7" width="6.2" height="30.5"/>
    <rect class="st25" x="512.6" y="298.8" width="6.2" height="28.4"/>
    <rect class="st25" x="525.9" y="298.8" width="6.2" height="28.4"/>
    <rect class="st30" x="521.9" y="296.7" width="4" height="30.5"/>
    <rect class="st26" x="518.8" y="298.8" width="3.1" height="28.4"/>
    <rect class="st30" x="532.1" y="297.4" width="3.1" height="29.8"/>
    <rect class="st30" x="529" y="337.5" width="6.2" height="30.5"/>
    <rect class="st30" x="503.3" y="337.5" width="6.2" height="30.5"/>
    <rect class="st29" x="522.8" y="339.7" width="6.2" height="28.4"/>
    <rect class="st26" x="509.5" y="339.7" width="6.2" height="28.4"/>
    <rect class="st30" x="515.7" y="337.5" width="4" height="30.5"/>
    <rect class="st35" x="519.7" y="339.7" width="3.1" height="28.4"/>
    <rect class="st26" x="497.1" y="337.5" width="6.2" height="30.5"/>
    <rect class="st35" x="490.9" y="339.7" width="6.2" height="28.4"/>
    <rect class="st25" x="477.5" y="339.7" width="6.2" height="28.4"/>
    <rect class="st30" x="483.7" y="337.5" width="4" height="30.5"/>
    <rect class="st30" x="470.4" y="337.5" width="4" height="30.5"/>
    <rect class="st26" x="487.7" y="339.7" width="3.1" height="28.4"/>
    <rect class="st29" x="474.4" y="338.3" width="3.1" height="29.8"/>
    <path class="st29" d="M537.8,284.2h-77.8v92.7h75.3v5.5h5.1v-98.2h-2.6ZM535.2,368h-70.5v-35.7h70.5v35.7ZM535.2,327.2h-70.5v-34.1h70.5v34.1Z"/>
    <rect class="st25" x="386.4" y="290.3" width="75.8" height="81.6"/>
    <rect class="st25" x="389.3" y="375.9" width="9.5" height="6.5"/>
    <rect class="st30" x="453.5" y="296.7" width="6.2" height="30.5"/>
    <rect class="st35" x="427.7" y="296.7" width="6.2" height="30.5"/>
    <rect class="st35" x="447.3" y="298.8" width="6.2" height="28.4"/>
    <rect class="st30" x="433.9" y="298.8" width="6.2" height="28.4"/>
    <rect class="st26" x="440.1" y="296.7" width="4" height="30.5"/>
    <rect class="st30" x="444.2" y="298.8" width="3.1" height="28.4"/>
    <rect class="st26" x="425.6" y="296.7" width="6.2" height="30.5"/>
    <rect class="st25" x="419.4" y="298.8" width="6.2" height="28.4"/>
    <rect class="st25" x="406.1" y="298.8" width="6.2" height="28.4"/>
    <rect class="st30" x="412.3" y="296.7" width="4" height="30.5"/>
    <rect class="st26" x="416.3" y="298.8" width="3.1" height="28.4"/>
    <rect class="st35" x="402.9" y="297.4" width="3.1" height="29.8"/>
    <rect class="st30" x="400" y="337.5" width="6.2" height="30.5"/>
    <rect class="st30" x="425.8" y="337.5" width="6.2" height="30.5"/>
    <rect class="st35" x="406.2" y="339.7" width="6.2" height="28.4"/>
    <rect class="st26" x="419.6" y="339.7" width="6.2" height="28.4"/>
    <rect class="st30" x="415.5" y="337.5" width="4" height="30.5"/>
    <rect class="st35" x="412.5" y="339.7" width="3.1" height="28.4"/>
    <rect class="st26" x="427.9" y="337.5" width="6.2" height="30.5"/>
    <rect class="st35" x="434.1" y="339.7" width="6.2" height="28.4"/>
    <rect class="st25" x="447.4" y="339.7" width="6.2" height="28.4"/>
    <rect class="st30" x="443.4" y="337.5" width="4" height="30.5"/>
    <rect class="st30" x="455.9" y="337.5" width="4" height="30.5"/>
    <rect class="st26" x="440.3" y="339.7" width="3.1" height="28.4"/>
    <rect class="st26" x="453.6" y="338.3" width="3.1" height="29.8"/>
    <path class="st29" d="M384.3,284.2v98.2h5.1v-5.5h75.3v-92.7h-80.4ZM389.3,332.3h70.5v35.7h-70.5v-35.7ZM389.3,293.1h70.5v34.1h-70.5v-34.1Z"/>
    <rect class="st26" x="206.4" y="104.4" width="143.1" height="147.9"/>
    <rect class="st29" x="201.4" y="104.4" width="143.1" height="147.9"/>
    <rect class="st12" x="205.2" y="107.9" width="135.7" height="140.9"/>
    <rect class="st35" x="208.6" y="107.9" width="132.3" height="140.9"/>
    <rect class="st26" x="273.4" y="107.9" width="2.7" height="140.9"/>
    <polygon class="st28" points="258 107.9 220.2 248.9 216.6 248.9 254.3 107.9 258 107.9"/>
    <rect class="st29" x="272.2" y="105.7" width="2.3" height="145.8"/>
    <polygon class="st28" points="244.3 107.9 208.6 241.3 208.6 168 224.7 107.9 244.3 107.9"/>
    <polygon class="st28" points="340.9 120.7 340.9 134.2 310.2 248.9 306.6 248.9 340.9 120.7"/>
    <polygon class="st28" points="340.9 148 340.9 221.3 333.6 248.9 313.9 248.9 340.9 148"/>
  </g>
  <g id="freepik--Shadow--inject-37">
    <ellipse id="freepik--path--inject-37" class="st35" cx="375" cy="416.2" rx="193.9" ry="11.3"/>
  </g>
  <g id="freepik--Plant--inject-37">
    <path class="st3" d="M495.3,347.5s6.4-5.3,11.8,0,6.5,38.1,6.5,38.1"/>
    <path class="st3" d="M514,391.9s-3.7-38.5,10.4-54.6"/>
    <path class="st3" d="M512.7,387.8s2.9-43.8-7.7-53.5"/>
    <path class="st3" d="M514,387.8s.2-28.9,8.1-33.4,11.9,10.2,11.9,10.2"/>
    <path class="st3" d="M510.9,387.8s1.3-22.2-4.8-30.2-12.5,3.4-12.5,3.4"/>
    <path class="st3" d="M513,390.8s-3.9-52,2.6-60.8"/>
    <path class="st24" d="M528.8,358.6s-3.9,1.5-2.8,4.9,13.5,9,13.5,9c0,0,5.2-4.8.4-12.5s-11.1-3.8-11.2-1.4Z"/>
    <path class="st20" d="M528.8,358.6s-3.9,1.5-2.8,4.9,13.5,9,13.5,9c0,0,5.2-4.8.4-12.5s-11.1-3.8-11.2-1.4Z"/>
    <path class="st24" d="M511.8,352.1s4.2-.2,4.4,3.4-9,13.5-9,13.5c0,0-6.6-2.4-5.2-11.4s8.8-7.8,9.8-5.6Z"/>
    <path class="st20" d="M511.8,352.1s4.2-.2,4.4,3.4-9,13.5-9,13.5c0,0-6.6-2.4-5.2-11.4s8.8-7.8,9.8-5.6Z"/>
    <path class="st24" d="M508.3,334.9s2.8-.3,2.6-2-10.8-6-17,1c0,0,4,6.9,9.8,7s4.7-6,4.7-6Z"/>
    <path class="st20" d="M508.3,334.9s2.8-.3,2.6-2-10.8-6-17,1c0,0,4,6.9,9.8,7s4.7-6,4.7-6Z"/>
    <path class="st24" d="M513.5,330.8s-2.5,1.2-3.2-.3,6-10.9,15-8.2c0,0,.2,7.9-4.6,11.1s-7.2-2.6-7.2-2.6Z"/>
    <path class="st20" d="M513.5,330.8s-2.5,1.2-3.2-.3,6-10.9,15-8.2c0,0,.2,7.9-4.6,11.1s-7.2-2.6-7.2-2.6Z"/>
    <path class="st24" d="M500.3,357.2s1.9-1.5-.1-2.3-12.2-.5-12.3,9.5c0,0,11.8,2,13.3-1.9s-.8-5.4-.8-5.4Z"/>
    <path class="st20" d="M500.3,357.2s1.9-1.5-.1-2.3-12.2-.5-12.3,9.5c0,0,11.8,2,13.3-1.9s-.8-5.4-.8-5.4Z"/>
    <path class="st24" d="M524.4,334.7s-1.9-1.5.1-2.3,12.2-.5,12.3,9.5c0,0-11.8,2-13.3-1.9s.8-5.4.8-5.4Z"/>
    <path class="st20" d="M524.4,334.7s-1.9-1.5.1-2.3,12.2-.5,12.3,9.5c0,0-11.8,2-13.3-1.9s.8-5.4.8-5.4Z"/>
    <path class="st24" d="M518.2,342.8s-.2-1.9,1.4-1.1,6.8,6.5,1.3,11.9c0,0-7.4-5.5-6-8.3s3.4-2.4,3.4-2.4Z"/>
    <path class="st20" d="M518.2,342.8s-.2-1.9,1.4-1.1,6.8,6.5,1.3,11.9c0,0-7.4-5.5-6-8.3s3.4-2.4,3.4-2.4Z"/>
    <path class="st24" d="M498.6,345.5s1.1-1.5-.5-1.7-9.2,1.8-7.5,9.3c0,0,9.2-.7,9.6-3.8s-1.6-3.8-1.6-3.8Z"/>
    <path class="st20" d="M498.6,345.5s1.1-1.5-.5-1.7-9.2,1.8-7.5,9.3c0,0,9.2-.7,9.6-3.8s-1.6-3.8-1.6-3.8Z"/>
    <polygon class="st24" points="529.6 415.7 498.1 415.7 494.7 381.3 533 381.3 529.6 415.7"/>
    <polygon class="st22" points="529.6 415.7 498.1 415.7 494.7 381.3 533 381.3 529.6 415.7"/>
    <rect class="st24" x="493" y="377.5" width="41.6" height="7.6"/>
    <rect class="st20" x="493" y="377.5" width="41.6" height="7.6"/>
  </g>
  <g id="freepik--Interface--inject-37">
    <rect class="st24" x="296.2" y="87.8" width="265.6" height="204.2"/>
    <rect class="st19" x="296.2" y="97.2" width="265.6" height="194.8"/>
    <rect class="st28" x="336.1" y="127.6" width="145.7" height="129.6"/>
    <polygon class="st24" points="452.3 223.8 446.6 249.9 445.5 249.4 451.6 223.6 452.3 223.8"/>
    <polygon class="st21" points="452.3 223.8 446.6 249.9 445.5 249.4 451.6 223.6 452.3 223.8"/>
    <circle class="st24" cx="447.1" cy="157.9" r="16.6"/>
    <circle class="st17" cx="447.1" cy="157.9" r="16.6"/>
    <path class="st24" d="M412.5,151.9c0-1.5,1.2-2.7,2.7-2.7.3,0,.5,0,.8.1-.5-3.1,1.7-6,4.8-6.5.3,0,.6,0,.8,0,.4,0,.7,0,1.1.1,1.4-2.4,4.4-3.2,6.8-1.8,1.6.9,2.5,2.6,2.5,4.4h0c2.5-.1,4.7,1.9,4.8,4.4s-1.9,4.7-4.4,4.8c-.1,0-.3,0-.4,0h-17c-1.4,0-2.6-1.3-2.5-2.7Z"/>
    <path class="st24" d="M447.9,172.7c0-1.5,1.2-2.7,2.7-2.7.3,0,.5,0,.8.1-.5-3.1,1.7-6,4.8-6.5.3,0,.6,0,.8,0,.4,0,.7,0,1.1.1,1.4-2.4,4.5-3.1,6.9-1.7,1.5.9,2.4,2.5,2.4,4.3h0c2.5-.1,4.7,1.9,4.8,4.4s-1.9,4.7-4.4,4.8c-.1,0-.3,0-.4,0h-17c-1.4,0-2.6-1.3-2.6-2.7Z"/>
    <path class="st24" d="M462.2,228.3s-2.5-4.5-9.2-8.3c-4-.1-8,.6-11.7,2.2,0,0-1.2,2.1.2,2.9s2.6-.8,2.6-.8c0,0,.3,2.5,2.1,2.6,1.1,0,2.1-.7,2.4-1.8.1,1.4,1.1,2.5,2.4,2.9,1.2.3,2.4-.2,3.1-1.1.2,1.1,1,2,2.1,2.4.9.2,1.8,0,2.3-.8,0,0,.4,2,1.9,2,1.3,0,1.7-2.3,1.7-2.3Z"/>
    <path class="st24" d="M354.8,251.3s-2.1-32.6-12.9-75.1l2.2-1.7s9.4,15.4,18.9,74.8l-8.2,1.9Z"/>
    <g class="st33">
      <path class="st28" d="M354.8,251.3s-2.1-32.6-12.9-75.1l2.2-1.7s9.4,15.4,18.9,74.8l-8.2,1.9Z"/>
    </g>
    <path class="st24" d="M366.4,245.7s-3.3-46.6,15.1-93.2l-2.2-2s-20.2,34.8-22.1,95.8l9.1-.6Z"/>
    <g class="st32">
      <path class="st28" d="M366.4,245.7s-3.3-46.6,15.1-93.2l-2.2-2s-20.2,34.8-22.1,95.8l9.1-.6Z"/>
    </g>
    <path class="st0" d="M348.7,170.7l-2.4-5s1,2.9,1.9,5.4c.2-.1.4-.3.6-.4Z"/>
    <path class="st0" d="M339.6,168.7l-.2,4.2.5.2c-.2-2.2-.3-4.4-.3-4.4Z"/>
    <path class="st0" d="M350.4,173.6c.3.3.5.6.8.9l.2-2.3-1,1.4Z"/>
    <path class="st0" d="M349.5,172.9l.2-1.1-.4.9.3.2Z"/>
    <path class="st0" d="M378.5,139.5l-2.8,5.7c.2.1.4.3.6.4,1-2.9,2.1-6.1,2.1-6.1Z"/>
    <path class="st0" d="M337.2,170.3l-.2,2.5h.4c0,0-.2-2.5-.2-2.5Z"/>
    <path class="st0" d="M385.7,148c.2,0,.4-.2.6-.2l-.2-4.8s-.2,2.4-.4,5Z"/>
    <path class="st0" d="M388.6,147.5h.4c0,.1-.2-2.7-.2-2.7l-.2,2.7Z"/>
    <path class="st0" d="M375,147.5l-.5-1.1.2,1.3.3-.2Z"/>
    <path class="st0" d="M372.6,147l.2,2.6c.3-.4.5-.7.9-1l-1.1-1.6Z"/>
    <path class="st24" d="M336.1,181.1v1.1l.2-.4-.2-.6ZM364,182.5c-1-9-4.8-12.3-10.6-12.9-1.3-.1-2.6,0-3.8.6l.7-.4-1.3-3.7,1.8,3.4c.6-.3,1.3-.6,2-.8l-1.4-5.4,2.7,5c.7-.2,1.4-.3,2.1-.3l-.4-1.7.9,1.7h1.5l-1.4-3.3c.1.2,1,1.6,1.9,3.3.8,0,1.6.1,2.4.3-3.5-7.1-12-9.5-15.5-4.9-2.1,2.8-2,6.9-1.7,9.4h0c0,0-.1-.2-.2-.4-.2-3.3-1-13.6-4-14.8-1.6-.6-2.8.5-3.6,1.9v3.5l.5-2-.3,2.2c.4,0,.8.2,1.2.4l.7-2.9-.3,3.2.5.3.8-2.8-.6,3c.8.7,1.5,1.5,2.1,2.4v-4l.8,5.4.4.8c-.7-1.1-1.7-2-2.8-2.6-.9-.5-2-.8-3.1-.7v14.5l.7.9c.2-.4.5-.7.8-1.1l-.6-1.7.8,1.4c.2-.2.4-.4.6-.7l-.7-2.2,1.1,1.9c.5-.6,1.1-1.1,1.8-1.5l-1.1-2.7,1.6,2.4c-1.8,1.9-3.3,5.3,0,10.6,0,0,0-1.5.3-3.5l-.8-.9.8.4c0-.6.2-1.3.3-1.9l-.6-.9.7.4v-.7c.1,0-.7-1.9-.7-1.9l1.1.7c0-.3.2-.6.2-.9l.3,1.7.2-.6h0l.7-2.1,1.6,1.9.4-1.9h0l1.6,1.2c-.2-1.2-.5-2.4-.9-3.6h.2c.4.3.7.5,1.1.9l.5-.7v1.2c.3.3.6.6.8.9l.7-2.1-.2,2.8c.4.5.8,1,1.1,1.5l.2-2,.2,2.6c.4.6.7,1.1,1,1.7l.2-3.7.4,4.7c.7,1.4,1.1,2.4,1.1,2.4,0,0,.6-6-1.9-9.8.5.1,1,.3,1.5.4.7.2,1.3.5,2,.8l.7-2.4-.2,2.6c.6.3,1.2.7,1.8,1l.3-2.1v2.3c.9.4,1.6.9,2.2,1.4l-.3-3.7.8,4.1c.7.5,1.2.9,1.8,1.4v-2.6c-.1,0,.8,3.2.8,3.2.7.6,1.1,1,1.1,1h0ZM337,172.8l.2-2.5.2,2.4h-.4ZM339.4,172.9l.2-4.2s.1,2.1.3,4.4l-.5-.2ZM348.1,171c0-.2-.1-.3-.2-.5l-.3-.9c-.3-1-.7-1.9-.9-2.6v-.3c-.1,0-.2-.2-.2-.3,0-.1,0-.2,0-.3l-.2-.4,2.4,5c-.2.1-.4.2-.6.3ZM349.5,172.9c0,0-.2-.1-.3-.2l.4-.9-.2,1.1ZM351.2,174.5c-.2-.3-.5-.6-.8-.9l1-1.4-.2,2.3Z"/>
    <path class="st24" d="M386.5,140.3c-1.3.7-2.4,1.8-3.2,3,.1-.3.3-.6.4-.9l1-6.1v4.5c.7-1,1.5-2,2.4-2.8l-.6-3.4,1,3.1c.2-.1.4-.3.5-.4l-.4-3.6.8,3.4c.4-.2.9-.4,1.4-.5l-.3-2.5.6,2.5c.2,0,.5,0,.7,0l-.5-1.9.9,1.9c.2,0,.4,0,.5.1,0,0-1.8-8-5.9-6.5-3.4,1.3-4.3,13-4.6,16.8l-.2.5h0c.4-2.9.5-7.6-1.9-10.7-4-5.2-13.6-2.5-17.7,5.6.9-.2,1.9-.3,2.8-.3,1.1-1.9,2.1-3.5,2.2-3.7l-1.6,3.7c.5,0,1.1,0,1.7,0l1.1-1.9-.5,2c.8,0,1.6.2,2.4.4l3.1-5.7-1.6,6.1c.8.3,1.5.6,2.3.9l2-3.9-1.5,4.2.8.5c-1.4-.6-2.8-.8-4.3-.7-6.7.6-11,4.4-12.1,14.7,0,0,.5-.5,1.3-1.2l1-3.7v2.9c.4-.5,1.1-1,1.9-1.6l1-4.7-.4,4.2c.7-.5,1.5-1.1,2.4-1.6v-2.7c.1,0,.5,2.4.5,2.4.7-.4,1.4-.8,2.1-1.2l-.3-3,.8,2.7c.7-.4,1.5-.7,2.2-.9.6-.2,1.2-.4,1.7-.5-2.8,4.4-2.1,11.2-2.1,11.2,0,0,.4-1.1,1.3-2.8l.4-5.4.2,4.2c.3-.6.7-1.2,1.1-1.9l.2-3,.3,2.3c.4-.6.8-1.2,1.3-1.7l-.2-3.1.8,2.4c.3-.4.6-.7,1-1v-1.3l.5.8c.4-.4.8-.7,1.2-1h.2c-.5,1.3-.8,2.6-1,4h0s0,0,0,.1l2-1.4.5,2.2,1.3-1.6h0l.5-.6,1,3.1.4-1.9c.1.3.2.7.3,1l1.2-.8-1,2.2c0,.2,0,.5.1.8l.8-.4-.7,1.1c.1.8.2,1.5.3,2.2l.9-.5-.9,1.1c.2,2.3.3,4,.3,4,3.7-6,2-9.9,0-12.1l1.8-2.7-1.2,3.1c.7.5,1.4,1,2,1.7l1.2-2.2-.8,2.6c.2.2.4.5.6.8l.9-1.6-.7,1.9c.3.4.6.8.9,1.2l1.7-2.2-1.2,3c.9,1.5,1.7,3.2,2.3,4.8l1.2-3.5-.9,4.4c.4,1.1.8,2.1,1,2.9l.8-3-.6,3.8c.2.6.2.9.2.9,3-9.7.6-16.1-2.4-19h0l1-6.2.6,6.4c.8.2,1.6.3,2.3.6l.3-2,.2,2.2c.6.2,1.1.4,1.6.6v-4.1s.3,2,.5,4.3c.9.4,1.7.9,2.4,1.4-.6-9.1-8.4-15.5-14.1-12.2ZM372.8,149.6l-.2-2.6,1.1,1.6c-.3.3-.6.6-.9,1ZM374.7,147.8l-.2-1.3.5,1.1-.3.2ZM376.4,145.6c-.2-.1-.4-.3-.7-.4l2.8-5.7s-1.1,3.2-2.1,6.1ZM385.7,148c.2-2.6.4-5,.4-5l.2,4.8-.6.2ZM388.6,147.5l.2-2.7.2,2.8c-.1,0-.3,0-.4,0Z"/>
    <g class="st31">
      <path class="st28" d="M348.7,170.7l-2.4-5s1,2.9,1.9,5.4c.2-.1.4-.3.6-.4Z"/>
      <path class="st28" d="M339.6,168.7l-.2,4.2.5.2c-.2-2.2-.3-4.4-.3-4.4Z"/>
      <path class="st28" d="M350.4,173.6c.3.3.5.6.8.9l.2-2.3-1,1.4Z"/>
      <path class="st28" d="M349.5,172.9l.2-1.1-.4.9.3.2Z"/>
      <path class="st28" d="M378.5,139.5l-2.8,5.7c.2.1.4.3.6.4,1-2.9,2.1-6.1,2.1-6.1Z"/>
      <path class="st28" d="M337.2,170.3l-.2,2.5h.4c0,0-.2-2.5-.2-2.5Z"/>
      <path class="st28" d="M385.7,148c.2,0,.4-.2.6-.2l-.2-4.8s-.2,2.4-.4,5Z"/>
      <path class="st28" d="M388.6,147.5h.4c0,.1-.2-2.7-.2-2.7l-.2,2.7Z"/>
      <path class="st28" d="M375,147.5l-.5-1.1.2,1.3.3-.2Z"/>
      <path class="st28" d="M372.6,147l.2,2.6c.3-.4.5-.7.9-1l-1.1-1.6Z"/>
      <path class="st28" d="M336.1,181.1v1.1l.2-.4-.2-.6ZM364,182.5c-1-9-4.8-12.3-10.6-12.9-1.3-.1-2.6,0-3.8.6l.7-.4-1.3-3.7,1.8,3.4c.6-.3,1.3-.6,2-.8l-1.4-5.4,2.7,5c.7-.2,1.4-.3,2.1-.3l-.4-1.7.9,1.7h1.5l-1.4-3.3c.1.2,1,1.6,1.9,3.3.8,0,1.6.1,2.4.3-3.5-7.1-12-9.5-15.5-4.9-2.1,2.8-2,6.9-1.7,9.4h0c0,0-.1-.2-.2-.4-.2-3.3-1-13.6-4-14.8-1.6-.6-2.8.5-3.6,1.9v3.5l.5-2-.3,2.2c.4,0,.8.2,1.2.4l.7-2.9-.3,3.2.5.3.8-2.8-.6,3c.8.7,1.5,1.5,2.1,2.4v-4l.8,5.4.4.8c-.7-1.1-1.7-2-2.8-2.6-.9-.5-2-.8-3.1-.7v14.5l.7.9c.2-.4.5-.7.8-1.1l-.6-1.7.8,1.4c.2-.2.4-.4.6-.7l-.7-2.2,1.1,1.9c.5-.6,1.1-1.1,1.8-1.5l-1.1-2.7,1.6,2.4c-1.8,1.9-3.3,5.3,0,10.6,0,0,0-1.5.3-3.5l-.8-.9.8.4c0-.6.2-1.3.3-1.9l-.6-.9.7.4v-.7c.1,0-.7-1.9-.7-1.9l1.1.7c0-.3.2-.6.2-.9l.3,1.7.2-.6h0l.7-2.1,1.6,1.9.4-1.9h0l1.6,1.2c-.2-1.2-.5-2.4-.9-3.6h.2c.4.3.7.5,1.1.9l.5-.7v1.2c.3.3.6.6.8.9l.7-2.1-.2,2.8c.4.5.8,1,1.1,1.5l.2-2,.2,2.6c.4.6.7,1.1,1,1.7l.2-3.7.4,4.7c.7,1.4,1.1,2.4,1.1,2.4,0,0,.6-6-1.9-9.8.5.1,1,.3,1.5.4.7.2,1.3.5,2,.8l.7-2.4-.2,2.6c.6.3,1.2.7,1.8,1l.3-2.1v2.3c.9.4,1.6.9,2.2,1.4l-.3-3.7.8,4.1c.7.5,1.2.9,1.8,1.4v-2.6c-.1,0,.8,3.2.8,3.2.7.6,1.1,1,1.1,1h0ZM337,172.8l.2-2.5.2,2.4h-.4ZM339.4,172.9l.2-4.2s.1,2.1.3,4.4l-.5-.2ZM348.1,171c0-.2-.1-.3-.2-.5l-.3-.9c-.3-1-.7-1.9-.9-2.6v-.3c-.1,0-.2-.2-.2-.3,0-.1,0-.2,0-.3l-.2-.4,2.4,5c-.2.1-.4.2-.6.3ZM349.5,172.9c0,0-.2-.1-.3-.2l.4-.9-.2,1.1ZM351.2,174.5c-.2-.3-.5-.6-.8-.9l1-1.4-.2,2.3Z"/>
      <path class="st28" d="M386.5,140.3c-1.3.7-2.4,1.8-3.2,3,.1-.3.3-.6.4-.9l1-6.1v4.5c.7-1,1.5-2,2.4-2.8l-.6-3.4,1,3.1c.2-.1.4-.3.5-.4l-.4-3.6.8,3.4c.4-.2.9-.4,1.4-.5l-.3-2.5.6,2.5c.2,0,.5,0,.7,0l-.5-1.9.9,1.9c.2,0,.4,0,.5.1,0,0-1.8-8-5.9-6.5-3.4,1.3-4.3,13-4.6,16.8l-.2.5h0c.4-2.9.5-7.6-1.9-10.7-4-5.2-13.6-2.5-17.7,5.6.9-.2,1.9-.3,2.8-.3,1.1-1.9,2.1-3.5,2.2-3.7l-1.6,3.7c.5,0,1.1,0,1.7,0l1.1-1.9-.5,2c.8,0,1.6.2,2.4.4l3.1-5.7-1.6,6.1c.8.3,1.5.6,2.3.9l2-3.9-1.5,4.2.8.5c-1.4-.6-2.8-.8-4.3-.7-6.7.6-11,4.4-12.1,14.7,0,0,.5-.5,1.3-1.2l1-3.7v2.9c.4-.5,1.1-1,1.9-1.6l1-4.7-.4,4.2c.7-.5,1.5-1.1,2.4-1.6v-2.7c.1,0,.5,2.4.5,2.4.7-.4,1.4-.8,2.1-1.2l-.3-3,.8,2.7c.7-.4,1.5-.7,2.2-.9.6-.2,1.2-.4,1.7-.5-2.8,4.4-2.1,11.2-2.1,11.2,0,0,.4-1.1,1.3-2.8l.4-5.4.2,4.2c.3-.6.7-1.2,1.1-1.9l.2-3,.3,2.3c.4-.6.8-1.2,1.3-1.7l-.2-3.1.8,2.4c.3-.4.6-.7,1-1v-1.3l.5.8c.4-.4.8-.7,1.2-1h.2c-.5,1.3-.8,2.6-1,4h0s0,0,0,.1l2-1.4.5,2.2,1.3-1.6h0l.5-.6,1,3.1.4-1.9c.1.3.2.7.3,1l1.2-.8-1,2.2c0,.2,0,.5.1.8l.8-.4-.7,1.1c.1.8.2,1.5.3,2.2l.9-.5-.9,1.1c.2,2.3.3,4,.3,4,3.7-6,2-9.9,0-12.1l1.8-2.7-1.2,3.1c.7.5,1.4,1,2,1.7l1.2-2.2-.8,2.6c.2.2.4.5.6.8l.9-1.6-.7,1.9c.3.4.6.8.9,1.2l1.7-2.2-1.2,3c.9,1.5,1.7,3.2,2.3,4.8l1.2-3.5-.9,4.4c.4,1.1.8,2.1,1,2.9l.8-3-.6,3.8c.2.6.2.9.2.9,3-9.7.6-16.1-2.4-19h0l1-6.2.6,6.4c.8.2,1.6.3,2.3.6l.3-2,.2,2.2c.6.2,1.1.4,1.6.6v-4.1s.3,2,.5,4.3c.9.4,1.7.9,2.4,1.4-.6-9.1-8.4-15.5-14.1-12.2ZM372.8,149.6l-.2-2.6,1.1,1.6c-.3.3-.6.6-.9,1ZM374.7,147.8l-.2-1.3.5,1.1-.3.2ZM376.4,145.6c-.2-.1-.4-.3-.7-.4l2.8-5.7s-1.1,3.2-2.1,6.1ZM385.7,148c.2-2.6.4-5,.4-5l.2,4.8-.6.2ZM388.6,147.5l.2-2.7.2,2.8c-.1,0-.3,0-.4,0Z"/>
    </g>
    <path class="st24" d="M481.8,244v13.1h-142.6l1.1-2c3.6-.2,6.9-1.9,9.2-4.6.9-1.1,1.8-2.2,2.8-3.2,0,0,.1-.1.1-.2.3-.2.7-.4,1-.6l.5-.2h.4c0-.1.8-.5.8-.5.7-.3,1.4-.6,2.1-.9,1.7-.8,3.2-1.9,4.5-3.2h0c1-1.1,1.8-2.3,2.9-3.4,0,0,.2,0,.3-.1h.8c0-.1.3-.1.3-.1h1c.6,0,1.2,0,1.8.1,2.4,3.5,5.4,8.3,6.7,8.9,2.1,1,21,6,22.4,5.7s8.7.3,10.6.2,5.2-.9,10-3.1,7.5-2.2,13.3-4.1,9.7-2.6,13.1.3c.3.2.6.4,1,.6.4.1.7.2,1.1.2,4.2.3,11.1-4.1,13.6-4.8,2.9-.9,8.5-5.8,12.3-3.5,3,1.8,5.5,2.8,8.8,5.2Z"/>
    <path class="st16" d="M481.8,244v13.1h-142.6l1.1-2c3.6-.2,6.9-1.9,9.2-4.6.9-1.1,1.8-2.2,2.8-3.2,0,0,.1-.1.1-.2.3-.2.7-.4,1-.6l.5-.2h.4c0-.1.8-.5.8-.5.7-.3,1.4-.6,2.1-.9,1.7-.8,3.2-1.9,4.5-3.2h0c1-1.1,1.8-2.3,2.9-3.4,0,0,.2,0,.3-.1h.8c0-.1.3-.1.3-.1h1c.6,0,1.2,0,1.8.1,2.4,3.5,5.4,8.3,6.7,8.9,2.1,1,21,6,22.4,5.7s8.7.3,10.6.2,5.2-.9,10-3.1,7.5-2.2,13.3-4.1,9.7-2.6,13.1.3c.3.2.6.4,1,.6.4.1.7.2,1.1.2,4.2.3,11.1-4.1,13.6-4.8,2.9-.9,8.5-5.8,12.3-3.5,3,1.8,5.5,2.8,8.8,5.2Z"/>
    <path class="st18" d="M412.5,151.9c0-1.5,1.2-2.7,2.7-2.7.3,0,.5,0,.8.1-.5-3.1,1.7-6,4.8-6.5.3,0,.6,0,.8,0,.4,0,.7,0,1.1.1,1.4-2.4,4.4-3.2,6.8-1.8,1.6.9,2.5,2.6,2.5,4.4h0c2.5-.1,4.7,1.9,4.8,4.4s-1.9,4.7-4.4,4.8c-.1,0-.3,0-.4,0h-17c-1.4,0-2.6-1.3-2.5-2.7Z"/>
    <path class="st18" d="M447.9,172.7c0-1.5,1.2-2.7,2.7-2.7.3,0,.5,0,.8.1-.5-3.1,1.7-6,4.8-6.5.3,0,.6,0,.8,0,.4,0,.7,0,1.1.1,1.4-2.4,4.5-3.1,6.9-1.7,1.5.9,2.4,2.5,2.4,4.3h0c2.5-.1,4.7,1.9,4.8,4.4s-1.9,4.7-4.4,4.8c-.1,0-.3,0-.4,0h-17c-1.4,0-2.6-1.3-2.6-2.7Z"/>
    <path class="st16" d="M462.2,228.3s-2.5-4.5-9.2-8.3c-4-.1-8,.6-11.7,2.2,0,0-1.2,2.1.2,2.9s2.6-.8,2.6-.8c0,0,.3,2.5,2.1,2.6,1.1,0,2.1-.7,2.4-1.8.1,1.4,1.1,2.5,2.4,2.9,1.2.3,2.4-.2,3.1-1.1.2,1.1,1,2,2.1,2.4.9.2,1.8,0,2.3-.8,0,0,.4,2,1.9,2,1.3,0,1.7-2.3,1.7-2.3Z"/>
    <path class="st5" d="M416.2,181.1s.2,10.8,9.9,11.7"/>
    <path class="st34" d="M429.5,205.3c-2.3,1.2-4.8,2.2-7.3,2.9l-.6-4.8-.5-3.7s9-.5,10.8-4.9-5.2-8.3-9.9-10.3c-2.2-.9-3.9-1.4-3.9-1.4v-5.7s1.2.4,3.1,1.2c5.3,2.2,15.6,7,17.7,11.9,2.2,5.2-1.3,10.7-9.4,14.9Z"/>
    <path class="st14" d="M422,184.5c-2.2-.9-3.9-1.4-3.9-1.4v-5.7s1.2.4,3.1,1.2c.6,1.9.8,3.9.8,5.9Z"/>
    <path class="st14" d="M429.5,205.3c-2.3,1.2-4.8,2.2-7.3,2.9l-.6-4.8c1.9,0,5.4.2,7.9,1.9Z"/>
    <path class="st27" d="M391.4,161.9c4.1-3.6,9.1-6.1,14.4-7,9.3-1.8,16,7,15.3,14.9s-4.6,12.9-5.1,15.3,2.2,9.2,5.1,11.7c0,0-25,6.1-30.9,3s-2.2-9.7-4-17.8-1.9-17.8,5.2-20Z"/>
    <path class="st27" d="M429.9,257.1l-2.9-5.8-30.8-2c-.7,2.8-1.3,5.3-1.8,7.8h35.6Z"/>
    <polygon points="396.2 251.4 395.2 255.9 427.3 254.3 426.8 249.1 396.2 251.4"/>
    <polygon class="st27" points="406.7 257.1 406.5 249.8 405 249.9 405.1 257.1 406.7 257.1"/>
    <rect class="st28" x="413.2" y="250.2" width="6.7" height="5.1" transform="translate(-14.8 26.2) rotate(-3.5)"/>
    <rect class="st27" x="423.8" y="248.3" width="1.5" height="7.7" transform="translate(-5.8 10.1) rotate(-1.4)"/>
    <path class="st34" d="M427.1,251.4h-31.4c.3-3.1.3-6.3-.2-9.4-.8-4.7-1.9-9.3-3.5-13.8-3.9-12-8.2-21.8.8-25.1,8.6-3.1,28.3-3.3,28.3-3.3,0,0,3.6,9.3,4.7,15.7,2.7,15.7,1.3,36,1.3,36Z"/>
    <path class="st34" d="M409.3,197.9c0,1.9.2,3.8.8,5.7l-11.7-1.6c1.8-1.9,1.8-6,1.4-9.4-.2-1.6-.5-3.1-.7-4.2-.2-.9-.3-1.4-.3-1.4l4.6,1,7.5,1.6c-1,2.7-1.6,5.5-1.6,8.4Z"/>
    <path class="st14" d="M410.9,189.5c-1.1,2.7-1.6,5.5-1.6,8.4-3.7-.6-7.1-2.5-9.5-5.3-.2-1.6-.5-3.1-.7-4.2,1.5-.2,2.9-.3,4.3-.5l7.5,1.6Z"/>
    <path class="st34" d="M403.8,162c9.3-1,12.9,3.6,14.6,13.1,2.2,11.9.5,20.8-11.5,19.5-16.2-1.6-18.7-30.9-3.2-32.6Z"/>
    <path class="st36" d="M412.3,175.3c.9,1.3,2,2.5,3.1,3.6-.5.9-1.4,1.4-2.3,1.3l-.8-4.9Z"/>
    <path class="st27" d="M406.5,175.2c.1.8-.2,1.4-.7,1.5s-1-.5-1.1-1.3.2-1.4.7-1.5,1,.5,1.1,1.3Z"/>
    <path class="st27" d="M405.2,174l1.6-.9s-.6,1.5-1.6.9Z"/>
    <path class="st27" d="M416,173.8c.1.8-.2,1.4-.7,1.5s-1-.5-1.1-1.3.2-1.4.7-1.5,1,.5,1.1,1.3Z"/>
    <path class="st27" d="M414.7,172.6l1.6-.9s-.6,1.5-1.6.9Z"/>
    <path class="st7" d="M405.7,168.8s-2.7,0-3.9,1.9"/>
    <path class="st7" d="M412.4,167.6c1.3-.5,2.7-.3,3.8.3"/>
    <path class="st27" d="M395.3,178.9s3.5-8.1,2.2-14c0,0,17.6-9.6,20.7,9,0,0,0-16.9-16.1-15.4s-13.4,24.9-4.3,30.9c0,0-4.5-5.4-2.4-10.5Z"/>
    <path class="st34" d="M397.1,180.7c-.4-2.2-2.6-3.7-4.8-3.2-2.9.6-3.6,6.7,3.8,7.4,1.1,0,1.5-1,1-4.1Z"/>
    <path class="st5" d="M410.8,185c-1.8-.3-3.4-1.4-4.2-3.1"/>
    <path class="st24" d="M389.2,219.4s25.5-6.3,36.1-6.5c3.3,12.6,3.9,25.7,1.8,38.6h-31.4c0,.1-.3-12.1-6.6-32Z"/>
    <path class="st5" d="M397.5,164.9s17-5.8,21.7,7.3"/>
    <path class="st5" d="M391.3,162.7c1.7-2.2,6.8-9.4,17-9.2s10.9,9.2,10.9,9.2"/>
    <path class="st5" d="M386.8,177.4c0,4.3-.6,8.6-1.7,12.8-1.9,7.2.4,10.3,3.7,10.9"/>
    <path class="st5" d="M397.2,201.9s4.5,8.7,18.2,16c0,0-1.1-13-5.2-17.6"/>
    <path class="st27" d="M415.5,217.7s3.1,3.4,1.1,3.8-1.1-3.8-1.1-3.8Z"/>
    <path class="st14" d="M394.2,215s4.6,9.4-2.6,14.8l-3-11.7s2.9-4.2,5.6-3.1Z"/>
    <path class="st34" d="M376.7,257.1h7.2c1.6-3,7.1-13.6,7.4-16.8.4-3.8,2.9-25.9,2.9-25.9l-1.4-11.4s-5.2,1.9-7,6.2c-3,7.2-2.6,23.8-2.6,28,0,3.6-5.2,16.5-6.6,19.9Z"/>
    <path class="st2" d="M374.9,256.6s.2-.5.5-1.4"/>
    <path class="st10" d="M376.1,253.2c1.9-5.3,5.5-15.1,5.4-15.6,0-.8-.9-16.8,0-21.6.6-4.1,2.4-8,5.2-11.1"/>
    <path class="st2" d="M387.5,204.1c.3-.4.7-.7,1.1-1.1-.5-.1-1-.3-1.4-.4"/>
    <path class="st8" d="M385.3,201.7c-1.4-.8-2.4-2.2-2.9-3.8-.9-4.1,2.3-13.6,2-16.2s-3.2-11.2-.5-16.6c1-2.2,2.8-3.9,5-4.7"/>
    <path class="st2" d="M389.8,160c.5-.1,1-.2,1.5-.2,0,0,.3-.4,1-1.1"/>
    <path class="st9" d="M393.7,157.3c3.3-3.1,9.6-7.7,17.3-6.1,10.2,2.2,13.2,14.8,11,23.2"/>
    <path class="st2" d="M421.7,175.3c-.2.5-.3,1-.5,1.4,0,0,.5.1,1.4.4"/>
    <path class="st11" d="M424.5,177.9c5.4,2,15.7,6.8,17,13.7,1.5,8-2.4,12.1-11.8,16.4"/>
    <path class="st2" d="M428.7,208.4l-1.4.6s.1.5.3,1.5"/>
    <path class="st1" d="M428.1,212.4c1.5,7.4,4.4,25.5.8,38.2l2,4.2"/>
    <line class="st2" x1="431.2" y1="255.8" x2="431.9" y2="257.1"/>
    <rect class="st19" x="297.2" y="117.6" width="12" height="164.8"/>
    <rect class="st19" x="297.2" y="98.2" width="263.2" height="18"/>
    <rect class="st19" x="504.5" y="122.6" width="55.9" height="45.6"/>
    <rect class="st14" x="505.9" y="124" width="52.9" height="36.3"/>
    <rect class="st28" x="509.9" y="124.8" width="39.1" height="34.8"/>
    <polygon class="st24" points="541 150.6 539.5 157.6 539.2 157.5 540.8 150.6 541 150.6"/>
    <polygon class="st21" points="541 150.6 539.5 157.6 539.2 157.5 540.8 150.6 541 150.6"/>
    <circle class="st24" cx="539.6" cy="132.9" r="4.5"/>
    <circle class="st17" cx="539.6" cy="132.9" r="4.5"/>
    <path class="st24" d="M530.3,131.4c0-.4.3-.7.7-.7,0,0,.1,0,.2,0,0,0,0-.1,0-.2,0-.8.7-1.5,1.5-1.5,0,0,0,0,0,0,0,0,.2,0,.3,0,.2-.4.7-.6,1.1-.6.7,0,1.3.6,1.4,1.3h0c.7,0,1.2.6,1.2,1.2,0,.7-.6,1.2-1.2,1.2h-4.6c-.4,0-.6-.3-.7-.7Z"/>
    <path class="st24" d="M539.9,136.9c0-.4.3-.7.7-.7,0,0,.1,0,.2,0,0-.9.5-1.7,1.4-1.8,0,0,0,0,.1,0,0,0,.2,0,.3,0,.4-.6,1.2-.8,1.8-.5.4.2.6.7.7,1.1h0c.7,0,1.3.4,1.3,1.1,0,.7-.4,1.3-1.1,1.3,0,0-.1,0-.2,0h-4.5c-.4,0-.7-.3-.7-.7Z"/>
    <path class="st24" d="M543.7,151.8c-.6-.9-1.5-1.7-2.5-2.2-1.1,0-2.1.2-3.1.6,0,0-.3.6,0,.8s.7-.2.7-.2c0,0,0,.7.6.7.3,0,.6-.2.6-.5,0,.4.3.7.6.8.3,0,.6,0,.8-.3,0,.3.3.5.6.6.2,0,.5,0,.6-.2,0,0,.1.6.5.6s.5-.6.5-.6Z"/>
    <path class="st24" d="M514.9,158c-.6-6.8-1.8-13.5-3.5-20.1l.6-.4s2.5,4.1,5.1,20.1l-2.2.5Z"/>
    <g class="st33">
      <path class="st28" d="M514.9,158c-.6-6.8-1.8-13.5-3.5-20.1l.6-.4s2.5,4.1,5.1,20.1l-2.2.5Z"/>
    </g>
    <path class="st24" d="M518,156.5c-.3-8.5,1-17,4.1-25l-.6-.5s-5.4,9.3-5.9,25.7l2.5-.2Z"/>
    <g class="st32">
      <path class="st28" d="M518,156.5c-.3-8.5,1-17,4.1-25l-.6-.5s-5.4,9.3-5.9,25.7l2.5-.2Z"/>
    </g>
    <path class="st0" d="M513.2,136.4l-.7-1.4s.3.8.5,1.4h.2Z"/>
    <path class="st0" d="M510.8,135.9v1.1s0,0,0,0c0-.6,0-1.2,0-1.2Z"/>
    <path class="st0" d="M513.7,137.2c0,0,.1.2.2.2v-.6c0,0-.2.4-.2.4Z"/>
    <path class="st0" d="M513.5,137v-.3.2c-.1,0,0,0,0,0Z"/>
    <path class="st0" d="M521.2,128l-.7,1.5h.2c.3-.6.6-1.5.6-1.5Z"/>
    <path class="st0" d="M510.1,136.3v.7h0v-.7Z"/>
    <path class="st0" d="M523.2,130.3h.2v-1.3c0,0-.1.6-.2,1.3Z"/>
    <path class="st0" d="M523.9,130.2h.1v-.8s-.1.8-.1.8Z"/>
    <path class="st0" d="M520.3,130.2v-.3c-.1,0-.1.3-.1.3h.1Z"/>
    <path class="st0" d="M519.6,130v.7c.1,0,.2-.2.3-.3l-.3-.4Z"/>
    <path class="st24" d="M509.9,139.2v.3h0c0-.1,0-.3,0-.3ZM517.3,139.5c-.3-2.4-1.3-3.3-2.9-3.4-.3,0-.7,0-1,.2h.2c0-.1-.3-1.1-.3-1.1l.5.9c.2,0,.3-.2.5-.2l-.4-1.4.7,1.3h.6c0,0-.1-.6-.1-.6l.3.4h.4l-.4-.9.5.9c.2,0,.4,0,.7,0-1-1.9-3.2-2.6-4.2-1.3-.5.8-.6,1.6-.5,2.5h0c0-1-.3-3.8-1.1-4.1-.4-.2-.8.1-1,.5v1-.5c.1,0,0,.6,0,.6.1,0,.2,0,.3.1l.2-.8v.8c0,0,0,0,0,0l.2-.7v.8c0,.2.3.4.4.6v-1.1l.2,1.4v.2c0-.3-.3-.5-.7-.7-.2-.1-.5-.2-.8-.2v3.9l.2.2.2-.3-.2-.4.2.4v-.2c.1,0,0-.6,0-.6l.3.5c.1-.2.3-.3.5-.4l-.3-.7.4.6c-.5.5-.9,1.4,0,2.9,0,0,0-.4,0-1l-.2-.3h.2c0,0,0-.2,0-.4l-.2-.2h.2c0,.1,0,0,0,0l-.2-.5.3.2v-.2c0,0,.1.4.1.4v-.2h0l.2-.6.4.5v-.5h.1l.4.3c0-.3-.1-.7-.2-1h0l.3.2v-.2c.1,0,.1.3.1.3l.2.2.2-.6v.7c0,.1.2.3.2.4v-.5c0,0,.1.7.1.7l.3.4v-1,1.3c.3.4.4.6.4.6,0-.9,0-1.8-.5-2.6h.4c0,.1.5.3.5.3l.2-.6v.7c.1,0,.3.2.4.3v-.6c0,0,0,.6,0,.6.2.1.4.2.6.4v-1c0,0,.1,1.1.1,1.1.2.1.3.2.5.4v-.7l.2.9.4.4ZM510.1,136.9v-.7.6h0ZM510.7,136.9v-1.1s0,.6.1,1.2h-.1ZM513.1,136.4s0,0,0-.1v-.2c0,0-.3-.7-.3-.7h0v-.2h0c0-.1,0-.2,0-.2l.6,1.3h-.3ZM513.5,136.9h0c0,0,.1-.3.1-.3v.3ZM513.9,137.4c0,0-.1-.1-.2-.2l.3-.4v.6Z"/>
    <path class="st24" d="M523.4,128.2c-.3.2-.6.5-.9.8v-.2c.1,0,.4-1.6.4-1.6v1.2c.2-.3.4-.5.6-.7l-.2-.9.2.8h.1c0,0-.1-1.1-.1-1.1l.2.9c.1,0,.2-.1.4-.1v-.7c0,0,0,.7,0,.7h.2v-.5c-.1,0,.1.5.1.5h.1s-.5-2.2-1.6-1.7c-.9.4-1.2,3.5-1.2,4.5,0,0,0,0,0,.1h0c.2-1,0-2-.5-2.8-1.1-1.4-3.7-.7-4.8,1.5.2,0,.5,0,.8,0l.6-1-.4,1c.1,0,.3,0,.5,0l.3-.5v.5c0,0,.3,0,.5.1l.8-1.5-.4,1.6c.2,0,.4.2.6.2l.5-1.1-.4,1.1h.2c-.4,0-.8,0-1.2,0-1.8.2-2.9,1.2-3.2,3.9l.4-.3.3-1v.8c.1-.1.3-.3.5-.4l.3-1.2v1.1c-.1,0,.5-.4.5-.4v-.7.6c.3-.1.5-.2.7-.3v-.8c0,0,.1.7.1.7.2,0,.4-.2.6-.2h.5c-.5.8-.7,1.8-.6,2.9,0,0,.1-.3.3-.7v-1.4c.1,0,.2,1.1.2,1.1,0-.2.2-.3.3-.5v-.8s.1.6.1.6c.1-.2.2-.3.3-.5v-.8s.2.6.2.6c0,0,.2-.2.2-.3v-.4.2c.1,0,.5-.3.5-.3h0c-.1.3-.2.7-.3,1.1h0l.5-.4v.6c.1,0,.5-.4.5-.4h.1c0-.1.3.7.3.7v-.5c.1,0,.1.2.2.3l.3-.2-.3.6v.2h.2c0-.1-.2.2-.2.2,0,.2,0,.4,0,.6h.2c0-.1-.2.2-.2.2,0,.6,0,1.1,0,1.1,1-1.6.5-2.6,0-3.2l.5-.7-.3.8c.2.1.4.3.5.4l.3-.6-.2.7c0,0,.1.1.2.2l.2-.4-.2.5.2.3.5-.6-.3.8c.2.4.5.8.6,1.3l.3-.9-.2,1.2c.1.3.2.6.3.8l.2-.8-.2,1v.2c.9-2.6.2-4.3-.6-5.1h0l.3-1.5v1.7c.4,0,.6,0,.8.2v-.6c0,0,.1.6.1.6.2,0,.3.1.4.2v-1.1s0,.5.1,1.2c.2.1.5.2.7.4-.1-2.5-2.2-4.2-3.8-3.3ZM519.7,130.7v-.7c0,0,.2.4.2.4,0,0-.2.2-.2.3h0ZM520.2,130.2v-.3.3c.1,0,0,0,0,0ZM520.7,129.7h-.2c0-.1.7-1.6.7-1.6,0,0-.3.9-.6,1.6h0ZM523.2,130.3c0-.7.1-1.3.1-1.3v1.3c0,0-.1,0-.1,0ZM523.9,130.2v-.7c0,0,.1.8.1.8h-.1Z"/>
    <g class="st31">
      <path class="st28" d="M513.2,136.4l-.7-1.4s.3.8.5,1.4h.2Z"/>
      <path class="st28" d="M510.8,135.9v1.1s0,0,0,0c0-.6,0-1.2,0-1.2Z"/>
      <path class="st28" d="M513.7,137.2c0,0,.1.2.2.2v-.6c0,0-.2.4-.2.4Z"/>
      <path class="st28" d="M513.5,137v-.3.2c-.1,0,0,0,0,0Z"/>
      <path class="st28" d="M521.2,128l-.7,1.5h.2c.3-.6.6-1.5.6-1.5Z"/>
      <path class="st28" d="M510.1,136.3v.7h0v-.7Z"/>
      <path class="st28" d="M523.2,130.3h.2v-1.3c0,0-.1.6-.2,1.3Z"/>
      <path class="st28" d="M523.9,130.2h.1v-.8s-.1.8-.1.8Z"/>
      <path class="st28" d="M520.3,130.2v-.3c-.1,0-.1.3-.1.3h.1Z"/>
      <path class="st28" d="M519.6,130v.7c.1,0,.2-.2.3-.3l-.3-.4Z"/>
      <path class="st28" d="M509.9,139.2v.3h0c0-.1,0-.3,0-.3ZM517.3,139.5c-.3-2.4-1.3-3.3-2.9-3.4-.3,0-.7,0-1,.2h.2c0-.1-.3-1.1-.3-1.1l.5.9c.2,0,.3-.2.5-.2l-.4-1.4.7,1.3h.6c0,0-.1-.6-.1-.6l.3.4h.4l-.4-.9.5.9c.2,0,.4,0,.7,0-1-1.9-3.2-2.6-4.2-1.3-.5.8-.6,1.6-.5,2.5h0c0-1-.3-3.8-1.1-4.1-.4-.2-.8.1-1,.5v1-.5c.1,0,0,.6,0,.6.1,0,.2,0,.3.1l.2-.8v.8c0,0,0,0,0,0l.2-.7v.8c0,.2.3.4.4.6v-1.1l.2,1.4v.2c0-.3-.3-.5-.7-.7-.2-.1-.5-.2-.8-.2v3.9l.2.2.2-.3-.2-.4.2.4v-.2c.1,0,0-.6,0-.6l.3.5c.1-.2.3-.3.5-.4l-.3-.7.4.6c-.5.5-.9,1.4,0,2.9,0,0,0-.4,0-1l-.2-.3h.2c0,0,0-.2,0-.4l-.2-.2h.2c0,.1,0,0,0,0l-.2-.5.3.2v-.2c0,0,.1.4.1.4v-.2h0l.2-.6.4.5v-.5h.1l.4.3c0-.3-.1-.7-.2-1h0l.3.2v-.2c.1,0,.1.3.1.3l.2.2.2-.6v.7c0,.1.2.3.2.4v-.5c0,0,.1.7.1.7l.3.4v-1,1.3c.3.4.4.6.4.6,0-.9,0-1.8-.5-2.6h.4c0,.1.5.3.5.3l.2-.6v.7c.1,0,.3.2.4.3v-.6c0,0,0,.6,0,.6.2.1.4.2.6.4v-1c0,0,.1,1.1.1,1.1.2.1.3.2.5.4v-.7l.2.9.4.4ZM510.1,136.9v-.7.6h0ZM510.7,136.9v-1.1s0,.6.1,1.2h-.1ZM513.1,136.4s0,0,0-.1v-.2c0,0-.3-.7-.3-.7h0v-.2h0c0-.1,0-.2,0-.2l.6,1.3h-.3ZM513.5,136.9h0c0,0,.1-.3.1-.3v.3ZM513.9,137.4c0,0-.1-.1-.2-.2l.3-.4v.6Z"/>
      <path class="st28" d="M523.4,128.2c-.3.2-.6.5-.9.8v-.2c.1,0,.4-1.6.4-1.6v1.2c.2-.3.4-.5.6-.7l-.2-.9.2.8h.1c0,0-.1-1.1-.1-1.1l.2.9c.1,0,.2-.1.4-.1v-.7c0,0,0,.7,0,.7h.2v-.5c-.1,0,.1.5.1.5h.1s-.5-2.2-1.6-1.7c-.9.4-1.2,3.5-1.2,4.5,0,0,0,0,0,.1h0c.2-1,0-2-.5-2.8-1.1-1.4-3.7-.7-4.8,1.5.2,0,.5,0,.8,0l.6-1-.4,1c.1,0,.3,0,.5,0l.3-.5v.5c0,0,.3,0,.5.1l.8-1.5-.4,1.6c.2,0,.4.2.6.2l.5-1.1-.4,1.1h.2c-.4,0-.8,0-1.2,0-1.8.2-2.9,1.2-3.2,3.9l.4-.3.3-1v.8c.1-.1.3-.3.5-.4l.3-1.2v1.1c-.1,0,.5-.4.5-.4v-.7.6c.3-.1.5-.2.7-.3v-.8c0,0,.1.7.1.7.2,0,.4-.2.6-.2h.5c-.5.8-.7,1.8-.6,2.9,0,0,.1-.3.3-.7v-1.4c.1,0,.2,1.1.2,1.1,0-.2.2-.3.3-.5v-.8s.1.6.1.6c.1-.2.2-.3.3-.5v-.8s.2.6.2.6c0,0,.2-.2.2-.3v-.4.2c.1,0,.5-.3.5-.3h0c-.1.3-.2.7-.3,1.1h0l.5-.4v.6c.1,0,.5-.4.5-.4h.1c0-.1.3.7.3.7v-.5c.1,0,.1.2.2.3l.3-.2-.3.6v.2h.2c0-.1-.2.2-.2.2,0,.2,0,.4,0,.6h.2c0-.1-.2.2-.2.2,0,.6,0,1.1,0,1.1,1-1.6.5-2.6,0-3.2l.5-.7-.3.8c.2.1.4.3.5.4l.3-.6-.2.7c0,0,.1.1.2.2l.2-.4-.2.5.2.3.5-.6-.3.8c.2.4.5.8.6,1.3l.3-.9-.2,1.2c.1.3.2.6.3.8l.2-.8-.2,1v.2c.9-2.6.2-4.3-.6-5.1h0l.3-1.5v1.7c.4,0,.6,0,.8.2v-.6c0,0,.1.6.1.6.2,0,.3.1.4.2v-1.1s0,.5.1,1.2c.2.1.5.2.7.4-.1-2.5-2.2-4.2-3.8-3.3ZM519.7,130.7v-.7c0,0,.2.4.2.4,0,0-.2.2-.2.3h0ZM520.2,130.2v-.3.3c.1,0,0,0,0,0ZM520.7,129.7h-.2c0-.1.7-1.6.7-1.6,0,0-.3.9-.6,1.6h0ZM523.2,130.3c0-.7.1-1.3.1-1.3v1.3c0,0-.1,0-.1,0ZM523.9,130.2v-.7c0,0,.1.8.1.8h-.1Z"/>
    </g>
    <path class="st24" d="M548.9,156v3.5h-38.2l.3-.5c1,0,1.8-.5,2.5-1.2.2-.3.5-.6.8-.9h0c0,0,.3-.2.3-.2h.5c0,0,.6-.3.6-.3.5-.2.9-.5,1.2-.9h0c.3-.3.5-.6.8-.9h1.1c.5.9,1.1,1.7,1.8,2.4,2,.6,4,1.2,6,1.5.4,0,2.3,0,2.8,0,.9-.1,1.8-.4,2.7-.8,1.2-.4,2.4-.8,3.6-1.1,1.6-.5,2.6-.7,3.5,0,0,0,.2.1.3.1,0,0,.2,0,.3,0,1.1,0,3-1.1,3.6-1.3s2.3-1.6,3.3-.9c.8.4,1.5.7,2.4,1.3Z"/>
    <path class="st16" d="M548.9,156v3.5h-38.2l.3-.5c1,0,1.8-.5,2.5-1.2.2-.3.5-.6.8-.9h0c0,0,.3-.2.3-.2h.5c0,0,.6-.3.6-.3.5-.2.9-.5,1.2-.9h0c.3-.3.5-.6.8-.9h1.1c.5.9,1.1,1.7,1.8,2.4,2,.6,4,1.2,6,1.5.4,0,2.3,0,2.8,0,.9-.1,1.8-.4,2.7-.8,1.2-.4,2.4-.8,3.6-1.1,1.6-.5,2.6-.7,3.5,0,0,0,.2.1.3.1,0,0,.2,0,.3,0,1.1,0,3-1.1,3.6-1.3s2.3-1.6,3.3-.9c.8.4,1.5.7,2.4,1.3Z"/>
    <path class="st18" d="M530.3,131.4c0-.4.3-.7.7-.7,0,0,.1,0,.2,0,0,0,0-.1,0-.2,0-.8.7-1.5,1.5-1.5,0,0,0,0,0,0,0,0,.2,0,.3,0,.2-.4.7-.6,1.1-.6.7,0,1.3.6,1.4,1.3h0c.7,0,1.2.6,1.2,1.2,0,.7-.6,1.2-1.2,1.2h-4.6c-.4,0-.6-.3-.7-.7Z"/>
    <path class="st18" d="M539.9,136.9c0-.4.3-.7.7-.7,0,0,.1,0,.2,0,0-.9.5-1.7,1.4-1.8,0,0,0,0,.1,0,0,0,.2,0,.3,0,.4-.6,1.2-.8,1.8-.5.4.2.6.7.7,1.1h0c.7,0,1.3.4,1.3,1.1,0,.7-.4,1.3-1.1,1.3,0,0-.1,0-.2,0h-4.5c-.4,0-.7-.3-.7-.7Z"/>
    <path class="st16" d="M543.7,151.8c-.6-.9-1.5-1.7-2.5-2.2-1.1,0-2.1.2-3.1.6,0,0-.3.6,0,.8s.7-.2.7-.2c0,0,0,.7.6.7.3,0,.6-.2.6-.5,0,.4.3.7.6.8.3,0,.6,0,.8-.3,0,.3.3.5.6.6.2,0,.5,0,.6-.2,0,0,.1.6.5.6s.5-.6.5-.6Z"/>
    <rect class="st15" x="509.9" y="124.8" width="39.1" height="34.8"/>
    <path class="st34" d="M534.9,145.7c-.6.3-1.3.6-2,.8l-.2-1.3v-1c-.1,0,2.3-.1,2.8-1.3s-1.4-2.2-2.7-2.8c-.6-.2-1-.4-1-.4v-1.5s.3.1.8.3c1.4.6,4.2,1.9,4.7,3.2s-.3,2.9-2.5,4Z"/>
    <path class="st14" d="M532.9,140.1c-.6-.2-1-.4-1-.4v-1.5s.3.1.8.3c.2.5.2,1.1.2,1.6Z"/>
    <path class="st14" d="M534.9,145.7c-.6.3-1.3.6-2,.8l-.2-1.3c.8,0,1.5.1,2.2.5Z"/>
    <path class="st27" d="M524.7,134c1.1-1,2.4-1.6,3.9-1.9,2.5-.5,4.3,1.9,4.1,4s-1.2,3.4-1.4,4.1c0,1.2.5,2.3,1.4,3.1,0,0-6.7,1.6-8.3.8s-.6-2.6-1.1-4.8-.5-4.8,1.4-5.4Z"/>
    <path class="st27" d="M535,159.6l-.8-1.6-8.3-.5c-.2.7-.4,1.4-.5,2.1h9.5Z"/>
    <polygon points="526 158 525.7 159.2 534.3 158.8 534.2 157.4 526 158"/>
    <polygon class="st27" points="528.8 159.6 528.7 157.6 528.3 157.6 528.4 159.6 528.8 159.6"/>
    <rect class="st28" x="530.5" y="157.7" width="1.8" height="1.4" transform="translate(-8.8 33.1) rotate(-3.5)"/>
    <rect class="st27" x="533.4" y="157.2" width=".4" height="2.1" transform="translate(-3.6 12.6) rotate(-1.4)"/>
    <path class="st34" d="M534.3,158h-8.4c0-.9,0-1.7,0-2.6-.2-1.3-.5-2.5-.9-3.7-1-3.2-2.2-5.8.2-6.7s7.6-.9,7.6-.9c.5,1.4,1,2.8,1.3,4.2.4,3.2.5,6.5.3,9.7Z"/>
    <path class="st34" d="M529.5,143.7c0,.5,0,1,.2,1.5l-3.1-.4c.4-.8.6-1.7.4-2.5,0-.4-.1-.9-.2-1.1s0-.4,0-.4l1.2.3,2,.4c-.3.7-.4,1.5-.4,2.3Z"/>
    <path class="st14" d="M529.9,141.4c-.3.7-.4,1.5-.4,2.2-1-.2-1.9-.7-2.6-1.4,0-.4-.1-.9-.2-1.1h1.1c0-.1,2,.3,2,.3Z"/>
    <path class="st34" d="M528,134.1c2.5-.3,3.5,1,3.9,3.5.6,3.2.1,5.6-3.1,5.2-4.3-.5-5-8.3-.9-8.8Z"/>
    <path class="st27" d="M525.7,138.6c.5-1.2.7-2.5.6-3.8,0,0,4.7-2.6,5.5,2.4,0,0,0-4.5-4.3-4.1s-3.6,6.7-1.1,8.3c0,0-1.2-1.4-.6-2.8Z"/>
    <path class="st34" d="M526.2,139.1c-.1-.6-.7-1-1.3-.9-.8.2-1,1.8,1,2,.3,0,.4-.3.3-1.1Z"/>
    <path class="st24" d="M524.1,149.4s6.8-1.7,9.7-1.8c.9,3.4,1.1,6.9.5,10.4h-8.4c-.2-2.9-.8-5.8-1.8-8.6Z"/>
    <path class="st4" d="M526.3,144.8c1.2,1.9,2.9,3.3,4.9,4.3,0,0-.3-3.5-1.4-4.7"/>
    <path class="st27" d="M531.1,149s.8.9.3,1-.3-1-.3-1Z"/>
    <path class="st14" d="M525.4,148.3s1.2,2.5-.7,4l-.8-3.1s.8-1.1,1.5-.9Z"/>
    <path class="st34" d="M520.7,159.6h1.9c.8-1.4,1.5-2.9,2-4.5,0-1,.8-6.9.8-6.9l-.4-3c-.8.3-1.5.9-1.9,1.6-.8,1.9-.7,6.4-.7,7.5,0,.9-1.4,4.4-1.8,5.3Z"/>
    <rect class="st14" x="505.9" y="163.4" width="39.6" height="1.4"/>
    <rect class="st14" x="547" y="162.2" width="11.9" height="4"/>
    <rect class="st28" x="524.4" y="163.4" width="5" height="1.4"/>
    <rect class="st19" x="504.5" y="174.6" width="55.9" height="45.6"/>
    <rect class="st14" x="505.9" y="176.7" width="37.2" height="26.1"/>
    <path class="st22" d="M505.9,200.3c0,.1,1.1.4,1.2.4.8-.1,1-.9,1.5-1.6,0,0,.1-.2.2-.3.2-.1.5-.1.7,0,.2.1.4.3.5.6.7-1.8,1.3-3.7,2.2-5.3.7-1.4,1.5-2,1.8-3.7.2-1.2.6-3.9,1-4.1s1,5.8,1.7,5.8,1,4.4,1.7,4.6.7-1.5,1.4-1.5,1.5,1.6,1.9,1.2,1-3.7,2.1-3.7,2-5.9,2.8-7c.2.1.2.4.2.6s0,.5.3.5c.2-.4.3-.8.5-1.2.2-.6,1.3-5,2.3-3.9.1.2.2.4.3.7l2,7.6c0,.2.2.6.4.6l.4-1s0,0,0-.1c0-.1.3,0,.3,0,0,.1,0,.3,0,.4,0,.9.3,1.1.8.4,0-.1.3-.1.4,0,0,0,0,0,0,0,0,.1.1.3.2.4.5,1.9,1.3,3.8,2.2,5.6,0,0,0,.2.1.2.2.1.5-.1.6-.4.4-1,.8-2,1.3-3,.3,0,.7-.1.8-.4.2-.3.3-.6.4-.9.2-.5.4-2.8,1.1-2.5.3.1.7,1.2.7,1.5h1.2v11.8h-37.2v-2.5Z"/>
    <rect class="st14" x="506.5" y="215.2" width="36.6" height="1.4"/>
    <rect class="st28" x="524.9" y="215.2" width="5" height="1.4"/>
    <rect class="st14" x="506.5" y="208.2" width="36.6" height="1.4"/>
    <rect class="st28" x="514.9" y="208.2" width="5" height="1.4"/>
    <rect class="st14" x="546.2" y="179.7" width="11.9" height="4.4" rx="1" ry="1"/>
    <rect class="st14" x="546.2" y="187" width="11.9" height="4.4" rx="1" ry="1"/>
    <rect class="st14" x="546.2" y="194.2" width="11.9" height="4.4" rx="1" ry="1"/>
    <rect class="st14" x="296.2" y="285" width="265.6" height="7"/>
    <rect class="st24" x="504.5" y="117.9" width="55.9" height="4.7"/>
    <rect class="st24" x="504.4" y="169.9" width="55.9" height="4.7"/>
    <rect class="st19" x="504.5" y="226.6" width="55.9" height="56.7"/>
    <rect class="st19" x="505.9" y="228.6" width="52.7" height="11.5"/>
    <rect class="st14" x="507.6" y="229.8" width="10.8" height="9.1"/>
    <rect class="st19" x="506" y="241.4" width="52.7" height="11.5"/>
    <rect class="st14" x="507.7" y="242.6" width="10.8" height="9.1"/>
    <rect class="st19" x="506.1" y="254.2" width="52.7" height="11.5"/>
    <rect class="st14" x="507.8" y="255.4" width="10.8" height="9.1"/>
    <rect class="st19" x="506.2" y="267" width="52.7" height="11.5"/>
    <rect class="st14" x="507.9" y="268.2" width="10.8" height="9.1"/>
    <rect class="st24" x="504.4" y="221.9" width="55.9" height="4.7"/>
    <rect class="st14" x="525.5" y="100.1" width="33.4" height="5.5"/>
    <rect class="st19" x="299.2" y="100.1" width="5.8" height="5.8"/>
    <rect class="st19" x="306.2" y="100" width="5.8" height="5.8"/>
    <rect class="st19" x="313.2" y="99.8" width="5.8" height="5.8"/>
    <rect class="st19" x="320.2" y="99.7" width="5.8" height="5.8"/>
    <rect class="st19" x="327.2" y="99.6" width="5.8" height="5.8"/>
    <rect class="st19" x="336.7" y="99.6" width="17.5" height="5.8"/>
    <rect class="st19" x="357.2" y="99.6" width="17.5" height="5.8"/>
    <rect class="st19" x="377.8" y="99.6" width="17.5" height="5.8"/>
    <rect class="st19" x="398.3" y="99.6" width="17.5" height="5.8"/>
    <rect class="st19" x="298.6" y="119.7" width="8.4" height="8.3"/>
    <rect class="st19" x="298.6" y="129.9" width="8.4" height="8.4"/>
    <rect class="st19" x="298.6" y="140" width="8.4" height="8.4"/>
    <rect class="st19" x="298.6" y="150.2" width="8.4" height="8.4"/>
    <rect class="st19" x="298.6" y="160.4" width="8.4" height="8.4"/>
    <rect class="st19" x="298.6" y="170.5" width="8.4" height="8.4"/>
    <rect class="st19" x="298.6" y="180.7" width="8.4" height="8.4"/>
    <rect class="st19" x="298.6" y="190.9" width="8.4" height="8.4"/>
    <rect class="st19" x="298.6" y="201" width="8.4" height="8.4"/>
    <rect class="st19" x="298.6" y="211.2" width="8.4" height="8.4"/>
    <rect class="st19" x="298.6" y="221.4" width="8.4" height="8.4"/>
  </g>
  <g id="freepik--Character--inject-37">
    <polygon class="st27" points="223 329.7 222.6 345.3 221 415.7 215.6 415.7 213.9 345.3 213.6 329.7 223 329.7"/>
    <polygon class="st23" points="223 329.7 222.6 345.3 221 415.7 215.6 415.7 213.9 345.3 213.6 329.7 223 329.7"/>
    <polygon class="st14" points="223 329.7 222.6 345.7 213.9 345.7 213.6 329.7 223 329.7"/>
    <polygon class="st27" points="252.3 415.5 247.3 330.8 239.2 330.8 246.2 415.5 252.3 415.5"/>
    <polygon class="st22" points="246.2 415.5 252.3 415.5 247.8 338.4 247.3 330.7 239.2 330.7 239.8 338.4 246.2 415.5"/>
    <polygon class="st14" points="239.2 330.7 239.8 338.7 247.8 338.7 247.3 330.7 239.2 330.7"/>
    <polygon class="st27" points="190.4 415.5 197.3 330.8 189.2 330.8 184.2 415.5 190.4 415.5"/>
    <polygon class="st22" points="190.4 415.5 196.7 338.4 197.3 330.7 189.2 330.7 188.7 338.4 184.2 415.5 190.4 415.5"/>
    <polygon class="st14" points="197.3 330.7 196.7 338.7 188.7 338.7 189.2 330.7 197.3 330.7"/>
    <path class="st24" d="M189.8,322h56.9c2.8,0,5,2.2,5,5v6.7h-66.9v-6.7c0-2.8,2.2-5,5-5h0Z"/>
    <rect class="st27" x="181.6" y="327.9" width="73.3" height="5.8" rx="2" ry="2"/>
    <rect class="st21" x="181.6" y="327.9" width="73.3" height="5.8" rx="2" ry="2"/>
    <g id="freepik--group--inject-37">
      <path class="st34" d="M259.7,242.9s11.8,8,14.2,7.5,24.1-3.7,24.1-3.7l1.2,6.1s-20.1,2.6-26.4,3.8c-6.4,1.2-17.4-5.8-17.4-5.8l4.4-7.8Z"/>
      <path class="st24" d="M251,232.7c3.9,2.6,18.4,15,18.4,15l-6.9,9.8-19.4-9.8,7.9-15Z"/>
      <polygon class="st34" points="246.6 408.5 254.6 407.4 255.7 388.5 247.7 389.6 246.6 408.5"/>
      <polygon class="st14" points="247.7 389.6 255.7 388.5 255.1 399.3 247.1 400 247.7 389.6"/>
      <path class="st27" d="M246.9,297.2l-1.9-17.2-44.7-2.7s-4.8,30.3-1.1,37.1c6.5,12,41.6,6,51.9,7.2-6.1,25.1-5.5,74.2-5.5,74.2l14.7,1.1s11.3-52.9,13.6-78c1.5-17-12.5-16.5-26.9-21.7Z"/>
      <polygon class="st24" points="243.9 396.4 261.5 397.6 263 390 243.6 389.1 243.9 396.4"/>
      <polygon class="st34" points="265 401.4 273 402 278 383.7 270 383.1 265 401.4"/>
      <path class="st24" d="M274.1,402.4h0c0,0,0,0,0,0,.6.4,1.3.6,2,.8.5.2,1.1.2,1.6,0,.3-.2.5-.6.5-.9,0-.2,0-.5-.3-.6-.7-.3-1.5-.3-2.2,0,.6-.4,1-1,1.2-1.6,0-.3-.2-.6-.5-.7-.3-.1-.5-.1-.8,0-1,.5-1.4,2.8-1.4,2.9h-.1c0,0,0,.1,0,.2ZM274.7,401.9h-.2c.2-.7.6-2,1.2-2.2.1,0,.3,0,.4,0h0c.2.1.3.2.3.4,0,.5-1,1.4-1.8,1.9h0ZM274.7,402.3c1.1-.3,2.5-.6,3-.3,0,0,.1.2.1.3,0,.2-.1.5-.3.6-.5.3-1.5,0-2.8-.6h0Z"/>
      <polygon class="st14" points="270 383.1 278 383.7 275.2 394.2 267.2 393.2 270 383.1"/>
      <path class="st27" d="M280.8,392.9l-14.1-4.1s8.4-47.6,17-64.1c-.6-.2-1.5-.5-2.5-.8-1.9-.6-4.4-1.3-7.4-2.1-20.5-5.7-62.1-16.4-62.1-16.4l19-16.7s75.7,10.5,77.2,30.5c.7,9.6-27.1,73.7-27.1,73.7Z"/>
      <polygon class="st24" points="264.8 389 281.8 393.9 284.9 386.8 266.1 381.9 264.8 389"/>
      <path class="st14" d="M281.1,323.9c-1.9-.6-4.4-1.3-7.4-2.1.6-4.8.6-10.4-1.7-13.2-4.6-5.6-16.5-9-23.3-10.1-5.7-1-24.7-3-24.7-3,0,0,24.7-2.4,50,5,12.5,3.7,10,15.9,7.1,23.5Z"/>
      <polygon class="st20" points="243.9 396.4 261.5 397.6 263 390 243.6 389.1 243.9 396.4"/>
      <polygon class="st20" points="264.8 389 281.8 393.9 284.9 386.8 266.1 381.9 264.8 389"/>
      <path class="st27" d="M273.8,401.2l-8.7-2.4c-.3,0-.6,0-.7.4h0l-2.4,6.8c-.2.8.2,1.5,1,1.8,3.1.8,4.5,1,8.4,2.1,2.4.6,6.9,2.1,10.3,2.5s3.6-2.9,2.2-3.4c-3.3-1.1-7.2-4.5-8.9-6.8-.3-.4-.7-.7-1.2-.8Z"/>
      <path class="st24" d="M255.4,407.4h.2s.2,0,.2,0c0,0,0,0,0,0,0,0,0,0,0,0,.7.2,1.4.4,2.1.4.5,0,1.1,0,1.5-.3.3-.3.4-.6.3-1,0-.2-.2-.5-.4-.6-.8-.1-1.6,0-2.2.4.5-.5.8-1.1.8-1.8,0-.3-.3-.6-.7-.6-.3,0-.6,0-.9.2-.8.7-1,3-1,3.1h0ZM256.2,407h-.2c0-.7.2-1.9.7-2.4.1-.1.3-.2.4-.1h0c.3,0,.3.2.3.3-.2.9-.6,1.7-1.3,2.3h0ZM256.3,407.4c1-.5,2.3-1.1,2.9-.9.1,0,.2.2.2.3,0,.2,0,.5-.2.7-.4.3-1.4.3-2.9,0h0Z"/>
      <path class="st27" d="M255.2,406.4l-9-.6c-.3,0-.6.2-.6.5,0,0,0,0,0,0h0l-.9,7.1c0,.8.5,1.5,1.3,1.5,0,0,0,0,0,0,3.1.1,4.7,0,8.6.3,2.4.1,7.2.7,10.6.3s2.9-3.6,1.5-3.8c-3.4-.4-8-2.9-10.1-4.8-.4-.3-.9-.5-1.4-.5Z"/>
      <path class="st24" d="M251,232.7s-6.5-5.8-18.4-8.2-22.4,2.9-22.4,2.9c0,0-7.9,19-11.3,52l47.5,3.5s-2-22.3,4.7-50.3Z"/>
      <path class="st18" d="M246.3,282.9s-1.6-17.4,2.7-40.7c.6-3.1,1.2-6.2,2-9.5,0,0-6.5-5.8-18.4-8.2s-22.4,2.9-22.4,2.9c-2,5.1-3.6,10.4-4.9,15.7-3,11.9-5.2,24-6.4,36.2l47.5,3.6Z"/>
      <path class="st24" d="M205.2,243.1c3,6.6,10.4,6.7,13,.8,2.1-4.5,4.9-8.6,8.4-12.2,0,0,8.7,6.9,12.5,6.3,2.2-.3,3.9-2,4.3-4.2,4.9,4.5,5.5,8,5.5,8.3.6-3.1,1.2-6.2,2-9.5,0,0-6.5-5.8-18.4-8.2s-22.4,2.9-22.4,2.9c-2,5.1-3.6,10.4-4.9,15.7Z"/>
      <path class="st34" d="M219.5,240.7c5.4,14.6,4.4,14.6,33.2,6,.9-.8,1.9-1.5,3-2.1,1.2-.4,11.1,2.3,11.7,3.1s-2,5.3-3,5.7-10.2,0-10.8,0h-1.5s-18.4,8.5-25.6,8.7-15-18.2-15-18.2l8-3.2Z"/>
      <path class="st24" d="M210.2,227.4c-4.9,2.5-5.9,15.1,8.1,32.2l9.1-8.3s-6.3-8.1-6.7-15.7-10.5-8.3-10.5-8.3Z"/>
      <path class="st34" d="M235.3,207.5c-1.1,5.6-4,15.5-9.1,17.5,1.8,4.5,5.3,8.1,9.7,9.9,6.6,2.9,6.4-3.3,6.4-3.3-5.2-3.8-3.3-8-.6-11.6l-6.4-12.5Z"/>
      <path class="st14" d="M238,212.6l3.8,7.4c-.6.8-1.2,1.7-1.7,2.6-2.1-1.2-4.1-4.9-3.4-7.3.2-1,.7-1.9,1.3-2.7Z"/>
      <path class="st27" d="M247.4,197.4c-3.3,1.8-2.2,5.5,4.2,11.8,3.2-3.4,4.4-10.5,2.3-12.6s-3.6-.8-6.5.8Z"/>
      <path class="st34" d="M233.5,201.9c-.4,7.6-1,12,2.3,16.4,5.1,6.5,14.8,4.1,17.5-3.2,2.4-6.6,2.6-17.9-4.4-21.8-5-2.8-11.4-.9-14.1,4.1-.8,1.4-1.2,3-1.3,4.6Z"/>
      <path class="st27" d="M244.5,205.2c0,.6.2,1.2.6,1.2s.8-.4.8-1-.2-1.1-.6-1.2-.7.4-.8,1Z"/>
      <path class="st27" d="M251.5,206c0,.6.2,1.2.6,1.2s.8-.4.8-1-.2-1.1-.6-1.2-.8.4-.9,1Z"/>
      <path class="st36" d="M249.2,206.1c.5,2,1.3,3.9,2.3,5.6-.9.5-2,.6-3,.2l.7-5.8Z"/>
      <path class="st27" d="M242.9,202.8c0,0-.2,0-.2,0-.1-.1-.1-.4,0-.5.8-.9,1.9-1.3,3.1-1.1.2,0,.3.2.3.4,0,0,0,0,0,0h0c0,.2-.2.3-.4.3h0c-.9-.1-1.8.2-2.4.9,0,0-.2.1-.3.1Z"/>
      <path class="st27" d="M255,204c-.1,0-.3-.1-.3-.2-.3-.9-1-1.6-1.8-1.9-.2,0-.3-.2-.3-.4,0,0,0,0,0,0,0-.2.2-.3.4-.3,1.1.4,2,1.2,2.4,2.3,0,.2,0,.4-.2.5h0s-.1,0-.2,0Z"/>
      <path class="st27" d="M237.2,195.5c3.4,1.6,2.5,5.4-3.6,12-3.4-3.2-4.9-10.3-3-12.4s3.6-1,6.6.4Z"/>
      <path class="st34" d="M229.2,207.5c.3,1.9,1.4,3.6,2.9,4.7,2.1,1.4,4-.2,4.1-2.6.1-2.2-.8-5.5-3.3-6s-4.1,1.6-3.8,3.9Z"/>
      <path class="st6" d="M242.7,212.6c.9,1.8,2.8,2.9,4.8,2.9"/>
      <path class="st27" d="M238.2,197.7s9-4.9,15.3,0c0,0,3.5-4.1,1.4-8.7s-16.7-2.4-20.6-.8c-7,2.9-1.6,10.7-1.6,10.7l5.5-1.2Z"/>
      <path class="st27" d="M314.4,251.7v2.6c0,.8-1.4,1.4-2.1,1.4h-61.8c-.8,0-2.1-.6-2.1-1.4v-2.6h66Z"/>
      <path class="st13" d="M314.4,251.7v2.6c0,.8-1.4,1.4-2.1,1.4h-40.8c-.8,0-2.1-.6-2.1-1.4v-2.6h45Z"/>
      <path class="st27" d="M324.3,219.2l-7.4,33.5c-.3,1.1-1.2,1.9-2.4,2h-40.2c-1,0-1.7-.9-1.6-1.9,0-.1,0-.2,0-.4l7.4-33.1c.3-1,1.3-1.7,2.4-1.6h40.2c1.1,0,1.8.4,1.5,1.5Z"/>
      <path class="st20" d="M324.3,219.2l-7.4,33.5c-.3,1.1-1.2,1.9-2.4,2h-38.8c-1,0-1.7-.9-1.6-1.9,0-.1,0-.2,0-.3l7.4-33.1c.3-1,1.3-1.7,2.4-1.6h38.8c1.1,0,1.8.4,1.5,1.5Z"/>
      <path class="st22" d="M300.6,240.7c1.9,0,3.8-2,4.3-4.5s-.6-4.5-2.5-4.5c-.3,0-.7,0-1,.2-.4,1.8-1.5,3.3-3.2,4.1,0,0,0,.1,0,.2-.6,2.5.6,4.5,2.4,4.5Z"/>
    </g>
    <polygon points="295.3 415.7 289.1 415.7 288.1 262.5 296.3 262.5 295.3 415.7"/>
    <polygon class="st21" points="296.3 262.7 296.1 287.4 295.3 415.7 289.1 415.7 288.3 287.4 288.1 262.7 296.3 262.7"/>
    <polygon class="st14" points="296.3 262.7 296.1 287.7 288.3 287.7 288.1 262.7 296.3 262.7"/>
    <polygon points="360.3 415.7 354.2 415.7 343.2 262.5 351.3 262.5 360.3 415.7"/>
    <polygon class="st16" points="360.3 415.7 354.2 415.7 343.7 270.1 343.2 262.7 351.3 262.7 351.7 270.1 360.3 415.7"/>
    <polygon class="st14" points="351.7 269.7 343.7 269.7 343.2 262.7 351.3 262.7 351.7 269.7"/>
    <polygon points="230.2 415.7 224.1 415.7 233.1 262.5 241.2 262.5 230.2 415.7"/>
    <polygon class="st16" points="241.2 262.7 240.7 270.1 230.2 415.7 224.1 415.7 232.7 270.1 233.1 262.7 241.2 262.7"/>
    <polygon class="st14" points="233.1 262.7 241.2 262.7 240.7 269.7 232.7 269.7 233.1 262.7"/>
    <path d="M226.7,258.6h131.1v5.5c0,1.2-1,2.2-2.2,2.2h-126.8c-1.2,0-2.2-1-2.2-2.2h0s0-5.5,0-5.5Z"/>
    <path class="st18" d="M226.7,258.6h131.1v5.5c0,1.2-1,2.2-2.2,2.2h-126.8c-1.2,0-2.2-1-2.2-2.2h0s0-5.5,0-5.5Z"/>
    <rect class="st14" x="226.7" y="258.6" width="131.1" height="3.8"/>
    <path d="M361.5,259.6h-138.7c-1.2,0-2.2-1-2.2-2.2h0c0-1.2,1-2.2,2.2-2.2h138.7c1.2,0,2.2,1,2.2,2.2h0c0,1.2-1,2.2-2.2,2.2Z"/>
    <path class="st18" d="M361.5,259.6h-138.7c-1.2,0-2.2-1-2.2-2.2h0c0-1.2,1-2.2,2.2-2.2h138.7c1.2,0,2.2,1,2.2,2.2h0c0,1.2-1,2.2-2.2,2.2Z"/>
  </g>
</svg>