<?xml version="1.0" encoding="UTF-8"?>
<svg id="Livello_1" xmlns="http://www.w3.org/2000/svg" version="1.1" viewBox="0 0 750 500">
  <!-- Generator: Adobe Illustrator 29.1.0, SVG Export Plug-In . SVG Version: 2.1.0 Build 142)  -->
  <defs>
    <style>
      .st0, .st1, .st2 {
        fill: #e0e0e0;
      }

      .st3, .st4, .st5, .st6, .st1, .st2, .st7, .st8, .st9, .st10, .st11, .st12, .st13 {
        isolation: isolate;
      }

      .st3, .st9 {
        opacity: .3;
      }

      .st4, .st14 {
        opacity: .1;
      }

      .st5, .st13 {
        opacity: .4;
      }

      .st6, .st10 {
        opacity: .2;
      }

      .st15 {
        fill: #b97964;
      }

      .st16, .st17, .st18, .st19, .st20, .st21, .st22 {
        stroke-miterlimit: 10;
      }

      .st16, .st18, .st23, .st24, .st25, .st20, .st21, .st22 {
        fill: none;
      }

      .st16, .st23, .st25, .st19, .st21, .st22 {
        stroke: #fff;
      }

      .st26 {
        fill: #ebebeb;
      }

      .st27 {
        fill: #a24e3f;
      }

      .st28 {
        fill: #263238;
      }

      .st17, .st18 {
        stroke: #7558db;
      }

      .st17, .st29, .st7, .st8, .st9, .st10, .st11, .st12, .st13 {
        fill: #fff;
      }

      .st23 {
        stroke-width: 2px;
      }

      .st23, .st24, .st25 {
        stroke-linecap: round;
        stroke-linejoin: round;
      }

      .st24 {
        stroke: #263238;
        stroke-width: .5px;
      }

      .st25 {
        stroke-width: 1.5px;
      }

      .st30 {
        fill: #f0f0f0;
      }

      .st19, .st31 {
        fill: #7558db;
      }

      .st20 {
        stroke: #e6e6e6;
      }

      .st32 {
        fill: #fafafa;
      }

      .st33 {
        fill: #ebb376;
      }

      .st21 {
        stroke-dasharray: 5.3 5.3;
      }

      .st34 {
        fill: #f5f5f5;
      }

      .st22 {
        stroke-dasharray: 4.5 4.5;
      }

      .st1 {
        opacity: .8;
      }

      .st7 {
        opacity: .7;
      }

      .st8 {
        opacity: .9;
      }

      .st11 {
        opacity: .6;
      }

      .st12 {
        opacity: .5;
      }
    </style>
  </defs>
  <g id="freepik--background-complete--inject-25">
    <rect class="st26" x="125" y="382.4" width="500" height=".2"/>
    <rect class="st26" x="541.8" y="398.5" width="33.1" height=".2"/>
    <rect class="st26" x="447.5" y="401.2" width="8.7" height=".2"/>
    <rect class="st26" x="521.6" y="389.2" width="19.2" height=".2"/>
    <rect class="st26" x="177.5" y="390.9" width="43.2" height=".2"/>
    <rect class="st26" x="229.6" y="390.9" width="6.3" height=".2"/>
    <rect class="st26" x="256.5" y="395.1" width="93.7" height=".2"/>
    <path class="st26" d="M362,337.8h-193.1c-3.1,0-5.7-2.6-5.7-5.7V60.7c0-3.1,2.6-5.7,5.7-5.7h193.1c3.2,0,5.7,2.6,5.7,5.7h0v271.4c0,3.2-2.6,5.7-5.7,5.7ZM168.9,55.2c-3,0-5.5,2.4-5.5,5.5v271.4c0,3,2.4,5.5,5.5,5.5h193.1c3,0,5.5-2.4,5.5-5.5V60.7c0-3-2.4-5.5-5.5-5.5h-193.1Z"/>
    <path class="st26" d="M578.3,337.8h-193.1c-3.2,0-5.7-2.6-5.7-5.7V60.7c0-3.1,2.6-5.7,5.7-5.7h193.1c3.1,0,5.7,2.5,5.7,5.7v271.4c0,3.1-2.5,5.7-5.7,5.7ZM385.2,55.2c-3,0-5.5,2.4-5.5,5.5v271.4c0,3,2.4,5.5,5.5,5.5h193.1c3,0,5.5-2.4,5.5-5.5V60.7c0-3-2.4-5.5-5.5-5.5h-193.1Z"/>
    <path class="st30" d="M478.9,98.1c0-2.7-2.2-4.9-4.9-4.9,0,0,0,0,0,0-.5,0-1,0-1.4.2,0-.5.1-1,.1-1.5,0-5.7-4.6-10.3-10.3-10.3-.6,0-1.3,0-1.9.2-2.6-4.3-8.2-5.6-12.4-3-2.7,1.6-4.3,4.5-4.3,7.6h-.1c-4.6.2-8.2,4-8.1,8.6.2,4.4,3.7,7.9,8.1,8.1h30.6c2.7,0,4.8-2.2,4.8-4.9Z"/>
    <polygon class="st0" points="461 105.4 461 95.9 453.2 95.9 453.2 105.4 446.9 105.4 457.1 114.1 467.3 105.4 461 105.4"/>
    <path class="st30" d="M325.7,112.6c0-5.7-4.6-10.4-10.4-10.4-1,0-2,.1-3,.4.2-1.1.2-2.1.2-3.2,0-12.2-9.8-22-22-22h0c-1.4,0-2.7.1-4.1.4-5.5-9.1-17.3-12-26.4-6.4-5.7,3.4-9.1,9.5-9.2,16.2h-.3c-9.8-.2-17.9,7.5-18.1,17.3s7.5,17.9,17.3,18.1c.3,0,.6,0,.8,0h65c5.6-.2,10.1-4.8,10.1-10.4Z"/>
    <polygon class="st0" points="271 113.4 271 133.6 287.5 133.6 287.5 113.4 301 113.4 279.2 95 257.6 113.4 271 113.4"/>
    <polyline class="st20" points="334 163.1 334 135.9 417.4 135.9 417.4 162.9"/>
    <line class="st20" x1="376.9" y1="110.2" x2="376.9" y2="163.1"/>
    <rect class="st30" x="361.5" y="99.9" width="30.7" height="19.2" rx="1.2" ry="1.2"/>
    <rect class="st0" x="362.6" y="102.1" width="28.6" height="16.2" rx=".4" ry=".4"/>
    <rect class="st30" x="318.6" y="160.7" width="30.7" height="19.2" rx="1.2" ry="1.2"/>
    <rect class="st0" x="319.7" y="162.9" width="28.6" height="16.2" rx=".4" ry=".4"/>
    <rect class="st30" x="361.5" y="160.7" width="30.7" height="19.2" rx="1.2" ry="1.2"/>
    <rect class="st0" x="362.6" y="162.9" width="28.6" height="16.2" rx=".4" ry=".4"/>
    <rect class="st30" x="402" y="160.7" width="30.7" height="19.2" rx="1.2" ry="1.2"/>
    <rect class="st0" x="403.1" y="162.9" width="28.6" height="16.2" rx=".4" ry=".4"/>
    <rect class="st2" x="370.6" y="129.7" width="12.5" height="12.5" rx=".8" ry=".8" transform="translate(14.3 306.3) rotate(-45)"/>
    <rect class="st1" x="193.2" y="122.7" width="21.8" height="13" rx=".9" ry=".9"/>
    <rect class="st0" x="182.1" y="150.7" width="17.6" height="9.9" rx=".9" ry=".9"/>
    <rect class="st0" x="208.8" y="150.7" width="17.6" height="9.9" rx=".9" ry=".9"/>
    <rect class="st0" x="200.7" y="171.7" width="9.2" height="8.5" rx=".9" ry=".9"/>
    <rect class="st0" x="212.5" y="171.7" width="9.2" height="8.5" rx=".9" ry=".9"/>
    <rect class="st0" x="224.2" y="171.7" width="9.2" height="8.5" rx=".9" ry=".9"/>
    <rect class="st0" x="173.6" y="171.7" width="9.2" height="8.5" rx=".9" ry=".9"/>
    <rect class="st0" x="186.3" y="171.7" width="9.2" height="8.5" rx=".9" ry=".9"/>
    <polygon class="st0" points="216.6 150.7 217.6 150.7 217.6 143.7 204.6 143.7 204.6 135.7 203.6 135.7 203.6 143.7 190.6 143.7 190.6 150.7 191.6 150.7 191.6 144.7 216.6 144.7 216.6 150.7"/>
    <polygon class="st0" points="190.6 166.7 177.6 166.7 177.6 171.7 178.6 171.7 178.6 167.7 190.6 167.7 190.6 171.7 191.6 171.7 191.6 160.7 190.6 160.7 190.6 166.7"/>
    <polygon class="st0" points="217.6 167.7 217.6 160.7 216.6 160.7 216.6 167.7 204.6 167.7 204.6 171.7 205.6 171.7 205.6 168.7 216.6 168.7 216.6 171.7 217.6 171.7 217.6 168.7 228.6 168.7 228.6 171.7 229.6 171.7 229.6 167.7 217.6 167.7"/>
    <path class="st34" d="M506,125.8v7.2l3.7.4c.5,2.4,1.4,4.6,2.8,6.6l-2.4,2.9,5.1,5.1,2.9-2.4c2,1.3,4.3,2.3,6.6,2.8l.3,3.7h7.2l.4-3.7c2.4-.5,4.6-1.4,6.6-2.8l2.9,2.4,5.1-5.1-2.4-2.8c1.3-2,2.3-4.3,2.8-6.6l3.7-.4v-7.2l-3.7-.3c-.5-2.4-1.4-4.6-2.8-6.6l2.4-2.9-5.1-5.1-2.9,2.4c-2-1.3-4.3-2.3-6.6-2.8l-.4-3.7h-7.2l-.4,3.7c-2.4.5-4.6,1.4-6.6,2.8l-2.9-2.4-5.1,5.1,2.4,2.9c-1.3,2-2.3,4.3-2.8,6.6l-3.7.3ZM528.6,119.7c5.4,0,9.7,4.4,9.7,9.7s-4.4,9.7-9.7,9.7-9.7-4.4-9.7-9.7h0c0-5.4,4.4-9.7,9.7-9.7h0Z"/>
    <path class="st34" d="M510.6,178.2c1.9-.4,3.6-1.1,5.2-2.2l2.2,1.9,4-4-1.9-2.2c1-1.6,1.8-3.3,2.2-5.2l2.9-.3v-5.6l-2.9-.3c-.4-1.9-1.1-3.6-2.2-5.2l1.9-2.2-4-4-2.2,1.9c-1.6-1-3.3-1.8-5.2-2.2l-.3-2.9h-5.6l-.3,2.9c-1.9.4-3.6,1.1-5.2,2.2l-2.3-1.8-4,4,1.9,2.2c-1,1.6-1.8,3.3-2.2,5.2l-2.9.3v5.6l2.9.3c.4,1.9,1.1,3.6,2.2,5.2l-1.9,2.2,4,4,2.2-1.9c1.6,1,3.3,1.8,5.2,2.2l.3,2.9h5.6l.3-2.9ZM499.9,163.4c0-4.2,3.4-7.6,7.6-7.6s7.6,3.4,7.6,7.6-3.4,7.6-7.6,7.6h0c-4.2,0-7.6-3.4-7.6-7.6Z"/>
    <path class="st34" d="M498.1,147.7l1.9,1.6,3.4-3.3-1.6-1.9c.9-1.3,1.5-2.8,1.8-4.4l2.4-.2v-4.7l-2.4-.2c-.3-1.6-.9-3-1.8-4.4l1.6-1.9-3.3-3.3-1.9,1.6c-1.3-.9-2.8-1.5-4.4-1.8l-.2-2.4h-4.7l-.2,2.4c-1.6.3-3,.9-4.4,1.8l-1.9-1.6-3.3,3.3,1.6,1.9c-.9,1.3-1.5,2.8-1.8,4.4l-2.4.2v4.7l2.4.2c.3,1.6.9,3,1.8,4.4l-1.6,1.9,3.3,3.3,1.9-1.6c1.3.9,2.8,1.5,4.4,1.8l.2,2.4h4.7l.2-2.4c1.6-.3,3-1,4.4-1.9ZM484.7,137.1c0-3.5,2.9-6.4,6.4-6.4s6.4,2.9,6.4,6.4c0,3.5-2.9,6.4-6.4,6.4h0c-3.5,0-6.4-2.9-6.4-6.4Z"/>
    <rect class="st34" x="497.2" y="324" width="67.1" height="43.7"/>
    <rect class="st0" x="499.7" y="332.2" width="62.2" height="33.3"/>
    <rect class="st34" x="504.8" y="337.2" width="46" height="1.4"/>
    <rect class="st34" x="504.8" y="341.6" width="22.1" height="1.4"/>
    <rect class="st34" x="504.8" y="346" width="27.8" height="1.4"/>
    <rect class="st34" x="504.8" y="350.4" width="9.8" height="1.4"/>
    <rect class="st34" x="504.8" y="354.8" width="6.4" height="1.4"/>
    <rect class="st26" x="172.9" y="323.9" width="47.8" height="29.5" transform="translate(-1.5 .9) rotate(-.3)"/>
    <path class="st32" d="M191.1,346.1c-.2,0-.4,0-.6-.2l-8.7-6.4c-.3-.2-.4-.5-.4-.8,0-.3.1-.6.4-.8l8.7-6.5c.4-.3,1.1-.2,1.4.2s.2,1.1-.2,1.4h0l-7.6,5.6,7.6,5.6c.4.3.5.9.2,1.4-.2.3-.5.4-.8.4h0Z"/>
    <path class="st32" d="M202.5,346c-.3,0-.6-.1-.8-.4-.3-.4-.2-1.1.2-1.4,0,0,0,0,0,0l7.6-5.6-7.6-5.6c-.4-.3-.5-1-.2-1.4s1-.5,1.4-.2h0l8.7,6.4c.3.2.4.5.4.8,0,.3-.1.6-.4.8l-8.7,6.5c-.2.1-.4.2-.6.2Z"/>
    <path class="st32" d="M194.5,346c-.1,0-.2,0-.3,0-.5-.2-.8-.8-.6-1.3l4.5-12.8c.2-.5.8-.8,1.3-.6s.8.8.6,1.3l-4.5,12.8c-.1.4-.5.7-.9.7Z"/>
  </g>
  <g id="freepik--Shadow--inject-25">
    <ellipse id="freepik--path--inject-25" class="st34" cx="375" cy="416.2" rx="193.9" ry="11.3"/>
  </g>
  <g id="freepik--Ladder--inject-25">
    <polygon class="st28" points="459.4 416.2 466.7 416.2 476.7 361 469.4 361 459.4 416.2"/>
    <polygon class="st10" points="459.4 416.2 466.7 416.2 476.7 361 469.4 361 459.4 416.2"/>
    <polygon class="st10" points="459.4 416.2 464.7 416.2 474.7 361 469.4 361 459.4 416.2"/>
    <path class="st28" d="M438.7,377.4h29.4c.9,0,1.6-.7,1.6-1.6,0,0,0,0,0,0h0c0-.9-.7-1.6-1.6-1.6,0,0,0,0,0,0h-29.4c-.9,0-1.6.7-1.6,1.6,0,0,0,0,0,0h0c0,.9.7,1.6,1.6,1.6,0,0,0,0,0,0Z"/>
    <path class="st28" d="M435.4,395.9h29.4c.9,0,1.6-.7,1.6-1.6h0c0-.9-.7-1.6-1.6-1.6h-29.4c-.9,0-1.6.7-1.6,1.6h0c0,.9.7,1.6,1.6,1.6Z"/>
    <polygon class="st28" points="429.4 416.2 436.7 416.2 446.7 361 439.4 361 429.4 416.2"/>
    <polygon class="st10" points="429.4 416.2 436.7 416.2 446.7 361 439.4 361 429.4 416.2"/>
    <polygon class="st10" points="429.4 416.2 434.7 416.2 444.7 361 439.4 361 429.4 416.2"/>
    <polygon class="st28" points="497.7 416.2 490.4 416.2 480.4 361 487.7 361 497.7 416.2"/>
    <polygon class="st13" points="497.7 416.2 490.4 416.2 480.4 361 487.7 361 497.7 416.2"/>
    <polygon class="st10" points="495.7 416.2 490.4 416.2 480.4 361 485.7 361 495.7 416.2"/>
    <path class="st28" d="M484.8,377.4h-29.4c-.9,0-1.6-.7-1.6-1.6h0c0-.9.7-1.6,1.6-1.6h29.4c.9,0,1.6.7,1.6,1.6h0c0,.9-.7,1.6-1.6,1.6Z"/>
    <path class="st28" d="M488.1,395.9h-29.4c-.9,0-1.6-.7-1.6-1.6s0,0,0,0h0c0-.9.7-1.6,1.6-1.6h29.4c.9,0,1.6.7,1.6,1.6h0c0,.9-.7,1.6-1.6,1.6,0,0,0,0,0,0Z"/>
    <path class="st10" d="M484.8,377.4h-29.4c-.9,0-1.6-.7-1.6-1.6h0c0-.9.7-1.6,1.6-1.6h29.4c.9,0,1.6.7,1.6,1.6h0c0,.9-.7,1.6-1.6,1.6Z"/>
    <path class="st10" d="M488.1,395.9h-29.4c-.9,0-1.6-.7-1.6-1.6s0,0,0,0h0c0-.9.7-1.6,1.6-1.6h29.4c.9,0,1.6.7,1.6,1.6h0c0,.9-.7,1.6-1.6,1.6,0,0,0,0,0,0Z"/>
    <polygon class="st28" points="467.7 416.2 460.4 416.2 450.4 361 457.7 361 467.7 416.2"/>
    <polygon class="st13" points="467.7 416.2 460.4 416.2 450.4 361 457.7 361 467.7 416.2"/>
    <polygon class="st10" points="465.7 416.2 460.4 416.2 450.4 361 455.7 361 465.7 416.2"/>
    <rect class="st28" x="436.3" y="358.4" width="55.5" height="5.3" rx="1.2" ry="1.2"/>
    <rect class="st10" x="436.3" y="358.4" width="22.6" height="5.3" rx="1.2" ry="1.2"/>
  </g>
  <g id="freepik--Screen--inject-25">
    <rect class="st31" x="252.2" y="371.9" width="67.2" height="43.7"/>
    <rect class="st11" x="252.2" y="371.9" width="67.2" height="43.7"/>
    <rect class="st31" x="254.7" y="380" width="62.2" height="33.3"/>
    <rect class="st29" x="259.7" y="385" width="46" height="1.4"/>
    <rect class="st29" x="259.7" y="389.4" width="22.1" height="1.4"/>
    <rect class="st29" x="259.7" y="393.8" width="27.8" height="1.4"/>
    <rect class="st29" x="259.7" y="398.2" width="9.8" height="1.4"/>
    <rect class="st29" x="259.7" y="402.6" width="6.4" height="1.4"/>
  </g>
  <g id="freepik--Device--inject-25">
    <polygon class="st31" points="402.3 416.2 347.7 416.2 356.9 343.6 393.1 343.6 402.3 416.2"/>
    <polygon class="st11" points="402.3 416.2 347.7 416.2 354 366.5 356.9 343.6 393.1 343.6 397.4 377.4 402.3 416.2"/>
    <polygon class="st4" points="397.4 377.4 354 366.5 356.9 343.6 393.1 343.6 397.4 377.4"/>
    <path class="st31" d="M503.9,164.4H246.1c-3.6,0-6.6,3-6.6,6.6,0,0,0,0,0,0v174.5c0,3.6,3,6.6,6.6,6.6h257.7c3.6,0,6.6-3,6.6-6.6v-174.5c0-3.6-2.9-6.6-6.6-6.6,0,0,0,0,0,0Z"/>
    <path class="st7" d="M503.9,164.4H246.1c-3.6,0-6.6,3-6.6,6.6,0,0,0,0,0,0v174.5c0,3.6,3,6.6,6.6,6.6h257.7c3.6,0,6.6-3,6.6-6.6v-174.5c0-3.6-2.9-6.6-6.6-6.6,0,0,0,0,0,0Z"/>
    <rect class="st31" x="248.2" y="170.8" width="253.6" height="168.2"/>
    <rect class="st31" x="328.1" y="410.8" width="93.9" height="5.4" rx="1" ry="1"/>
    <rect class="st7" x="328.1" y="410.8" width="93.9" height="5.4" rx="1" ry="1"/>
    <rect class="st6" x="248.2" y="171" width="253.6" height="25.1"/>
    <rect class="st13" x="248.2" y="196.4" width="108.7" height="142.7"/>
    <polyline class="st16" points="462.8 232.8 462.8 235.3 460.3 235.3"/>
    <line class="st21" x1="455" y1="235.3" x2="373.1" y2="235.3"/>
    <polyline class="st16" points="370.4 235.3 367.9 235.3 367.9 232.8"/>
    <line class="st22" x1="367.9" y1="228.2" x2="367.9" y2="185.2"/>
    <polyline class="st16" points="367.9 183 367.9 180.5 370.4 180.5"/>
    <line class="st21" x1="375.7" y1="180.5" x2="457.6" y2="180.5"/>
    <polyline class="st16" points="460.3 180.5 462.8 180.5 462.8 183"/>
    <line class="st22" x1="462.8" y1="187.5" x2="462.8" y2="230.5"/>
    <rect class="st19" x="461.2" y="178.9" width="3.2" height="3.2"/>
    <rect class="st19" x="461.2" y="233.7" width="3.2" height="3.2"/>
    <rect class="st19" x="366.4" y="178.9" width="3.2" height="3.2"/>
    <rect class="st19" x="366.4" y="233.7" width="3.2" height="3.2"/>
    <rect class="st19" x="413.8" y="178.9" width="3.2" height="3.2"/>
    <rect class="st19" x="413.8" y="233.7" width="3.2" height="3.2"/>
    <rect class="st19" x="461.2" y="206.3" width="3.2" height="3.2"/>
    <rect class="st19" x="366.4" y="206.3" width="3.2" height="3.2"/>
    <rect class="st7" x="429" y="198.9" width="27" height="10" rx="1.9" ry="1.9"/>
    <rect class="st7" x="389" y="198.9" width="27" height="10" rx="1.9" ry="1.9"/>
    <rect class="st7" x="337.6" y="320.5" width="27" height="10" rx="1.9" ry="1.9"/>
    <line class="st25" x1="485" y1="179.9" x2="493.5" y2="179.9"/>
    <line class="st25" x1="485" y1="183.9" x2="493.5" y2="183.9"/>
    <line class="st25" x1="485" y1="187.9" x2="493.5" y2="187.9"/>
    <rect class="st12" x="265.4" y="218.5" width="85.1" height="85"/>
    <line class="st18" x1="301" y1="225.4" x2="301" y2="298.8"/>
    <path class="st18" d="M337.7,298.8h0c-20.3,0-36.7-16.4-36.7-36.7h0c0-20.3,16.4-36.7,36.7-36.7h0"/>
    <rect class="st17" x="336.1" y="223.9" width="3.2" height="3.2"/>
    <rect class="st17" x="336.1" y="297.2" width="3.2" height="3.2"/>
    <rect class="st17" x="299.4" y="260.5" width="3.2" height="3.2"/>
    <path class="st17" d="M301.8,225.4c0,.5-.4.8-.8.8s-.8-.4-.8-.8.4-.8.8-.8c.5,0,.8.4.8.8Z"/>
    <path class="st17" d="M301.8,298.8c0,.5-.4.8-.8.8-.5,0-.8-.4-.8-.8,0-.4.4-.8.8-.8.5,0,.8.4.8.8,0,0,0,0,0,0Z"/>
    <path class="st7" d="M441.9,321.7h-25.8c-4.1,0-7.4-3.3-7.4-7.4h0c0-4.1,3.3-7.4,7.4-7.4h25.8c4.1,0,7.4,3.3,7.4,7.4h0c0,4.1-3.3,7.4-7.4,7.4h0Z"/>
    <path class="st7" d="M464.5,258.2h-79.5c-.9,0-1.6-.7-1.6-1.6h0c0-.9.7-1.6,1.6-1.6h79.5c.9,0,1.6.7,1.6,1.6,0,0,0,0,0,0h0c0,.9-.7,1.6-1.6,1.6Z"/>
    <path class="st7" d="M464.5,270.1h-79.5c-.9,0-1.6-.7-1.6-1.6,0,0,0,0,0,0h0c0-.9.7-1.6,1.6-1.6h79.5c.9,0,1.6.7,1.6,1.6h0c0,.9-.7,1.6-1.6,1.6h0Z"/>
    <path class="st7" d="M464.5,282h-49.5c-.9,0-1.6-.7-1.6-1.6h0c0-.9.7-1.6,1.6-1.6h49.5c.9,0,1.6.7,1.6,1.6h0c0,.9-.7,1.6-1.6,1.6Z"/>
    <rect class="st5" x="256.2" y="177.9" width="5.6" height="5.6"/>
    <rect class="st5" x="267.1" y="177.9" width="5.6" height="5.6" rx="1.4" ry="1.4"/>
    <rect class="st5" x="278.1" y="177.9" width="5.6" height="5.6" rx="2.6" ry="2.6"/>
    <path class="st8" d="M273.4,316.5v-2.2h-1.1c-.2-.8-.4-1.5-.8-2.1l.7-.9-1.6-1.5-.9.7c-.6-.4-1.3-.7-2-.8v-1.1h-2.3v1.1c-.8.2-1.5.4-2.1.8l-.9-.7-1.6,1.5.7.9c-.4.6-.7,1.3-.8,2h-1.1v2.3h1.1c.2.8.4,1.5.8,2.1l-.7.9,1.6,1.5.9-.7c.6.4,1.3.7,2,.8v1.1h2.3v-1.1c.8-.2,1.5-.4,2.1-.8l.9.7,1.6-1.5-.7-.9c.4-.6.7-1.3.8-2h1.1ZM266.6,318.4c-1.7,0-3-1.3-3-3s1.3-3,3-3,3,1.3,3,3h0c0,1.7-1.3,3-3,3Z"/>
    <path class="st11" d="M282.3,322.7v-1.7h-.9c-.1-.7-.3-1.2-.7-1.7l.6-.7-1.2-1.2-.7.6c-.5-.3-1-.5-1.6-.7v-.9h-1.8v.9c-.6.1-1.2.3-1.7.7l-.7-.6-1.2,1.2.6.7c-.3.5-.5,1-.7,1.6h-.9v1.8h.9c.1.7.3,1.2.7,1.7l-.6.7,1.2,1.2.7-.6c.5.3,1,.5,1.6.7v.9h1.8v-.9c.6-.1,1.2-.3,1.7-.7l.7.6,1.2-1.2-.6-.7c.3-.5.5-1,.7-1.6h.9ZM276.9,324.1c-1.3,0-2.3-1-2.3-2.3,0-1.3,1-2.3,2.3-2.3,1.3,0,2.3,1,2.3,2.3,0,0,0,0,0,0,0,1.3-1,2.3-2.3,2.3,0,0,0,0,0,0h0Z"/>
    <path class="st13" d="M273.4,327.5v-1.4h-.7c0-.5-.3-1-.6-1.4l.5-.6-1-1-.6.5c-.4-.3-.9-.5-1.3-.5v-.7h-1.5v.7c-.5,0-1,.3-1.4.5l-.6-.5-1,1,.5.6c-.3.4-.5.9-.6,1.3h-.8v1.5h.8c0,.5.3,1,.6,1.4l-.5.6,1,1,.6-.5c.4.3.9.5,1.3.6v.7h1.5v-.7c.5,0,1-.3,1.4-.6l.6.5,1-1-.5-.6c.3-.4.5-.9.6-1.3h.8ZM268.9,328.8c-1.1,0-1.9-.9-1.9-2,0-1.1.9-1.9,2-1.9,1.1,0,1.9.9,1.9,1.9,0,1.1-.9,2-1.9,2,0,0,0,0,0,0Z"/>
    <polygon class="st31" points="462.2 179.9 466.4 191.2 473.5 184.1 462.2 179.9"/>
    <rect class="st31" x="468.9" y="185.2" width="2.2" height="5" transform="translate(4.9 387.3) rotate(-45)"/>
    <polygon class="st13" points="473.5 184.1 462.2 179.9 466.4 191.2 469.2 188.5 470.9 190.2 472.5 188.6 470.8 186.9 473.5 184.1"/>
    <path class="st28" d="M288.5,220.4l10.7,4-5.6-5.6c-.4.2-1,.2-1.3-.2-.4-.4-.4-1.1,0-1.6s1.1-.4,1.6,0c.3.3.4.9.2,1.3l5.6,5.6-4-10.7-3.5.8v-1.3c-.1,0-.8-.7-.8-.7l-3.9,3.9.7.7h1.3c0,.1-.8,3.7-.8,3.7Z"/>
    <path class="st10" d="M288.5,220.4l10.7,4-5.6-5.6c-.4.2-1,.2-1.3-.2-.4-.4-.4-1.1,0-1.6s1.1-.4,1.6,0c.3.3.4.9.2,1.3l5.6,5.6-4-10.7-3.5.8v-1.3c-.1,0-.8-.7-.8-.7l-3.9,3.9.7.7h1.3c0,.1-.8,3.7-.8,3.7Z"/>
    <g class="st14">
      <polygon class="st29" points="285.3 170.8 247.7 311.3 247.7 170.8 285.3 170.8"/>
      <polygon class="st29" points="327.7 170.8 282.7 339.1 251.7 339.1 296.7 170.8 327.7 170.8"/>
      <polygon class="st29" points="372.8 170.8 327.8 339.1 313.8 339.1 358.8 170.8 372.8 170.8"/>
      <polygon class="st29" points="414.3 170.8 369.3 339.1 364.3 339.1 409.3 170.8 414.3 170.8"/>
    </g>
  </g>
  <g id="freepik--character-2--inject-25">
    <path class="st28" d="M566.9,208c3.5,4.1,21.6,38.9,18.1,47s-32.4-1.2-32.4-1.2l1.7-11.5s11.2.4,12.3-.7-15.2-17.3-15.2-17.3l15.5-16.3Z"/>
    <g class="st6">
      <path class="st29" d="M585,255c-.4.9-1.2,1.7-2.1,2.1h0l-.6.3h0c-.2,0-.4.1-.5.2-.8.3-1.7.4-2.5.5h-.7c-.4,0-.7.1-1.1.1h-1c-9.7,0-23.8-4.6-23.8-4.6l1.7-11.5s11.2.4,12.3-.7c.3-.3-.5-1.4-1.8-3h0c-3.2-3.9-9.5-10.4-12.2-13.1l-1.2-1.2,15.5-16.3c3.6,4.1,21.6,38.8,18.1,47Z"/>
    </g>
    <path class="st6" d="M582.9,257.1h0l-.6.3h0c-.2,0-.4.1-.5.2-.8.3-1.7.4-2.5.5h-.7c-.4,0-.7.1-1.1.1h-1c-9.7,0-23.8-4.6-23.8-4.6l1.7-11.5s12.7,1.1,13.7,0h0c.2-.4-1.2-1.8-3.3-3.6h0c-3.2-3.9-9.5-10.4-12.2-13.1l7.3-7.8,5.6-.6s12.3,20,17.4,40.1Z"/>
    <path class="st28" d="M530.4,206.8c-2,1.4-3,3.5-2.2,4.6l52.8,72.9c.8,1.1,3.1.8,5.1-.7s3-3.5,2.2-4.6l-52.8-72.9c-.8-1.1-3-.8-5.1.7Z"/>
    <path class="st7" d="M535.5,206.1l52.8,72.9c.8,1.1-.2,3.1-2.2,4.6s-4.3,1.7-5,.7l-52.8-72.9c-.4-.8-.3-1.7.2-2.4.3-.5.6-.9,1-1.3.3-.3.6-.6,1-.9,2-1.4,4.3-1.7,5.1-.7Z"/>
    <path class="st3" d="M588.3,279c.8,1.1-.2,3.1-2.2,4.6s-4.3,1.7-5,.7c-.4-.6.6-1.5,1.3-2.8l-53.9-72.4c.3-.5.6-.9,1-1.3l52.9,72.9c.3-.3.6-.6,1-.9,2-1.5,4.3-1.8,5-.7Z"/>
    <path class="st31" d="M523.9,204.8c-1.7,1.8-2.3,4-1.3,4.9l65.7,61.5c1,.9,3.1.2,4.8-1.6s2.3-4,1.3-4.9l-65.7-61.5c-1-.9-3.1-.2-4.8,1.6Z"/>
    <path class="st7" d="M528.7,203.2l65.7,61.5c1,.9.4,3.1-1.3,4.9s-3.9,2.5-4.8,1.6l-65.7-61.5c-.5-.7-.7-1.6-.3-2.4.2-.5.4-1,.7-1.5.2-.4.5-.7.8-1,1.7-1.8,3.9-2.6,4.8-1.6Z"/>
    <path class="st3" d="M594.4,264.7c1,.9.4,3.1-1.3,4.9s-3.9,2.5-4.8,1.6c-.5-.5.4-1.6.7-3l-66.7-60.9c.2-.5.4-1,.7-1.5l65.7,61.5c.2-.4.5-.7.8-1,1.7-1.9,3.9-2.6,4.8-1.7Z"/>
    <path class="st33" d="M539.7,401.1h-5c-5.1-23.8-8.7-53.4-10.9-75.7-.4-3.5-.7-6.8-1-9.9-.1-1.5-.3-2.9-.4-4.2-.6-6.7-1-12-1.3-15.3-.2-2.4-.3-3.7-.3-3.7h18.2l-.2,4.6-.6,15.2v1.7c0,0-.4,10-.4,10l-.6,17.1c6.2,24.1,2.5,60.2,2.5,60.2Z"/>
    <path class="st33" d="M580.3,399.8l-4.9.9c-9.9-24.7-19.1-56.3-25.2-78.3-.9-3.4-1.8-6.6-2.6-9.5,0-.1,0-.3-.1-.4-1.5-5.8-2.7-10.4-3.4-13.3l-.9-3.5,17.8-3.1,1,7.5,1.5,11,.3,2.2,1,7.5,2.7,20.1c10.3,22.7,12.8,58.9,12.8,58.9Z"/>
    <path class="st6" d="M563.5,311.1l-15.9,1.8c0-.1,0-.3-.1-.4-1.5-5.8-2.7-10.4-3.4-13.3l18,.9,1.5,11Z"/>
    <path class="st6" d="M538.8,296.8l-.6,15.2v1.7c0,0-15.5,1.7-15.5,1.7-.1-1.5-.3-2.9-.4-4.2-.6-6.7-1-12-1.3-15.3l17.7.9Z"/>
    <path class="st28" d="M524.9,417.7c.9-.8,2-1.3,3.1-1.7h0s3.4-3.4,5.1-13.6l4.5-1.2c1.6-.4,3.2.3,4.1,1.6.1.2.2.4.3.6.2,1.1.4,2.2.5,3.3.2,3.7.3,7.5,0,11.2h-.8l-.3-7c-.1-2.4-2,.4-2.5,3s-1.6,5.3-6.9,5.4c-6.1,0-8.6-.1-7.1-1.6Z"/>
    <path class="st28" d="M541.7,403c.3-2.4.4-6.5.4-6.5l-9.9,1.1s1.2,4.7.2,8.2c5-1.4,9.3-2.8,9.3-2.8Z"/>
    <path class="st28" d="M565.2,417.7c.9-.8,2-1.3,3.1-1.7h0s3.4-3.4,5-13.6l4.5-1.2c1.6-.4,3.2.3,4.1,1.6.1.2.2.4.3.6.2,1.1.4,2.2.5,3.3.2,3.7.3,7.5,0,11.2h-.8l-.3-7c-.1-2.4-2,.4-2.5,3s-1.6,5.3-6.9,5.4c-6.1,0-8.7-.2-7.1-1.6Z"/>
    <path class="st28" d="M582.1,403c.3-2.4.4-6.5.4-6.5l-9.9,1.1s1.2,4.7.2,8.2c5-1.4,9.3-2.8,9.3-2.8Z"/>
    <path class="st31" d="M565.3,306.2l-18.9,2.4h-.7c0,0-3.9-14.1-3.9-14.1l-1,15.2-20.2-1.1c-9-52.9,6.4-65.4,6.4-65.4l27.4,5.5c12.4,21.1,9.5,45.7,9.5,45.7l1.4,11.7Z"/>
    <path class="st24" d="M539.3,177.4c0,2.1-.9,3.8-2,3.8s-2.1-1.7-2.1-3.8.9-3.8,2.1-3.8,2,1.7,2,3.8Z"/>
    <path class="st33" d="M552.8,190c0,0-.2.1-.2.2-1.1.9-2.4,1.5-3.8,1.9-4,.9-6.8.4-8.6-1.4h0c-2.5-2.8-3.2-7.6-2.8-13.5,0-2.3.5-4.7,1.3-6.9h0c0-.1,0-.3.1-.4,1-2.5,3.2-4.4,5.9-4.9,1.1-.3,2.3-.4,3.5-.4,11.5,0,13.5,18.9,4.7,25.4Z"/>
    <path class="st6" d="M552.6,190.2c-1.2.8-2.5,1.4-3.8,1.7-4,.9-6.8.2-8.6-1.6,2.4.6,5,.4,7.3-.6,1.7-.6,3.6-.4,5.2.5Z"/>
    <path class="st33" d="M553.8,200.6c.7,3.3-3.5,4.6-3.5,4.6-6.9-3-8.2-6.6-8.2-6.6,5.8-3,4.1-11.5,4.1-11.5l1.2.6,8.2,1.6s-2.3,4.4-2.6,5.4h0c-1.6,5.2.8,6,.8,6Z"/>
    <path class="st28" d="M538.6,170.2s-.6,8,7,11.5c0,0,3.3,8.4,8.1,8.5,6.6.2,12.4-9.2,10.1-18.7-3-12.3-21.7-13.3-25.2-1.3Z"/>
    <path class="st33" d="M541.7,179.4c0-1.2,1-3.4,3-3.1s3.1,5.3-1.8,6.4c-.8.2-1.2-.7-1.2-3.3Z"/>
    <path class="st28" d="M552.6,161.6s-7.7-1.9-11.9,1.1c-5,3.6-6.8,7.3-1,13.1,0,0,12.9-4.2,17.1-3.3,2.5.5,5,1.2,7.3,2.1.9-8.5-7.3-14.8-11.6-13.1Z"/>
    <path class="st28" d="M541.7,177.4s2,9.3-1.1,17.2c0,0,18.2,6.3,24.5,2.9s.5-14.9.3-21.6-3.1-16.4-12.8-14.2-10.9,15.8-10.9,15.8Z"/>
    <line class="st24" x1="535.2" y1="176.9" x2="542.9" y2="176.9"/>
    <path class="st6" d="M546.4,308.6h-.7c0,0-3.9-14.1-3.9-14.1,0,0,8.3-14.2,5.7-21.6.4.5,9.3,13.8-1.1,35.7Z"/>
    <path class="st28" d="M530.8,199.8s9.1-3.3,22.9.7,14.3,9.9,14.3,9.9c0,0-8.7,19.8-10.1,42.2l-35.9-1.3s-4.3-31.7,8.8-51.5Z"/>
    <path class="st10" d="M568.1,210.4s-8.7,19.8-10.1,42.2l-35.9-1.3c-.4-3.7-.6-7.3-.7-11,0-5.4.3-10.8,1-16.1,1.2-8.3,3.7-17.2,8.5-24.4,0,0,9.1-3.3,22.9.7s14.3,9.9,14.3,9.9Z"/>
    <path class="st6" d="M530.3,225.6s-1.5,9.1-9,14.7c0-5.4.3-10.8,1-16.1l8,1.3Z"/>
    <path class="st33" d="M490.6,199.2l-4.5-6.7s-.7-2.9-1.6-3.6-9.6-4.4-10.6-4.4-1,6.8,0,7.9,6.5,3.6,8,3.9.7,0,.7,0l4,8,4-5.1Z"/>
    <path class="st28" d="M530.8,199.8c-9.7,4.1-19.1,8.9-28,14.5l-14.6-20s-3.9,1.2-5.4,8.1c0,0,7.5,28.6,17.3,31.4s30.3-8.3,30.3-8.3c0,0,5.9-14.9.5-25.7Z"/>
    <path class="st10" d="M530.8,199.8c-9.7,4.1-19.1,8.9-28,14.5l-14.6-20s-3.9,1.2-5.4,8.1c0,0,7.5,28.6,17.3,31.4s30.3-8.3,30.3-8.3c0,0,5.9-14.9.5-25.7Z"/>
    <path class="st28" d="M540.1,198.6s3.2,22.8,13.3,23.8,14.6-16,12.9-18-14.7-5.9-26.2-5.8Z"/>
    <path class="st9" d="M540.1,198.6s3.2,22.8,13.3,23.8,14.6-16,12.9-18-14.7-5.9-26.2-5.8Z"/>
  </g>
  <g id="freepik--character-1--inject-25">
    <g id="freepik--group--inject-25">
      <polygon class="st15" points="180.4 408.7 187.8 408.7 188.4 391.5 181 391.5 180.4 408.7"/>
      <path class="st28" d="M188.8,407.8h-9c-.3,0-.6.2-.6.5l-1.5,6.6c-.1.6.2,1.2.8,1.3,0,0,0,0,0,0h.2c2.9,0,5-.2,8.7-.2s9,.2,12.2.2,3.5-3.1,2.2-3.4c-5.7-1.2-10-3-11.8-4.6-.3-.3-.8-.5-1.2-.4Z"/>
      <path class="st31" d="M189.3,408.8c0,0-.1,0-.1-.1,0,0,0-.1,0-.2.3-.2,2.7-1.6,3.5-1.2.2,0,.3.3.3.5,0,.4,0,.7-.4.9-.4.3-.9.4-1.4.4-.7,0-1.3-.1-1.9-.3ZM189.8,408.6c.9.3,1.8.2,2.6-.1.2-.2.3-.4.2-.6,0-.1,0-.2-.1-.2,0,0-.2,0-.2,0-.9.2-1.8.5-2.5,1Z"/>
      <path class="st31" d="M189.2,408.9c0,0,0,0,0-.2,0-.1.2-2.2,1-2.9.2-.2.5-.3.7-.2.3,0,.5.2.6.5.2.8-1.3,2.4-2.1,2.8h-.1ZM190.4,406c-.5.7-.8,1.5-.9,2.3.8-.6,1.7-1.8,1.6-2.3,0,0,0-.2-.3-.2h0c-.1,0-.3,0-.4.1Z"/>
      <polygon class="st6" points="181 391.5 188.4 391.5 188.1 400.4 180.7 400.4 181 391.5"/>
      <polygon class="st15" points="218.5 409.2 226.1 410 227.6 393.5 219.9 392.7 218.5 409.2"/>
      <path class="st28" d="M226.9,407.6h-8.9c-.3,0-.6.2-.6.5l-1.5,6.6c-.1.6.2,1.2.8,1.3,0,0,0,0,0,0h.2c2.9,0,5-.2,8.7-.2s9,.2,12.2.2,3.5-3.1,2.2-3.4c-5.7-1.2-10-3-11.8-4.6-.3-.3-.8-.5-1.2-.5Z"/>
      <path class="st31" d="M227.4,408.6c0,0-.1,0-.1-.1,0,0,0-.1,0-.2.3-.2,2.7-1.6,3.5-1.2.2,0,.3.3.3.5,0,.4,0,.7-.4,1-.4.3-.9.4-1.4.4-.7,0-1.3-.1-1.9-.3ZM228,408.4c.9.3,1.8.2,2.6-.1.2-.2.3-.4.2-.6,0-.1,0-.2-.1-.2,0,0-.1,0-.2,0-.9.2-1.7.5-2.5,1h0Z"/>
      <path class="st31" d="M227.4,408.6c0,0,0,0,0-.2,0-.1.2-2.2,1.1-2.9.2-.2.5-.3.7-.2.3,0,.5.2.6.5.2.8-1.3,2.4-2.1,2.8h-.2ZM228.6,405.8c-.5.7-.8,1.5-.9,2.3.8-.6,1.7-1.8,1.6-2.3,0,0,0-.2-.3-.2h0c-.2,0-.3,0-.4.2Z"/>
      <polygon class="st6" points="219.9 392.7 227.6 393.5 226.8 402 219.2 401.2 219.9 392.7"/>
      <path class="st28" d="M184,241.1h39.3c3.7,20.4,15.4,92.6,7,157l-13.3-1.6s1.2-85.4-10.5-117c-1.3,16.9-3,34.9-4.3,44.5-3.4,23.5-10.7,75-10.7,75h-13.5s2.8-49.3,4-72.4c1.4-25.2,2-80.2,2-85.4Z"/>
      <polygon class="st31" points="231.9 401.1 215.4 398.7 215.9 394.1 233.1 396.4 231.9 401.1"/>
      <polygon class="st31" points="193.1 398.9 177.1 398.9 177.1 394.2 193.7 393.9 193.1 398.9"/>
      <path class="st6" d="M206.6,279.4c1.9,5.5,3.4,11.2,4.4,17,1.1-15-3.3-31-3.3-31l-1.1,14Z"/>
      <path class="st31" d="M182.9,247.9l-.9,4.8s27.5,3.6,44.6,3.5l-.6-3.3-43.1-5Z"/>
      <path class="st15" d="M238.7,206.8s9.5,30,16,32,23-22.8,23-22.8c0,0,14.8-.1,15.5-1.1s-3.9-11.5-4.9-11.5-14,4.9-14.5,5.7-15.3,15-16,14.6-6.3-18.2-6.3-18.2l-12.8,1.4Z"/>
      <path class="st15" d="M279.7,214.4c.1,0,.2,0,.4,0h-.2c0,0-.1,0-.2,0Z"/>
      <path class="st31" d="M233.3,203.3l1.2,2.1,5.4,10,1.1,2.1,15.2-5.3s-6.3-23.6-8.5-26l-14.4,17.1Z"/>
      <path class="st13" d="M233.3,203.3l1.2,2.1,5.4,10,1.1,2.1,15.2-5.3s-6.3-23.6-8.5-26l-14.4,17.1Z"/>
      <path class="st6" d="M234.5,205.4l5.4,10c3.3-6.6,2.4-15.6,2.4-15.6l-7.8,5.6Z"/>
      <path class="st31" d="M247.7,186.2c-5.8-6.7-14.1-10.7-22.9-11.1-14.9-.7-19.6.8-25,5.6-8,7.1-17.8,68.2-17.8,68.2,14.5,4,29.6,5.7,44.6,4.9,0,0,.2-17,5.6-28.4,6-12.7,11.2-25.8,15.6-39.2Z"/>
      <path class="st13" d="M182,249c14.5,4,29.6,5.7,44.6,4.9,0,0,0-2.1.3-5.3.1-1.5.3-3.3.6-5.2s.6-4.1,1-6.3c.2-1.2.5-2.4.8-3.5.7-2.8,1.6-5.5,2.8-8.1.7-1.4,1.3-2.8,1.9-4.1,1.1-2.4,2.1-4.7,3-6.9,2-4.6,3.7-8.9,5.1-12.6,1-2.7,1.9-5.1,2.6-7.1.8-2.3,1.4-4.2,1.9-5.6.6-1.9.9-2.9.9-2.9-.5-.6-1-1.2-1.6-1.8-5.6-5.5-13-8.8-20.8-9.3h-.5c-11.3-.5-16.8.2-21.1,2.7-1.4.8-2.7,1.8-3.9,2.9-1.1,1.2-2,2.6-2.6,4.2-1.8,4.3-3.4,8.7-4.5,13.3l-.7,2.4c-1,3.7-1.9,7.7-2.8,11.7-.3,1.1-.5,2.3-.8,3.4-.4,1.7-.7,3.5-1.1,5.2-.9,4.3-1.7,8.5-2.4,12.2-1,5.4-1.8,9.9-2.3,12.7-.3,2-.5,3.1-.5,3.1ZM225.7,175.7c1,0,2,.1,3,.2,4,.5,10.2,3.8,10,5.3s-2.5,5.4-8.5,4.5c-2.1-.4-4.1-1.2-5.8-2.4-3.3-2.2-5.7-5.1-5.9-6.1-.3-1.2,3.6-1.5,7.2-1.4h0Z"/>
      <path class="st31" d="M212.9,196.1s-7.9,19.1-9.5,34.9l21.3,2.7s9.6-25.8,11.5-33.8c0,0-17-1.7-23.3-3.8Z"/>
      <polygon class="st13" points="232.1 200.6 235 200.9 232.9 202.6 232.1 200.6"/>
      <path class="st15" d="M220.5,177.2c1.6,4.6,7.6,6.7,10.7,7,2.4.4,4.7-.9,5.7-3.1,0,0-3.6-1.8-3.2-3.8.3-1.2.8-2.4,1.5-3.4.4-.6.8-1.2,1.2-1.7l-5.8-12.3c-1.3,5.3-5.2,15.6-10.2,17.3Z"/>
      <path class="st6" d="M230.4,165.6c-2.7,6,1.1,10.1,3.3,11.7.3-1.2.8-2.4,1.5-3.4l-4.8-8.3Z"/>
      <path class="st15" d="M249.7,149.6s1.8,10.2-3.5,14.2-5.8-14.9-5.8-14.9l9.3.7Z"/>
      <path class="st5" d="M249.7,149.6s1.8,10.2-3.5,14.2-5.8-14.9-5.8-14.9l9.3.7Z"/>
      <path class="st15" d="M230.7,172.3c2.4,3.4,6.8,4.7,10.7,3.3,2.5-.9,4.5-2.7,5.8-5,.2-.3.3-.6.5-1,2.5-6.3,3-21.7-3.7-21.1-5.5.5-10.9-1.2-13.7,3.5-.8,1.4-1.3,2.9-1.4,4.5-.6,7.4-1.3,11.6,1.8,15.9Z"/>
      <path class="st28" d="M239.6,160.1c-.1.6.2,1.1.6,1.2s.8-.4.9-1-.2-1.1-.6-1.2-.8.4-.9,1Z"/>
      <path class="st28" d="M246.3,161.1c-.1.6.2,1.1.6,1.2s.8-.4.8-1-.2-1.1-.6-1.2-.8.4-.8,1Z"/>
      <path class="st27" d="M244.1,161.1c.5,1.9,1.2,3.7,2.1,5.5-.9.5-2,.5-2.9.1l.8-5.6Z"/>
      <path class="st28" d="M237.8,157.7c.1,0,.3,0,.3,0,.6-.6,1.5-1,2.4-.8.2,0,.4,0,.4-.3,0-.2,0-.4-.3-.4,0,0,0,0,0,0h0c-1.1-.2-2.2.2-3,1-.1.1-.1.4,0,.5h0s0,0,.1.1Z"/>
      <path class="st28" d="M249.5,159.2c0,0,.1,0,.2,0,.2,0,.3-.2.2-.4,0,0,0,0,0,0h0c-.3-1.1-1.1-1.9-2.2-2.3-.2,0-.4,0-.4.2,0,0,0,0,0,0h0c0,.2,0,.4.2.4h0c.8.3,1.5,1,1.7,1.9,0,.1.1.2.2.2Z"/>
      <path class="st24" d="M238.7,166.9s1.2,2.6,3.7,2.5"/>
      <path class="st15" d="M235.5,148.2v3.3c-1.1.4-1.7,1.7-1.4,2.9.8,2.8-1.2,6.9-3.4,8.3,0,0,0-1.2-1-1s-1.3,6.3.3,9.4c0,0-3.5-3.2-4.6-9.8-1-6.1-.8-9.9,0-12.8l10-.3Z"/>
      <path class="st5" d="M235.5,148.2v3.3c-1.1.4-1.7,1.7-1.4,2.9.8,2.8-1.2,6.9-3.4,8.3,0,0,0-1.2-1-1s-1.3,6.3.3,9.4c0,0-3.5-3.2-4.6-9.8-1-6.1-.8-9.9,0-12.8l10-.3Z"/>
      <path class="st28" d="M224.9,152.1c3.6.3,7.2.1,10.7-.6,10.1-2,14.4,1.7,14.4,1.7,1.4-1.3,2.2-3.1,2.1-5-.3-2.9-4.3-3.4-4.3-3.4,0,0-1.2-3.3-3.9-4.3s-5.3,1.5-5.3,1.5c0,0-3.3-3.2-7.2-2.3-2.7.6-4.6,2.9-4.7,5.7,0,0-4.6.5-4.4,2.8s2.7,3.9,2.7,3.9Z"/>
      <ellipse class="st24" cx="240.4" cy="160.6" rx="3.3" ry="3.8"/>
      <path class="st24" d="M251.9,161.2c-.3,1.8-1.9,3.1-3.7,2.8-1.8-.3-3.1-1.9-2.8-3.7.2-1.6,1.6-2.8,3.3-2.8,1.9.1,3.4,1.8,3.3,3.8Z"/>
      <path class="st24" d="M243.7,161.1s1.1-.7,1.7.1"/>
      <path class="st24" d="M237.1,160.6l-5.7-.8c-.8,0-1.5.1-2.1.6l-.2.2"/>
      <path class="st15" d="M224.9,162c.6,1.8,1.8,3.2,3.5,4.1,2.2,1.1,3.8-.8,3.5-3.1-.2-2.1-1.6-5.2-4-5.3-1.7,0-3.2,1.3-3.2,3,0,.4,0,.9.2,1.3Z"/>
      <path class="st6" d="M188.3,215.8c9.4-3.9,16.9-20.1,16.9-20.1l-5.4-3.2-7.3,5.9-.7,2.4c-1,3.7-1.9,7.7-2.8,11.7-.3,1.1-.5,2.3-.8,3.4Z"/>
      <polygon class="st31" points="240.3 217.5 256.6 211.5 257.1 212.9 240.8 218.7 240.3 217.5"/>
      <rect class="st31" x="157.5" y="245.6" width="29.5" height="47.8" transform="translate(-120.9 397.4) rotate(-81)"/>
      <polyline class="st23" points="167.6 262.3 158 267.2 165.6 274.9"/>
      <polyline class="st23" points="176.8 276.7 186.4 271.7 178.8 264"/>
      <line class="st23" x1="169" y1="275.5" x2="175.5" y2="263.5"/>
      <path class="st15" d="M194.2,183.4s-17.8,17.8-20.2,21.3-7.1,41.9-7.1,41.9c0,0-1,.3-1.1,1.2s-.2,11.6,0,12.1,8.3,5.5,9.5,4.4,2.9-13.4,2.9-13.4l-4.3-4.2s5-28.3,8.2-32.9,16.1-14.4,16.1-14.4l-4-15.9Z"/>
      <path class="st31" d="M207.9,176.2c2.6,5.5.6,17.1-4.2,21.1-5.1,4.2-10.4,8-16,11.5l-8.7-11.4s9.3-9.1,14.9-14.3c3.8-3.7,8.7-6.1,14-6.9Z"/>
      <path class="st13" d="M207.9,176.2c2.6,5.5.6,17.1-4.2,21.1-5.1,4.2-10.4,8-16,11.5l-8.7-11.4s9.3-9.1,14.9-14.3c3.8-3.7,8.7-6.1,14-6.9Z"/>
      <polygon class="st31" points="179 196.6 177.9 198.1 187 210 188.3 209.1 179 196.6"/>
    </g>
  </g>
</svg>