<?xml version="1.0" encoding="UTF-8"?>
<svg id="Livello_1" xmlns="http://www.w3.org/2000/svg" version="1.1" viewBox="0 0 750 500">
  <!-- Generator: Adobe Illustrator 29.1.0, SVG Export Plug-In . SVG Version: 2.1.0 Build 142)  -->
  <defs>
    <style>
      .st0 {
        fill: #e0e0e0;
      }

      .st1, .st2, .st3, .st4, .st5, .st6, .st7, .st8, .st9 {
        isolation: isolate;
      }

      .st1, .st4, .st8 {
        opacity: .3;
      }

      .st2 {
        opacity: .1;
      }

      .st3, .st5 {
        opacity: .2;
      }

      .st10 {
        fill: #e6e6e6;
      }

      .st11, .st12, .st13, .st14 {
        stroke: #7558db;
      }

      .st11, .st12, .st13, .st14, .st4, .st5 {
        fill: none;
      }

      .st11, .st12, .st4, .st5 {
        stroke-linecap: round;
        stroke-linejoin: round;
      }

      .st11, .st4, .st5 {
        stroke-width: .5px;
      }

      .st15 {
        fill: #ebebeb;
      }

      .st13 {
        stroke-width: .8px;
      }

      .st13, .st14 {
        stroke-miterlimit: 10;
      }

      .st16 {
        fill: #263238;
      }

      .st4, .st5 {
        stroke: #000;
      }

      .st17 {
        fill: #cd877b;
      }

      .st18 {
        fill: #c15854;
      }

      .st19, .st6, .st7, .st8, .st9 {
        fill: #fff;
      }

      .st20 {
        fill: #f0f0f0;
      }

      .st21 {
        fill: #895555;
      }

      .st22 {
        fill: #6d3939;
      }

      .st23 {
        fill: #f5f5f5;
      }

      .st24 {
        fill: #7558db;
      }

      .st25 {
        fill: #9f5b53;
      }

      .st26 {
        fill: #7f2e2e;
      }

      .st6 {
        opacity: .7;
      }

      .st7 {
        opacity: .8;
      }

      .st9 {
        opacity: .5;
      }
    </style>
  </defs>
  <g id="freepik--background-complete--inject-1">
    <g>
      <g>
        <g>
          <path class="st0" d="M614,310h-144.6c-2.6,0-4.7-2.1-4.7-4.7V94.7c0-2.6,2.1-4.7,4.7-4.7h144.6c2.6,0,4.7,2.1,4.7,4.7v210.6c0,2.6-2.1,4.7-4.7,4.7h0ZM469.4,90.2c-2.5,0-4.5,2-4.5,4.5v210.6c0,2.5,2,4.5,4.5,4.5h144.6c2.5,0,4.5-2,4.5-4.5V94.7c0-2.5-2-4.5-4.5-4.5h-144.6Z"/>
          <path class="st0" d="M447.2,310h-144.6c-2.6,0-4.7-2.1-4.7-4.7V94.7c0-2.6,2.1-4.7,4.7-4.7h144.6c2.6,0,4.7,2.1,4.7,4.7v210.6c0,2.6-2.1,4.7-4.7,4.7h0ZM302.7,90.2c-2.5,0-4.5,2-4.5,4.5v210.6c0,2.5,2,4.5,4.5,4.5h144.6c2.5,0,4.5-2,4.5-4.5V94.7c0-2.5-2-4.5-4.5-4.5h-144.6,0Z"/>
        </g>
        <path class="st0" d="M280.6,310h-144.6c-2.6,0-4.7-2.1-4.7-4.7V94.7c0-2.6,2.1-4.7,4.7-4.7h144.6c2.6,0,4.7,2.1,4.7,4.7v210.6c0,2.6-2.1,4.7-4.7,4.7h0ZM136,90.2c-2.5,0-4.5,2-4.5,4.5v210.6c0,2.5,2,4.5,4.5,4.5h144.6c2.5,0,4.5-2,4.5-4.5V94.7c0-2.5-2-4.5-4.5-4.5h-144.6Z"/>
        <rect class="st0" x="75" y="335" width="600" height="0"/>
      </g>
      <g>
        <rect class="st0" x="596.1" y="349.8" width="44.6" height=".3"/>
        <rect class="st0" x="469.2" y="353.4" width="11.7" height=".3"/>
        <rect class="st0" x="105.7" y="339.5" width="58.2" height=".3"/>
        <rect class="st0" x="175.9" y="339.5" width="8.6" height=".3"/>
        <rect class="st0" x="212.1" y="345.2" width="126.1" height=".3"/>
      </g>
    </g>
    <g>
      <g>
        <path class="st0" d="M604,388.7c0-.4-1.3-37.7-7.4-43.6-5.9-5.8-12.6-.2-13,0l-.6-.7s7.8-6.3,14.2,0c6.3,6.2,7.6,42.7,7.6,44.2h-1,0Z"/>
        <path class="st0" d="M604.5,396c0-.5-4.2-44.8,12.1-63.4l.7.6c-15.9,18.2-11.8,62.2-11.8,62.6h-1Z"/>
        <path class="st0" d="M604,391.4h-1c0-.6,3.2-50.5-8.7-61.4l.6-.7c12.2,11.2,9.1,60,9,62.1h0Z"/>
        <path class="st0" d="M605.5,391.3h-1c0-1.4.4-33.7,9.6-39,2.1-1.2,4.1-1.4,5.9-.6,5.5,2.3,8.3,12.2,8.4,12.6l-.9.2c0,0-2.7-9.8-7.8-12-1.6-.6-3.4-.5-5.1.6-8.7,5-9.1,37.8-9.1,38.2h0Z"/>
        <path class="st0" d="M602,391.3h-1c0-.3,1.4-25.6-5.4-34.6-1.7-2.2-3.4-3.2-5.4-3-4.5.3-8.2,6.9-8.2,7l-.8-.5c.2-.3,4-7,9-7.4,2.2-.2,4.3,1,6.2,3.4,7,9.2,5.7,34.1,5.6,35.1h0Z"/>
        <path class="st0" d="M603.4,394.7c-.2-2.5-4.5-60.2,3-70.4l.8.6c-7.3,9.9-3,69.2-2.9,69.8h-1Z"/>
      </g>
      <path class="st15" d="M622.1,357.6s-4.5,1.7-3.2,5.6c1.4,3.9,15.6,10.4,15.6,10.4,0,0,6-5.5.5-14.4-5.5-8.9-12.8-4.4-13-1.6h0Z"/>
      <path class="st15" d="M602.5,350.1s4.8-.2,5.1,3.9c.2,4.2-10.4,15.6-10.4,15.6,0,0-7.6-2.7-6-13.1,1.6-10.3,10.2-9,11.4-6.5h0Z"/>
      <path class="st15" d="M598.4,330.2s3.2-.3,3-2.3c-.2-1.9-12.5-7-19.7,1.1,0,0,4.6,7.9,11.3,8,6.6,0,5.4-6.9,5.4-6.9h0Z"/>
      <path class="st15" d="M604.4,325.5s-2.9,1.4-3.7-.4c-.8-1.8,6.9-12.5,17.3-9.4,0,0,.2,9.1-5.4,12.8-5.6,3.6-8.2-3-8.2-3h0Z"/>
      <path class="st15" d="M589.2,356s2.2-1.8-.2-2.6-14.1-.6-14.2,11c0,0,13.7,2.2,15.4-2.2,1.7-4.4-1-6.2-1-6.2h0Z"/>
      <path class="st15" d="M617.1,330s-2.2-1.8.2-2.6c2.4-.9,14.1-.6,14.2,11,0,0-13.7,2.2-15.4-2.2-1.7-4.4,1-6.2,1-6.2h0Z"/>
      <path class="st15" d="M609.8,339.4s-.2-2.2,1.5-1.4c1.8.9,7.8,7.4,1.5,13.7,0,0-8.6-6.3-7-9.6,1.5-3.3,3.9-2.8,3.9-2.8h0Z"/>
      <path class="st15" d="M587.2,342.4s1.4-1.8-.6-1.9c-1.9-.2-10.6,2.1-8.6,10.8,0,0,10.6-.8,11-4.4s-1.8-4.4-1.8-4.4h0Z"/>
      <polygon class="st20" points="614.4 408 593.1 408 587.4 381.8 619.6 381.8 614.4 408"/>
      <rect class="st10" x="585.5" y="381.5" width="35.9" height="7.5"/>
    </g>
    <path class="st20" d="M560.5,127.7c-1-4.6-2.8-9-5.4-12.8l4.6-5.5-9.8-9.8-5.5,4.6c-3.8-2.6-8.2-4.4-12.8-5.4l-.6-7.1h-13.9l-.6,7.1c-4.6,1-9,2.8-12.8,5.4l-5.5-4.6-9.8,9.8,4.6,5.5c-2.6,3.8-4.4,8.2-5.4,12.8l-7.1.6v13.9l7.1.6c1,4.6,2.8,9,5.4,12.8l-4.6,5.5,9.8,9.8,5.5-4.6c3.8,2.6,8.2,4.4,12.8,5.4l.6,7.1h13.9l.6-7.1c4.6-1,9-2.8,12.8-5.4l5.5,4.6,9.8-9.8-4.6-5.5c2.6-3.8,4.4-8.2,5.4-12.8l7.1-.6v-13.9l-7.1-.6ZM542.8,135.3c0,10.4-8.4,18.8-18.8,18.8s-18.8-8.4-18.8-18.8,8.4-18.8,18.8-18.8,18.8,8.4,18.8,18.8Z"/>
    <path class="st20" d="M292,113.7c-.8-3.8-2.2-7.3-4.3-10.4l3.7-4.5-7.9-7.9-4.5,3.7c-3.1-2.1-6.6-3.5-10.4-4.3l-.6-5.8h-11.2l-.6,5.8c-3.8.8-7.3,2.2-10.4,4.3l-4.5-3.7-7.9,7.9,3.7,4.5c-2.1,3.1-3.5,6.6-4.3,10.4l-5.8.6v11.2l5.8.6c.8,3.8,2.2,7.3,4.3,10.4l-3.7,4.5,7.9,7.9,4.5-3.7c3.1,2.1,6.6,3.5,10.4,4.3l.6,5.8h11.2l.6-5.8c3.8-.8,7.3-2.2,10.4-4.3l4.5,3.7,7.9-7.9-3.7-4.5c2.1-3.1,3.5-6.6,4.3-10.4l5.8-.6v-11.2l-5.8-.6ZM277.6,119.8c0,8.4-6.8,15.2-15.2,15.2s-15.2-6.8-15.2-15.2,6.8-15.2,15.2-15.2,15.2,6.8,15.2,15.2Z"/>
    <path class="st20" d="M346,294.2c-.8-3.8-2.2-7.3-4.3-10.4l3.7-4.5-7.9-7.9-4.5,3.7c-3.1-2.1-6.6-3.5-10.4-4.3l-.6-5.8h-11.2l-.6,5.8c-3.8.8-7.3,2.2-10.4,4.3l-4.5-3.7-7.9,7.9,3.7,4.5c-2.1,3.1-3.5,6.6-4.3,10.4l-5.8.6v11.2l5.8.6c.8,3.8,2.2,7.3,4.3,10.4l-3.7,4.5,7.9,7.9,4.5-3.7c3.1,2.1,6.6,3.5,10.4,4.3l.6,5.8h11.2l.6-5.8c3.8-.8,7.3-2.2,10.4-4.3l4.5,3.7,7.9-7.9-3.7-4.5c2.1-3.1,3.5-6.6,4.3-10.4l5.8-.6v-11.2l-5.8-.6h0ZM331.6,300.3c0,8.4-6.8,15.2-15.2,15.2s-15.2-6.8-15.2-15.2,6.8-15.2,15.2-15.2,15.2,6.8,15.2,15.2Z"/>
    <path class="st20" d="M351.4,110.2c-.4-1.8-1-3.4-2-4.9l1.8-2.1-3.8-3.8-2.1,1.8c-1.4-1-3.1-1.7-4.9-2l-.2-2.7h-5.3l-.2,2.7c-1.8.4-3.4,1-4.9,2l-2.1-1.8-3.8,3.8,1.8,2.1c-1,1.4-1.7,3.1-2,4.9l-2.7.2v5.3l2.7.2c.4,1.8,1,3.4,2,4.9l-1.8,2.1,3.8,3.8,2.1-1.8c1.4,1,3.1,1.7,4.9,2l.2,2.7h5.3l.2-2.7c1.8-.4,3.4-1,4.9-2l2.1,1.8,3.8-3.8-1.8-2.1c1-1.4,1.7-3.1,2-4.9l2.7-.2v-5.3l-2.7-.2ZM344.7,113.1c0,3.9-3.2,7.1-7.1,7.1s-7.1-3.2-7.1-7.1,3.2-7.1,7.1-7.1,7.1,3.2,7.1,7.1Z"/>
    <path class="st20" d="M324.6,89.7c-.2-1.2-.7-2.2-1.4-3.2l1.1-1.4-2.5-2.5-1.4,1.1c-1-.6-2.1-1.1-3.2-1.4l-.2-1.8h-3.4l-.2,1.8c-1.2.2-2.2.7-3.2,1.4l-1.4-1.1-2.5,2.5,1.1,1.4c-.6,1-1.1,2.1-1.4,3.2l-1.8.2v3.4l1.8.2c.2,1.2.7,2.2,1.4,3.2l-1.1,1.4,2.5,2.5,1.4-1.1c1,.6,2.1,1.1,3.2,1.4l.2,1.8h3.4l.2-1.8c1.2-.2,2.2-.7,3.2-1.4l1.4,1.1,2.5-2.5-1.1-1.4c.6-1,1.1-2.1,1.4-3.2l1.8-.2v-3.4l-1.8-.2h0ZM320.2,91.6c0,2.6-2.1,4.7-4.7,4.7s-4.7-2.1-4.7-4.7,2.1-4.7,4.7-4.7,4.7,2.1,4.7,4.7Z"/>
    <path class="st20" d="M205.2,271.4c-.5-2.4-1.4-4.6-2.7-6.6l2.3-2.8-5-5-2.8,2.3c-2-1.3-4.2-2.2-6.6-2.7l-.3-3.7h-7.1l-.3,3.7c-2.4.5-4.6,1.4-6.6,2.7l-2.8-2.3-5,5,2.3,2.8c-1.3,2-2.2,4.2-2.7,6.6l-3.7.3v7.1l3.7.3c.5,2.4,1.4,4.6,2.7,6.6l-2.3,2.8,5,5,2.8-2.3c2,1.3,4.2,2.2,6.6,2.7l.3,3.7h7.1l.3-3.7c2.4-.5,4.6-1.4,6.6-2.7l2.8,2.3,5-5-2.3-2.8c1.3-2,2.2-4.2,2.7-6.6l3.7-.3v-7.1l-3.7-.3ZM196.1,275.3c0,5.3-4.3,9.6-9.6,9.6s-9.6-4.3-9.6-9.6,4.3-9.6,9.6-9.6,9.6,4.3,9.6,9.6Z"/>
    <path class="st20" d="M622.7,160c-.6-2.7-1.6-5.2-3.1-7.4l2.6-3.2-5.7-5.8-3.2,2.6c-2.2-1.4-4.8-2.6-7.4-3.1l-.4-4.2h-8.1l-.4,4.2c-2.7.6-5.2,1.6-7.4,3.1l-3.2-2.6-5.8,5.8,2.6,3.2c-1.4,2.2-2.6,4.7-3.1,7.4l-4.2.4v8.1l4.2.4c.6,2.7,1.6,5.2,3.1,7.4l-2.6,3.2,5.8,5.8,3.2-2.6c2.2,1.4,4.8,2.6,7.4,3.1l.4,4.2h8.1l.4-4.2c2.7-.6,5.2-1.6,7.4-3.1l3.2,2.6,5.7-5.8-2.6-3.2c1.4-2.2,2.6-4.8,3.1-7.4l4.2-.4v-8.1l-4.2-.4h0ZM612.4,164.5c0,6.1-4.9,11-11,11s-11-4.9-11-11,4.9-11,11-11,11,4.9,11,11Z"/>
  </g>
  <g id="freepik--Shadow--inject-1">
    <path class="st23" d="M612.6,414c0,3-92.6,5.4-206.7,5.4s-206.7-2.4-206.7-5.4,92.6-5.4,206.7-5.4,206.7,2.4,206.7,5.4Z"/>
  </g>
  <g id="freepik--Window--inject-1">
    <g>
      <path class="st24" d="M251.3,115.7h254c5.1,0,9.4,4.2,9.4,9.4v169.1c0,5.1-4.2,9.4-9.4,9.4h-254c-5.1,0-9.4-4.2-9.4-9.4V125c0-5.1,4.2-9.4,9.4-9.4h0Z"/>
      <path class="st6" d="M251.3,115.7h254c5.1,0,9.4,4.2,9.4,9.4v169.1c0,5.1-4.2,9.4-9.4,9.4h-254c-5.1,0-9.4-4.2-9.4-9.4V125c0-5.1,4.2-9.4,9.4-9.4h0Z"/>
      <g>
        <path class="st24" d="M247.8,115.7h258.6c4.6,0,8.2,3.7,8.2,8.2v5.8H242v-8.2c0-3.2,2.6-5.8,5.8-5.8Z"/>
        <path class="st8" d="M504.1,122.7c0,1.7-1.4,3-3,3s-3-1.4-3-3,1.4-3,3-3,3,1.4,3,3Z"/>
        <path class="st8" d="M495.6,122.7c0,1.7-1.4,3-3,3s-3-1.4-3-3,1.4-3,3-3,3,1.4,3,3Z"/>
        <circle class="st8" cx="483.9" cy="122.7" r="3" transform="translate(125.3 469.9) rotate(-58.3)"/>
        <g>
          <path class="st12" d="M289.6,109.4h23.5"/>
          <path class="st12" d="M319.6,109.4h4.9"/>
        </g>
      </g>
      <path class="st2" d="M475.6,146.2h-200.6c-4.7,0-8.6,3.8-8.6,8.6s3.8,8.6,8.6,8.6h200.6c4.7,0,8.6-3.8,8.6-8.6s-3.8-8.6-8.6-8.6h0Z"/>
      <g>
        <path class="st19" d="M475.6,158.6h-200.6c-4.7,0-8.6-3.8-8.6-8.6h0c0-4.7,3.8-8.6,8.6-8.6h200.6c4.7,0,8.6,3.8,8.6,8.6h0c0,4.7-3.8,8.6-8.6,8.6h0Z"/>
        <g>
          <path class="st14" d="M474.8,149.6c0,.8-.2,1.5-.6,2.2-.6,1-1.8,1.7-3.1,1.7-2.1,0-3.8-1.7-3.8-3.8s1.7-3.8,3.8-3.8,3.8,1.7,3.8,3.8h0Z"/>
          <line class="st12" x1="476.4" y1="154.3" x2="473.9" y2="152.2"/>
        </g>
      </g>
      <g>
        <path class="st13" d="M376.5,184h46.3c1.8,0,3.3,1.4,3.3,3.3v46.3c0,1.8-1.4,3.3-3.3,3.3h-46.3c-1.8,0-3.3-1.4-3.3-3.3v-46.3c0-1.8,1.4-3.3,3.3-3.3h0Z"/>
        <line class="st13" x1="374.1" y1="235.9" x2="425.2" y2="185"/>
        <line class="st13" x1="374.1" y1="184.9" x2="425.2" y2="235.9"/>
      </g>
      <g>
        <path class="st13" d="M442.4,184h46.3c1.8,0,3.3,1.4,3.3,3.3v46.3c0,1.8-1.4,3.3-3.3,3.3h-46.3c-1.8,0-3.3-1.4-3.3-3.3v-46.3c0-1.8,1.4-3.3,3.3-3.3h0Z"/>
        <line class="st13" x1="440.1" y1="235.9" x2="491.1" y2="185"/>
        <line class="st13" x1="440.1" y1="184.9" x2="491.1" y2="235.9"/>
      </g>
      <rect class="st24" x="373.2" y="246.7" width="51.8" height="2.5"/>
      <rect class="st24" x="373.2" y="254.2" width="51.8" height="2.5"/>
      <rect class="st24" x="373.2" y="261.5" width="31.8" height="2.5"/>
      <rect class="st24" x="442.1" y="246.7" width="51.8" height="2.5"/>
      <rect class="st24" x="442.1" y="254.2" width="51.8" height="2.5"/>
      <rect class="st24" x="442.1" y="261.5" width="31.8" height="2.5"/>
      <rect class="st3" x="268" y="160" width="84" height="83.9" rx="4.9" ry="4.9"/>
      <g>
        <g>
          <g>
            <rect class="st24" x="261.9" y="154" width="84" height="83.9" rx="4.9" ry="4.9"/>
            <rect class="st9" x="261.9" y="154" width="84" height="83.9" rx="4.9" ry="4.9"/>
            <path class="st24" d="M265.6,154h76.7c2,0,3.6,1.6,3.6,3.6v6.8h-84v-6.7c0-2.1,1.7-3.7,3.7-3.7h0Z"/>
          </g>
          <g>
            <path class="st9" d="M334.4,159.8c0,1.2-1,2.2-2.2,2.2s-2.2-1-2.2-2.2,1-2.2,2.2-2.2,2.2,1,2.2,2.2Z"/>
            <path class="st9" d="M328.2,159.8c0,1.2-1,2.2-2.2,2.2s-2.2-1-2.2-2.2,1-2.2,2.2-2.2,2.2,1,2.2,2.2Z"/>
            <path class="st9" d="M321.9,159.8c0,1.2-1,2.2-2.2,2.2s-2.2-1-2.2-2.2,1-2.2,2.2-2.2,2.2,1,2.2,2.2Z"/>
          </g>
        </g>
        <g>
          <path class="st9" d="M278.7,174.4h53.2c2.7,0,4.9,2.2,4.9,4.9v39.8c0,2.7-2.2,4.9-4.9,4.9h-56c-2.7,0-4.9-2.2-4.9-4.9v-37c0-4.2,3.4-7.8,7.8-7.8h0Z"/>
          <g>
            <path class="st24" d="M300.8,205.5h-13.9l-2.9,6.6h-3.8l11.9-26.2h3.7l11.9,26.2h-3.9l-2.9-6.6h0ZM299.5,202.6l-5.7-12.9-5.7,12.9h11.4Z"/>
            <path class="st24" d="M326.8,200.1v12h-3.4v-2.6c-1.2,1.8-3.4,2.9-6.6,2.9-4.5,0-7.4-2.4-7.4-5.8s2.1-5.8,8-5.8h5.7v-.7c0-3-1.8-4.8-5.4-4.8s-4.8.8-6.3,2.2l-1.5-2.7c2.1-1.7,5-2.6,8.2-2.6,5.4,0,8.5,2.6,8.5,8.1h.2ZM323.2,206.1v-2.8h-5.5c-3.6,0-4.6,1.4-4.6,3s1.7,3.2,4.4,3.2,4.8-1.2,5.8-3.5h0Z"/>
          </g>
        </g>
      </g>
      <rect class="st13" x="373.6" y="279.4" width="122.2" height="10"/>
      <rect class="st13" x="267.2" y="253.6" width="84.8" height="4.8"/>
      <rect class="st13" x="267.2" y="264.6" width="84.8" height="4.8"/>
      <rect class="st13" x="267.2" y="275.7" width="84.8" height="4.8"/>
    </g>
  </g>
  <g id="freepik--Colors--inject-1">
    <g>
      <rect class="st24" x="399.2" y="318.8" width="115.8" height="43.6" rx="6" ry="6"/>
      <rect class="st6" x="399.2" y="318.8" width="115.8" height="43.6" rx="6" ry="6"/>
      <rect class="st24" x="410" y="328.3" width="24.5" height="24.5" rx="2.5" ry="2.5"/>
      <rect class="st8" x="410" y="328.3" width="24.5" height="24.5" rx="2.5" ry="2.5"/>
      <rect class="st24" x="443.6" y="328.3" width="24.5" height="24.5" rx="2.5" ry="2.5"/>
      <rect class="st24" x="477.2" y="328.3" width="24.5" height="24.5" rx="2.5" ry="2.5"/>
      <rect class="st1" x="477.2" y="328.3" width="24.5" height="24.5" rx="2.5" ry="2.5"/>
    </g>
  </g>
  <g id="freepik--Image--inject-1">
    <g>
      <g>
        <g>
          <rect class="st24" x="526" y="97.4" width="76.9" height="64.6" rx="4.9" ry="4.9"/>
          <rect class="st9" x="526" y="97.4" width="76.9" height="64.6" rx="4.9" ry="4.9"/>
          <path class="st24" d="M529.6,97.4h69.5c2,0,3.6,1.6,3.6,3.6v7.6h-76.9v-7.6c0-2.1,1.7-3.7,3.7-3.7h0Z"/>
        </g>
        <g>
          <path class="st9" d="M598.5,103.8c0,1.4-1.1,2.5-2.5,2.5s-2.5-1.1-2.5-2.5,1.1-2.5,2.5-2.5,2.5,1.1,2.5,2.5Z"/>
          <path class="st9" d="M591.5,103.8c0,1.4-1.1,2.5-2.5,2.5s-2.5-1.1-2.5-2.5,1.1-2.5,2.5-2.5,2.5,1.1,2.5,2.5Z"/>
          <path class="st9" d="M584.5,103.8c0,1.4-1.1,2.5-2.5,2.5s-2.5-1.1-2.5-2.5,1.1-2.5,2.5-2.5,2.5,1.1,2.5,2.5Z"/>
        </g>
      </g>
      <g>
        <rect class="st24" x="537.5" y="117" width="55.3" height="37.8" rx="3.4" ry="3.4"/>
        <rect class="st7" x="537.5" y="117" width="55.3" height="37.8" rx="3.4" ry="3.4"/>
        <path class="st24" d="M539,153.4l17.3-15.7,12.4,5.8,15-11.4,9.1,5.8v15.4c0,.8-1,1.4-2.1,1.4h-50.6c-1,0-1.6-.8-1-1.4h0Z"/>
        <path class="st24" d="M572.6,126c0,2.6-2.2,4.7-4.7,4.7s-4.7-2.1-4.7-4.7,2.2-4.7,4.7-4.7,4.7,2.1,4.7,4.7Z"/>
      </g>
    </g>
  </g>
  <g id="freepik--Chart--inject-1">
    <g>
      <g>
        <g>
          <rect class="st24" x="137.1" y="132.9" width="73" height="61.4" rx="4.9" ry="4.9"/>
          <rect class="st9" x="137.1" y="132.9" width="73" height="61.4" rx="4.9" ry="4.9"/>
          <path class="st24" d="M140.8,132.9h65.6c2,0,3.6,1.6,3.6,3.6v7h-73v-7c0-2.1,1.7-3.7,3.7-3.7h0Z"/>
        </g>
        <g>
          <path class="st9" d="M205.9,139c0,1.3-1,2.3-2.3,2.3s-2.3-1-2.3-2.3,1-2.3,2.3-2.3,2.3,1,2.3,2.3Z"/>
          <path class="st9" d="M199.2,139c0,1.3-1,2.3-2.3,2.3s-2.3-1-2.3-2.3,1-2.3,2.3-2.3,2.3,1,2.3,2.3Z"/>
          <path class="st9" d="M192.6,139c0,1.3-1,2.3-2.3,2.3s-2.3-1-2.3-2.3,1-2.3,2.3-2.3,2.3,1,2.3,2.3Z"/>
        </g>
      </g>
      <g>
        <path class="st23" d="M172.4,168.7l6.3-17.4c2.3.9,4.5,2.2,6.3,3.9,1.8,1.7,3.3,3.8,4.3,6.1l-17,7.4h0Z"/>
        <path class="st24" d="M172.4,168.7l5.4,17.7c-1.8.6-3.6.8-5.4.8-10.2,0-18.5-8.3-18.5-18.5s8.3-18.5,18.5-18.5,4.2.4,6.2,1.1l-6.2,17.4h0Z"/>
        <path class="st24" d="M172.4,168.7l17-7.3c1,2.3,1.5,4.8,1.5,7.3,0,8.1-5.3,15.3-13,17.7l-5.4-17.7h0Z"/>
        <path class="st1" d="M172.4,168.7l17-7.3c1,2.3,1.5,4.8,1.5,7.3,0,8.1-5.3,15.3-13,17.7l-5.4-17.7h0Z"/>
      </g>
    </g>
  </g>
  <g id="freepik--Plant--inject-1">
    <g>
      <g>
        <g>
          <path class="st16" d="M159.1,386.9c0-.3-1.1-33.5-6.6-38.8-5.3-5.1-11.3-.2-11.5,0l-.6-.6s6.9-5.6,12.6,0c5.7,5.5,6.7,38,6.8,39.4h-.9,0Z"/>
          <path class="st16" d="M159.6,393.4c0-.4-3.7-39.8,10.7-56.4l.6.6c-14.2,16.2-10.6,55.4-10.5,55.8h-.9Z"/>
          <path class="st16" d="M159,389.2h-.9c0-.5,2.8-44.9-7.8-54.6l.6-.6c10.9,10,8.2,53.4,8,55.2h0Z"/>
          <path class="st16" d="M160.4,389.2h-.9c0-1.2.3-30,8.5-34.6,1.8-1,3.6-1.2,5.3-.5,5,2.1,7.4,10.8,7.5,11.2l-.8.2c0,0-2.5-8.8-7-10.6-1.4-.6-3-.4-4.6.5-7.8,4.5-8.1,33.7-8.1,33.9h0Z"/>
          <path class="st16" d="M157.2,389.2h-.9c0-.2,1.2-22.8-4.9-30.7-1.4-1.9-3-2.8-4.7-2.7-4,.2-7.3,6.1-7.4,6.2l-.7-.4c.2-.2,3.6-6.2,8-6.6,2-.2,3.8.9,5.5,3,6.2,8.2,5,30.3,5,31.2h0Z"/>
          <path class="st16" d="M158.5,392.2c-.2-2.2-4-53.6,2.7-62.6l.6.5c-6.5,8.8-2.6,61.5-2.6,62.1h-.9,0Z"/>
        </g>
        <path class="st24" d="M176.4,356.8s-4.2,1.6-2.8,5c4.1,9.6,13.8,10.6,13.8,10.6,0,0,4.6-7.2.8-12.9-5.2-7.8-11.8-5.2-11.8-2.7h0Z"/>
        <path class="st24" d="M157.7,352.6s4.2-.2,4.5,3.5c.2,3.7-9.3,13.9-9.3,13.9,0,0-6.8-2.5-5.4-11.7,1.4-9.2,9-8,10.1-5.8h0Z"/>
        <path class="st24" d="M159.8,331s-1.8-.2-2.5-1.8c-2-4.8,4.9-10,14.2-7.3,0,0,.2,8.2-4.7,11.4-5,3.2-7-2.2-7-2.2h0Z"/>
        <path class="st24" d="M144,356.3s1.5-2.1-.8-2.2c-2.2-.2-12,4.2-9.4,14.2,0,0,12.6-4.1,13-8.2s-2.8-3.7-2.8-3.7h0Z"/>
        <path class="st24" d="M170.7,334.6s.6-1.8,2.7-2.6c2.2-.8,10-.3,10.2,10,0,0-12.2,2-13.6-1.9-1.5-3.9.8-5.5.8-5.5h0Z"/>
        <path class="st24" d="M164.1,343.2s.8-1.4,2.4-.6c1.5.7,6.2,5.5,1.8,11.2,0,0-8.2-4.9-7.4-8.3.6-3.2,3.4-2.2,3.4-2.2h0Z"/>
        <path class="st24" d="M144.1,345.8s1.2-1.5-.6-1.8c-1.8-.2-9.4,1.8-7.7,9.6,0,0,9.4-.7,9.8-3.9.4-3.2-1.6-3.9-1.6-3.9h0Z"/>
        <polygon class="st16" points="171.1 409.8 148 409.8 145.6 386 173.6 386 171.1 409.8"/>
        <rect class="st16" x="141.7" y="382.7" width="35.7" height="6.5"/>
      </g>
      <path class="st4" d="M152.1,366.6c-.7-5,1.8-10.6,5.6-14"/>
      <path class="st4" d="M164.1,343.5c1.9,1.9,3.3,4.5,3.8,7.1"/>
      <path class="st4" d="M176.4,356.8c3.8,1.8,7.5,5.4,9.4,9.2"/>
      <path class="st4" d="M170.7,334.6c2-.6,3.8,0,5.8.8,1.9.7,3.7,2.2,4.8,3.9"/>
      <path class="st24" d="M153.6,336.4s2.9.3,3-1.4c.2-1.8-9.4-8.6-17.3-2.9,0,0,2.4,7.8,8.2,9.2s6.1-4.9,6.1-4.9Z"/>
      <path class="st4" d="M153.6,336.6c-3-4-10.3-5.4-12.9-4.4"/>
      <path class="st4" d="M144.3,345.8c-2.5.9-5,2.5-6.4,4.7"/>
      <path class="st4" d="M135.1,364.5c1.9-3.7,5.1-6.6,9-8.2"/>
      <path class="st4" d="M160.2,330.9c1.5-3.3,4.5-5.8,7.8-6.9"/>
      <polygon class="st1" points="146 389.3 146.4 393.5 172.8 393.5 173.2 389.3 146 389.3"/>
    </g>
  </g>
  <g id="freepik--Character_3--inject-1">
    <g id="freepik--freepik--character-1--inject-2--inject-1">
      <polygon class="st17" points="545.6 387.2 548.2 407.7 554.4 407.7 556 387.6 545.6 387.2"/>
      <polygon class="st17" points="589.9 387.4 598.1 407.2 604.1 406.2 600.4 384.2 589.9 387.4"/>
      <g>
        <path class="st16" d="M595.2,403h2.8c.6,0,1.2.3,1.6.8,1.6,2.2,2.8,1.4,4.6-.7,1.1-.2,1.4,1.1,1.5,1.4l2.1,7.5c.2.6-.2,1.3-.8,1.4h-22.2c-3.5,0-4.2-3.5-2.8-3.8,6.5-1.4,11-3.4,13-5.2.4-.3,0-.6.4-1.6l-.2.2Z"/>
        <path class="st24" d="M591.3,405.5c.9,0,1.8-.2,2.6-.3,0,0,.2,0,0-.2h0c-.4-.2-3.8-1.9-4.7-1.3-.2,0-.2.3-.2.5,0,.3.2.7.5.9.6.3,1.2.5,1.8.4h0ZM593.4,405c-1,.2-2.9.5-3.7-.2-.2-.2-.3-.4-.3-.6s0-.2,0-.2c.5-.3,2.6.4,3.9,1h0Z"/>
        <path class="st24" d="M593.9,405.2h0v-.2c0-.2-.8-3.5-2.7-3.4-.5,0-.6.3-.6.5,0,.9,2.1,2.6,3.1,3h.2ZM591.6,402c1.2,0,1.9,2,2.2,2.8-1.1-.6-2.7-2-2.6-2.6,0,0,0-.2.3-.2h.2,0Z"/>
      </g>
      <g>
        <path class="st16" d="M545.6,403.4h2.8c.6,0,1.2.3,1.6.8,1.6,2.2,2.8,1.4,4.6-.7,1.1-.2,1.4,1.1,1.5,1.4l2.1,7.5c.2.6-.2,1.3-.8,1.4h-22.2c-3.5,0-4.2-3.5-2.8-3.8,6.5-1.4,11-3.4,13-5.2.4-.3,0-.6.4-1.6h0l-.2.2Z"/>
        <path class="st24" d="M541.9,405.8c.9,0,1.8-.2,2.6-.3,0,0,.2,0,0-.2h0c-.4-.2-3.8-1.9-4.7-1.3-.2,0-.2.3-.2.5,0,.3.2.7.5.9.6.3,1.2.5,1.8.4h0ZM543.9,405.4c-1,.2-2.9.5-3.7-.2-.2-.2-.3-.4-.3-.6s0-.2,0-.2c.5-.3,2.6.4,3.9,1h0Z"/>
        <path class="st24" d="M544.4,405.5h0v-.2c0-.2-.8-3.5-2.7-3.4-.5,0-.6.3-.6.5,0,.9,2.1,2.6,3.1,3h.2ZM542,402.3c1.2,0,1.9,2,2.2,2.8-1.1-.6-2.7-2-2.6-2.6,0,0,0-.2.3-.2h.2,0Z"/>
      </g>
      <rect class="st3" x="488.1" y="188.1" width="79.1" height="79.1" rx="3.4" ry="3.4"/>
      <g>
        <rect class="st24" x="494.4" y="182.6" width="79.1" height="79.1" rx="3.4" ry="3.4"/>
        <rect class="st8" x="494.4" y="182.6" width="79.1" height="79.1" rx="3.4" ry="3.4"/>
        <path class="st24" d="M496.6,258.9l24.7-32.9,17.8,12.2,21.4-23.8,13,12.2v32.2c0,1.7-1.4,3-3,3h-72.5c-1.5,0-2.3-1.7-1.4-2.9h0Z"/>
        <path class="st24" d="M543.8,201.7c0,5.4-4.4,9.8-9.8,9.8s-9.8-4.4-9.8-9.8,4.4-9.8,9.8-9.8,9.8,4.4,9.8,9.8Z"/>
      </g>
      <g>
        <path class="st16" d="M541.8,184.1c0,.6-.5.9-.8.9s-.6-.6-.4-1.1.5-.9.8-.9.6.6.4,1.1h0Z"/>
        <path class="st26" d="M541.6,185c-1,1.5-2.2,2.9-3.5,4.1.6.7,1.5,1,2.5,1l1-5h0Z"/>
        <path class="st16" d="M544.4,181.4c.2,0,.3-.2.3-.3,0,0,0-.2,0-.2-.7-.8-1.7-1.2-2.7-1h0c-.2,0-.3.2-.2.4,0,.2.2.3.4.2h0c.8,0,1.6.3,2.2,1h.2,0Z"/>
        <path class="st25" d="M556.8,193.9c-1,5-1.6,11.8,1.9,15.2,0,0-1.4,5-10.6,5s-4.9-4.4-4.9-4.4c4.2-1.3,4.2-6.2,3.2-10l10.4-5.8h0Z"/>
        <path class="st25" d="M560,186.6c-1.7,6.5-2.4,10.4-6.5,13.1-6.1,4.1-13.6-.6-13.8-7.5-.2-6.2,2.6-15.8,9.7-17.1,5-1,9.8,2.3,10.8,7.3.2,1.4.2,2.9-.2,4.2Z"/>
        <path class="st16" d="M545,181.2c-1-1.4-1.2-3.1-.7-4.7,0,0-4.7,0-3.8-1.5,3.8-.8,12.2-7.8,15.5-.5,1.4.6,3,.9,4.5,1.4,5.5,1.6,5,9.8-.6,10.6h0c-5.3.7-11.5-1-14.7-5.3h0Z"/>
        <path class="st16" d="M562.9,182c-2,2.7-18.2-1-18.2-1l.9,8,3.4,8.3h7.4c0,0,6.6-10.7,6.6-10.7,0,0,2-7.4,0-4.6h0Z"/>
        <path class="st25" d="M548,186.8c-.4,1.6-1.4,3-2.6,4.2-1.8,1.4-3.1,0-3-1.9,0-1.8,1.1-4.7,3-5.3,1.9-.6,3.1,1.1,2.6,3h0Z"/>
      </g>
      <path class="st24" d="M542.2,208s1.4-3.5,2.9-4.2c1.4-.6,11-2.6,13.4-1.3,2.2,1.3,3.9,5.8,3.9,5.8l-20.1-.2h0Z"/>
      <path class="st16" d="M542.2,208s1.4-3.5,2.9-4.2c1.4-.6,11-2.6,13.4-1.3,2.2,1.3,3.9,5.8,3.9,5.8l-20.1-.2h0Z"/>
      <path class="st16" d="M532.5,215.9c-1.4,7.3-3.5,22.1.2,51.9l36.3.2c-.6-4.7-3.2-28.5.8-52.6v-.3c.4-3.6-2.2-6.9-5.8-7.3-1.8-.2-3.5-.4-5.3-.6-6.8-.2-13.5,0-20.3.5-1.7.3-3.9,1-4.8,2.2-1.3,1.5-.8,3.7-1.3,5.9h0Z"/>
      <path class="st24" d="M545.6,268.1c6.1,12,11.3,24.5,15.4,37.3,6.5,21.2,31.2,91.6,31.2,91.6l12-2.6s-17-60.5-23.9-90c-5.4-22.7-11.1-36.2-11.1-36.2h-23.5Z"/>
      <path class="st24" d="M532.8,268.1c-.5,12.4,0,24.9,1.3,37.3,2.3,21.5,11.2,92.1,11.2,92.1h11.5s.5-69.2,0-90.3c-.5-23,0-39,0-39h-23.9Z"/>
      <path class="st25" d="M504.3,264.5h-1.8c-1.1,0-2.2-.2-3.2-.6-1.6-.6-3.5-1.5-3-2.3,0,0,1.5-.8,3.7-2.4,1.2-.9,4.5-3.1,5-3.1l3.8,3.1s-1.9,2.2-4.5,5.4h0Z"/>
      <path class="st16" d="M538.8,209.8c-2.6-1.3-5-.6-6.8,2.1-2.9,7.9-13,26.9-13,26.9l-15.9,16.5,6.2,6.4,11.2-9.4c4.1-3.7,6.5-4.8,7.2-6.4,0,0,10-15,15.5-26.6,1.7-3.5-.9-7.7-4.3-9.6h0v.2Z"/>
      <path class="st25" d="M575.1,208l-1.4-4.6,5.2-4.9s.4,9,.2,9.1c-3.6,2-4,.4-4,.4h0Z"/>
      <path class="st25" d="M573.7,203.4l-1.6-2.5c-.4-.6-.4-1.4,0-2l1.5-2.5c0-.2.2-.3.3-.4.8-.7,2-.6,2.6,0l2.2,2.4c-.6,3.7-5.2,4.9-5.2,4.9h0Z"/>
      <path class="st16" d="M573.1,213.8l.2-4.2c0-1,.9-1.9,1.9-1.9l3.4-.2h0c1,0,1.7.8,1.7,1.8.5,14.2,1.2,21.8,1.5,25.2.2,2-.8,4-2.6,5-.6.3-1.2.5-1.8.4-.4,0-.8-.2-1.1-.3h0c-.7-.3-1.4-.7-2-1.3-.7-.8-1.4-1.7-1.8-2.6l.6-21.8h0Z"/>
      <path class="st16" d="M581.4,234.9c.3,1.8-.6,3.7-2.2,4.6-.6.3-1.2.4-1.8.3-.4,0-.8-.2-1.1-.3h0c-.7-.3-1.4-.7-2-1.3-.7-.8-1.4-1.7-1.8-2.6-4.1-7.6-10.4-27.8-10.4-27.8h0c2.6,0,9.5,2.2,10.6,4.6l.6,1.4,8,19.4.2,1.7h0Z"/>
    </g>
  </g>
  <g id="freepik--Character_2--inject-1">
    <g>
      <g>
        <polygon class="st17" points="347.6 388.7 342.5 405.8 337.4 405.5 338.5 387 347.6 388.7"/>
        <polygon class="st17" points="373.2 389.9 371.1 406.9 365.9 406.9 364.6 390.2 373.2 389.9"/>
        <path class="st24" d="M383.3,265c-.6-1.4-1-3-1.3-4.5l-18.2,1v.2c0,0-9.1-.7-9.1-.7,0,0,.5,1.4-1.2,4.8-1.8,3.9-3.3,8-4.3,12.2-2.6,9.8-1.8,15.2-.2,21.6,2.2,9.2-2.3,48.5-2.3,48.5-9.4,23-9,51.7-9,51.7l6.7.8s13.1-43.8,22.3-75.8c0,11.8-.6,24.2-.6,24.2-5.5,24.6-.9,52.6-.9,52.6h6.7s14-82.1,15.3-105.8c.5-8.5-1.8-25.2-3.8-30.5h0Z"/>
        <path class="st24" d="M353.7,267.4l1.3-2.6,1.4.2-.8,2.7-1.8-.3h0Z"/>
        <path class="st24" d="M373.2,265.4c3.7-.2,6.6-.6,8.6-.9l1,2.7c-3.1.5-6.3.9-9.4,1v-2.9h0Z"/>
        <path class="st24" d="M358.4,265.2c4.2.4,8.5.5,12.6.3v2.8h-3.8c-3.2,0-6.4-.2-9.5-.5l.7-2.7h0Z"/>
        <g>
          <g>
            <path class="st16" d="M373.2,403.3h-2.3c-.6,0-1,.2-1.3.7-1.4,1.8-2.3,1.1-3.8-.6-.9,0-1.2,1-1.2,1.2l-1.8,6.2c-.2.6.2,1,.6,1.2h18.6c2.9,0,3.5-3,2.3-3.2-5.4-1.2-9.2-2.8-10.8-4.3-.3-.2,0-.5-.3-1.4h0Z"/>
            <path class="st24" d="M377.9,405c.2-.2.4-.5.4-.7s0-.3-.2-.4c-.7-.5-3.6.8-3.9,1h0v.2c.7.2,1.4.2,2.2.2s1.1,0,1.6-.3h0ZM378,404.1s0,0,0,.2c0,.2,0,.4-.3.6-.6.5-2.2.2-3.1.2,1.2-.6,2.9-1.1,3.3-.9h.2Z"/>
            <path class="st24" d="M374.3,405.1c.9-.4,2.6-1.8,2.6-2.6,0-.2-.2-.3-.5-.4-1.6-.2-2.2,2.6-2.2,2.8v.2h.2ZM376.3,402.5c.3,0,.3.2.3.2,0,.5-1.2,1.6-2.2,2.2.2-.6.8-2.3,1.8-2.3h0Z"/>
          </g>
          <g>
            <path class="st16" d="M345.1,403.3h-2.3c-.6,0-1,.2-1.3.7-1.4,1.8-2.3,1.1-3.8-.6-.9,0-1.2,1-1.2,1.2l-1.8,6.2c-.2.6.2,1,.6,1.2h18.6c2.9,0,3.5-3,2.3-3.2-5.4-1.2-9.2-2.8-10.8-4.3-.3-.2,0-.5-.3-1.4h0Z"/>
            <path class="st24" d="M349.8,405c.2-.2.4-.5.4-.7s0-.3-.2-.4c-.7-.5-3.6.8-3.9,1h0v.2c.7.2,1.4.2,2.2.2s1.1,0,1.6-.3h0ZM349.8,404.1s0,0,0,.2c0,.2,0,.4-.3.6-.6.5-2.2.2-3.1.2,1.2-.6,2.9-1.1,3.3-.9h.2Z"/>
            <path class="st24" d="M346.2,405.1c.9-.4,2.6-1.8,2.6-2.6,0-.2-.2-.3-.5-.4-1.6-.2-2.2,2.6-2.2,2.8v.2h.2ZM348.2,402.5c.3,0,.3.2.3.2,0,.5-1.2,1.6-2.2,2.2.2-.6.8-2.3,1.8-2.3h0Z"/>
          </g>
        </g>
      </g>
      <path class="st17" d="M342.5,231.8s-10.2,21.1-6,22.8,18.7,2.7,18.7,2.7l6.3,6,3.7-2.4-.9-6.2-8.2-1.8-11-3.4c-.9-.3-1.4-1.3-1.1-2.2v-.2l5.4-11.8-6.7-3.8h0v.2Z"/>
      <g>
        <path class="st16" d="M364.8,194.5c-.2-.6,0-1,.3-1.1s.8.2.9.8c.2.6,0,1-.3,1.1s-.8-.2-.9-.8h0Z"/>
        <path class="st18" d="M364.8,195.3l4.2,2.6c-.6,1-1.7,1.6-2.9,1.7l-1.3-4.3Z"/>
        <path class="st16" d="M363.5,193.4c0,0,.2,0,.2-.2.2-.8.8-1.4,1.6-1.8.2,0,.2-.2.2-.4h0c0-.2-.2-.3-.4-.2-1,.3-1.8,1.2-2.1,2.2,0,.2,0,.3.2.4h.2Z"/>
        <path class="st17" d="M346.3,200.3c2.8,6.6,3.8,9.4,8.4,11.6,6.4,1.7,14.3-1.4,13.6-8.7-.7-6.5-5.1-16.1-12.6-16.5-5.4-.2-9.9,3.8-10.2,9.2,0,1.5.2,3,.8,4.4h0Z"/>
        <path class="st17" d="M352.9,219.8s4.1-2,1.1-9.8c0,0,3.3-3.3,6.7-1.8,3.4,1.4.6,8.6,4.6,9.8,0,0-2.1,2.9-12.4,2h0Z"/>
        <path class="st16" d="M360.9,198.6c-1-1-2-2.2-2.9-3.4-1.4-2,1.8-4.3,1.3-8.1s-4.4-1.4-4.4-1.4c0,0-9.3-1-10.5,8.6-3.4,5.3-1.9,12.3,3.4,15.8,2.4,1.5,5.4,2.2,8.2,1.6l.6-.2c2.5-.8,4.2-3.1,4.2-5.8v-7.3s0,0,0,0v.2Z"/>
        <path class="st24" d="M346.9,196.6c-.2-2.2-.7-3.9-2.9-3.8-2.2.2-2.3,2-2.2,4.2.2,2.2.6,3.9,2.7,3.8,2.2-.2,2.5-2,2.3-4.2h0Z"/>
        <path class="st17" d="M359,198.2c1.4.6,2.4,1.6,3,3,.7,1.8-.8,2.9-2.6,2.6-1.6-.2-3.9-1.5-3.9-3.4s1.1-2.5,2.5-2.4c.4,0,.7,0,1,.2h0Z"/>
        <path class="st16" d="M336,197.4c.2,3.3,3,5.7,6.3,5.4,3.3-.2,3.4-2.9,3.2-6.2s-.8-5.8-4.1-5.6c-3.3.2-5.7,3-5.5,6.3h0Z"/>
        <path class="st16" d="M358.4,184.4c-.6.9-1.2,2.2-.6,3,.4.5,1,.7,1.5,1.1.5.6.7,1.2.8,1.9.4,2.6.6,5,.6,7.6,1.8-3,3.6-6.2,3.7-9.8,0-1-.2-2.1-.6-3-.5-1-1.4-1.6-2.4-1.8-1-.2-3,.9-3,.9h0Z"/>
      </g>
      <path class="st17" d="M381.2,223.9l10.4,6.6c.7.5,1.8.2,2.2-.5h0c0,0,8.5-15.3,8.5-15.3l3-7.9.9-1,5.3-4.5h2l-3.9,3.5,1.1,1.8,1.8,4-7,6.2s-4.1,18.2-8.4,22.1c-3.4,3.1-20.8-9.2-20.8-9.2l4.8-6h0Z"/>
      <g>
        <path class="st19" d="M345.6,224.2c-.2-.6-.9-1-1.5-.7-.2,0-.4.2-.5.3-1,1.2-2.6,3.6-4.5,8.4l-1.8,5,9.5,6.6,3.6-5.4-4.8-14.1h0Z"/>
        <polygon class="st24" points="348.2 242.9 337.3 235.2 336.5 237.5 346.8 244.6 348.2 242.9"/>
        <polygon class="st9" points="348.2 242.9 337.3 235.2 336.5 237.5 346.8 244.6 348.2 242.9"/>
        <path class="st24" d="M368,218.2s.4-5-9.3-3c-9.7,2-3.2,4.8-3.2,4.8l12.5-1.8h0Z"/>
        <path class="st9" d="M368,218.2s.4-5-9.3-3c-9.7,2-3.2,4.8-3.2,4.8l12.5-1.8h0Z"/>
        <path class="st19" d="M382,262.3c-10.9,2.1-23.3,1.3-27.9.8-1,0,.9-12.2-10.1-34.3-1.1-2.1-.6-4.6,1.1-6.2,7.4-6.2,21-5.9,27.3-5.4,2.2.2,4.2,1.4,5.4,3.2,2.2,3.7,3.6,7.7,4.3,11.9.7,4,1.1,8.1,1.3,12.1.3,9.6-.9,17.8-1.4,17.9h0Z"/>
        <path class="st3" d="M383.3,244.4c-3.5-.6-8.4-13.6-8.4-13.6l7.2,1.4c.7,4,1.1,8.1,1.3,12.1h0Z"/>
        <path class="st19" d="M374,217.5c2.7.8,8.6,3.5,18,12.3l-6.9,9.2c-4.6-1-8.3-4.1-10.3-8.2-1.8-3.8-2.6-7.8-2.6-11.9s.6-1.4,1.4-1.4h.4Z"/>
        <polygon class="st24" points="391 228 383.2 239.2 385.8 239.8 393.2 229.8 391 228"/>
        <polygon class="st9" points="391 228 383.2 239.2 385.8 239.8 393.2 229.8 391 228"/>
      </g>
    </g>
  </g>
  <g id="freepik--Character_1--inject-1">
    <g>
      <g>
        <g>
          <path class="st21" d="M205.2,210.6c3-3.5,1.5-11.7.2-16.1l11.3,7c-.2.6-.2,1.1-.3,1.7-.2,1,0,2.1.2,3,.3.8,1.6,3,1.6,3,0,0,.9,2.5-5.8,3.4-2.9.7-7-1.9-7-1.9h0Z"/>
          <path class="st3" d="M207.9,198.8c.2,5.3,5.8,7,8.6,7.4-.3-1-.4-2-.2-3l-8.4-4.4h0Z"/>
          <g>
            <g>
              <path class="st16" d="M215.2,177.8c5.2-1,2.5,3.1,8.2,3.8.2,3.4-3.8,7.4-5.3,5.2-1.7-2.3-7.2-8.2-2.9-9.1h0Z"/>
              <path class="st16" d="M194.8,183.1c0,4.1,4,3.3,4,3.3-3.5,1.5-6.1.9-4-3.3Z"/>
              <path class="st21" d="M203.1,191c2.2,5.9,3.4,9.4,7.4,11.5,6.2,3.2,12.9-1.7,12.6-8.2-.3-5.8-3.8-14.6-10.7-15.2-6.7-.6-11.5,5.9-9.3,11.9h0Z"/>
              <path class="st16" d="M211.7,189.8c.2.6.6,1,1.1.9.4-.2.6-.7.4-1.4-.2-.6-.6-1-1.1-.9-.4.2-.6.7-.4,1.4h0Z"/>
              <path class="st16" d="M218,188.5c.2.6.6,1,1.1.9.4-.2.6-.7.4-1.4-.2-.6-.6-1-1.1-.9-.4.2-.6.7-.4,1.4Z"/>
              <path class="st22" d="M216.7,188.6s3,2.5,4,3.5c-.6,1-2.3,1.1-2.3,1.1l-1.7-4.7h0Z"/>
              <path class="st16" d="M210.1,187.6c0,0,.2,0,.3-.2.8-1.1,2-1.1,2-1.1.2,0,.3-.2.3-.3s-.2-.3-.3-.3c0,0-1.5,0-2.5,1.4,0,.2,0,.3,0,.4h.2v.2Z"/>
              <path class="st16" d="M220.8,184.9s0,0,.2-.2c0-.2,0-.3-.2-.4-1.5-.8-2.8,0-2.8,0-.2,0-.2.2-.2.4s.2.2.4,0c0,0,1-.6,2.2,0h.3Z"/>
            </g>
            <g>
              <path class="st16" d="M218.5,195.4c-.4.8-.8,1.6-1.1,2.4-.2,0-.3,0-.5,0-2.1-.4-2.9-1.3-3.1-2.2-.2-.4-.2-.9,0-1.3,0-.2,0-.5.2-.7,1,.9,2.8,1.4,3.8,1.7.5,0,.7.2.7.2h0Z"/>
              <path class="st19" d="M217.8,195.2l-.3.7c-1.9-.4-3.2-1-3.8-1.7,0-.2,0-.5.2-.7,1,.9,2.8,1.4,3.8,1.7h0Z"/>
              <path class="st18" d="M217,197.8c-2.1-.4-2.9-1.3-3.1-2.2.8.2,1.5.5,2.2,1,.4.3.8.7,1,1.2Z"/>
            </g>
          </g>
        </g>
        <path class="st16" d="M197.6,185.5s-2.6-4.7-.2-7.2c3.8-3.9,7.4-.7,15.4-7.6.3,2.1-2,3.9.6,4.5s3.9-2,8.1-1.6c-1.8,1.3,1.3,4.6-2.1,7.5s-9.8,1-9.8,1c0,2.6-3.7,4.6-3.7,4.6.5,1,.9,2.2,1.1,3.4.2,1.5,0,3-.2,4.5-13.2-2.4-9.2-9.1-9.2-9.1h0Z"/>
        <g>
          <path class="st21" d="M202.1,196.7c1,1.4,2.6,2.2,3.9,2.5,2.2.3,2.2-1.8,1.5-3.7-.6-1.7-1.8-3.6-3.9-3.1-2,.5-2.6,2.7-1.5,4.3h0Z"/>
          <path class="st5" d="M203,194.6c.2-.4.6-.7,1.1-.7s1,.2,1.3.5c.5.3.8.8,1,1.3"/>
        </g>
      </g>
      <path class="st21" d="M204.4,402.8c0-.4-1.8-9.3-1.8-9.3l8.6-1.1.9,9.4-5.1,3-2.6-1.9h0Z"/>
      <g>
        <path class="st16" d="M213.2,400.6h-2.7c-.6,0-1.2.3-1.5.8-1.6,2.2-2.7,1.4-4.5-.7-1.1-.2-1.4,1.1-1.4,1.4l-2,7.4c-.2.6.2,1.3.8,1.4h21.9c3.4,0,4.2-3.4,2.7-3.8-6.4-1.4-10.9-3.3-12.8-5.1-.4-.3,0-.6-.4-1.6h0Z"/>
        <path class="st24" d="M219.1,402.6c.3-.2.5-.6.5-.9s0-.4-.2-.5c-.9-.6-4.2,1-4.6,1.2h0c0,0,0,.2,0,.2.8.2,1.7.3,2.6.3s1.3,0,1.8-.4h0ZM219.1,401.5s0,.2,0,.2c0,.2-.2.5-.3.6-.8.6-2.6.3-3.7.2,1.4-.6,3.4-1.4,3.9-1h0Z"/>
        <path class="st24" d="M214.8,402.8c1-.4,3.2-2.1,3-3,0-.2-.2-.4-.6-.5-1.8-.2-2.6,3.1-2.6,3.3v.2h.2ZM217.2,399.6c.3,0,.3.2.3.2,0,.6-1.4,1.9-2.6,2.6.2-.8.9-2.7,2.1-2.7h.2Z"/>
        <path class="st11" d="M215.1,402.6c-1,.2-1.8.7-2.3,1.5"/>
        <path class="st11" d="M216.8,403.9c-1,.2-1.8.7-2.3,1.5"/>
        <path class="st11" d="M218.8,405c-1,.2-1.8.7-2.3,1.5"/>
      </g>
      <path class="st21" d="M248.4,402.8c0-.4-1.8-9.3-1.8-9.3l8.6-1.1.9,9.4-5.1,3-2.6-1.9h0Z"/>
      <g>
        <path class="st24" d="M250.7,334.2c-2.4-19.2-12.5-69-12.5-69l-24.6,1.5s2.3,7.1,5.3,17.1c2.9,9.5,6.3,21.7,9.1,32.9,2.2,8.9,3.7,17.3,4.6,23.2,3.5,22.4,13.8,60.2,13.8,60.2l10.2-1.3s-3.6-44.7-6.1-64.6h.2Z"/>
        <path class="st1" d="M250.7,334.2c-2.4-19.2-12.5-69-12.5-69l-24.6,1.5s2.3,7.1,5.3,17.1c2.9,9.5,6.3,21.7,9.1,32.9,2.2,8.9,3.7,17.3,4.6,23.2,3.5,22.4,13.8,60.2,13.8,60.2l10.2-1.3s-3.6-44.7-6.1-64.6h.2Z"/>
        <path class="st3" d="M221.6,279.9l-2.3,5c2.6,9.5,5.5,19.9,8.5,31.1,1.1-11-.6-29.5-6.2-36.1h0Z"/>
        <path class="st24" d="M200.8,267.6s2.5,46.7.3,69.1c-1.9,19.8,1.6,62.9,1.6,62.9l11.2-.6s2.2-40.2,5.4-60.4c3-18.4,5.6-72.6,5.6-72.6l-24.2,1.5h0Z"/>
        <path class="st1" d="M200.8,267.6s2.5,46.7.3,69.1c-1.9,19.8,1.6,62.9,1.6,62.9l11.2-.6s2.2-40.2,5.4-60.4c3-18.4,5.6-72.6,5.6-72.6l-24.2,1.5h0Z"/>
      </g>
      <path class="st3" d="M196.6,222.2c.8,3.8,1.4,7.7,1.8,11.4,0,1,.2,2,.3,2.9,2.8-4.4,4.2-9.4,4.2-14.6l-6.3.3h0Z"/>
      <g>
        <path class="st21" d="M184.8,228s-10.6,19.7-9.4,23.9c1.1,4.2,17.4,15.9,17.4,15.9l3.9-4.1s-11.4-13.8-11.4-14.9,11-16.6,11-16.6l-11.4-4.4h0Z"/>
        <path class="st21" d="M238.4,225l5.3,9.4,5.8-15,3.5,2.9s-6.3,27.8-9.9,28.2c-3.6.4-12.8-19.4-12.8-19.4l8.2-6.2h0Z"/>
        <path class="st16" d="M233.2,212.5c5.7,5.4,12,11.1,12,11.1l-12,10.4s-13.6-12.3-13.1-18.3c.5-6.6,9.3-6.9,13.1-3.2h0Z"/>
        <path class="st16" d="M202.8,211c.9-.2,1.8-.2,2.7-.4,4.8-.6,9.6-1,14.4-1h1.8c2.7.2,5.4.5,8.1,1,0,0,4.7,25.9,9.4,59.3l-39-2.3c-.3-2.6,0-10.2-.6-20.1-.2-4.2-.6-9-1.2-13.8-.8-7-2.2-14-4-20.8,0,0,4-1.1,8.5-1.8h0Z"/>
        <path class="st16" d="M202.9,224.1c-3.3,7.1-7.3,14.5-7.3,14.5l-14.7-6.5s11-19.4,13.4-19.4c7.2-1.4,12.1,3.5,8.6,11.3h0Z"/>
      </g>
      <g>
        <path class="st16" d="M257,400.6h-2.7c-.6,0-1.2.3-1.5.8-1.6,2.2-2.7,1.4-4.5-.7-1.1-.2-1.4,1.1-1.4,1.4l-2,7.4c-.2.6.2,1.3.8,1.4h21.9c3.4,0,4.2-3.4,2.7-3.8-6.4-1.4-10.9-3.3-12.8-5.1-.4-.3,0-.6-.4-1.6h0Z"/>
        <path class="st24" d="M262.9,402.6c.3-.2.5-.6.5-.9s0-.4-.2-.5c-.9-.6-4.2,1-4.6,1.2h0c0,0,0,.2,0,.2.8.2,1.7.3,2.6.3s1.3,0,1.8-.4h0ZM263,401.5s0,.2,0,.2c0,.2-.2.5-.3.6-.8.6-2.6.3-3.7.2,1.4-.6,3.4-1.4,3.9-1h0Z"/>
        <path class="st24" d="M258.7,402.8c1-.4,3.2-2.1,3-3,0-.2-.2-.4-.6-.5-1.8-.2-2.6,3.1-2.6,3.3v.2h.2ZM261,399.6c.3,0,.3.2.3.2,0,.6-1.4,1.9-2.6,2.6.2-.8.9-2.7,2.1-2.7h.2Z"/>
        <path class="st11" d="M258.9,402.6c-1,.2-1.8.7-2.3,1.5"/>
        <path class="st11" d="M260.6,403.9c-1,.2-1.8.7-2.3,1.5"/>
        <path class="st11" d="M262.7,405c-1,.2-1.8.7-2.3,1.5"/>
      </g>
      <g>
        <path class="st24" d="M230.9,208.7c-4.2-1.2-8.5-1.5-12.7-1.1l-2.6-6.1-12.2,3.8,1.4,6.5c-3.7,2.1-7,4.8-9.8,8.2l-6.1-2.5-5.9,11.3,5.5,3.6c-1.2,4.2-1.5,8.5-1.1,12.7l-6.1,2.6,3.8,12.2,6.5-1.4c2.1,3.7,4.8,7,8.2,9.8l-2.5,6.1,11.3,5.9,3.6-5.5c4.2,1.2,8.5,1.5,12.7,1.1l2.6,6.1,12.2-3.8-1.4-6.5c3.7-2.1,7-4.8,9.8-8.2l6.1,2.5,5.9-11.3-5.5-3.6c1.2-4.2,1.5-8.5,1.1-12.7l6.1-2.6-3.8-12.2-6.5,1.4c-2.1-3.7-4.8-7-8.2-9.8l2.5-6.1-11.3-5.9-3.6,5.5h0ZM228,225.6c10.2,4.1,14,16.4,8,25.5-4.5,6.8-13.3,9.5-20.8,6.5-10.2-4.1-14-16.4-8-25.5,4.5-6.8,13.3-9.5,20.8-6.5h0Z"/>
        <g>
          <path class="st21" d="M192.9,260.7s5.5-1.6,6.9-.8c1.4.8-.6,2-.6,2,0,0,2.2-1.1,2.8-.2.7,1-1.3,2.2-1.3,2.2,0,0,1.8-.9,2.3,0,.5.9-1.7,2.4-1.7,2.4,0,0,1.4-.4,1.4.4s-4.6,4.1-6.6,4.2c-2,0-6.1-6.1-6.6-7.6-.2-.4-.3-1.2,1-3,.2-.3.8-.4,1.2-.2l1,.6h.2Z"/>
          <path class="st3" d="M199.3,262.1h0l-4,1.8h-.2v-.2l4-1.8h.2v.2h0Z"/>
          <path class="st3" d="M200.8,264.2h0l-3.7,2.1h-.2v-.2l3.7-2.1h.2v.2h0Z"/>
          <path class="st3" d="M201.4,266.5l-2.7,1.6h-.2v-.2l2.7-1.6h.2v.2Z"/>
        </g>
        <g>
          <path class="st21" d="M250.2,223.5s-5.4,2.1-6.8,1.4.4-2,.4-2c0,0-2.2,1.4-2.8.5-.8-1,1.1-2.4,1.1-2.4,0,0-1.8,1-2.3.2s1.5-2.5,1.5-2.5c0,0-1.4.5-1.4-.3,0-.7,4.2-4.5,6.2-4.6,2-.2,6.6,5.5,7.3,7,.2.4.4,1.2-.8,3-.2.4-.7.5-1.1.3l-1-.6h-.2s0,0,0,0h0Z"/>
          <path class="st3" d="M243.7,222.8h0l3.8-2.2h.2v.2l-3.8,2.2h-.2v-.2Z"/>
          <path class="st3" d="M242.1,220.8h0l3.5-2.3h.2v.2l-3.5,2.3h-.2v-.2h0Z"/>
          <path class="st3" d="M241.3,218.6l2.6-1.8h.2v.2l-2.6,1.8h-.2v-.2h0Z"/>
        </g>
      </g>
    </g>
  </g>
</svg>