<?xml version="1.0" encoding="UTF-8"?>
<svg id="Livello_1" xmlns="http://www.w3.org/2000/svg" version="1.1" viewBox="0 0 500 500">
  <!-- Generator: Adobe Illustrator 29.0.1, SVG Export Plug-In . SVG Version: 2.1.0 Build 192)  -->
  <defs>
    <style>
      .st0 {
        stroke-width: 6px;
      }

      .st0, .st1, .st2, .st3 {
        fill: none;
        stroke: #24073d;
        stroke-linecap: round;
        stroke-miterlimit: 10;
      }

      .st1 {
        stroke-width: 10px;
      }

      .st4 {
        fill: #f6f6f6;
      }

      .st2 {
        stroke-width: 2px;
      }

      .st5 {
        fill: #24073d;
      }

      .st6 {
        fill: #c292f3;
      }
    </style>
  </defs>
  <circle class="st6" cx="170.7" cy="156.7" r="156.7"/>
  <circle class="st6" cx="365" cy="379" r="121"/>
  <g>
    <g>
      <rect class="st4" x="127.5" y="67.7" width="273.2" height="364.5" rx="31.5" ry="31.5"/>
      <path class="st5" d="M369.2,68.2c17.1,0,31,13.9,31,31v301.5c0,17.1-13.9,31-31,31h-210.2c-17.1,0-31-13.9-31-31V99.2c0-17.1,13.9-31,31-31h210.2M369.2,67.2h-210.2c-17.7,0-32,14.3-32,32v301.5c0,17.7,14.3,32,32,32h210.2c17.7,0,32-14.3,32-32V99.2c0-17.7-14.3-32-32-32h0Z"/>
    </g>
    <g>
      <path class="st4" d="M185.5,177.1c-19.9,0-36.1-16.2-36.1-36.1s16.2-36.1,36.1-36.1,36.1,16.2,36.1,36.1-16.2,36.1-36.1,36.1Z"/>
      <path class="st5" d="M185.5,105.5c19.6,0,35.6,15.9,35.6,35.6s-15.9,35.6-35.6,35.6-35.6-15.9-35.6-35.6,15.9-35.6,35.6-35.6M185.5,104.5c-20.2,0-36.6,16.4-36.6,36.6s16.4,36.6,36.6,36.6,36.6-16.4,36.6-36.6-16.4-36.6-36.6-36.6h0Z"/>
    </g>
    <line class="st3" x1="379.3" y1="199.6" x2="149" y2="199.6"/>
    <line class="st2" x1="311.6" y1="228.8" x2="244" y2="228.8"/>
    <line class="st3" x1="379.3" y1="243.4" x2="244" y2="243.4"/>
    <line class="st1" x1="368.1" y1="119.1" x2="244" y2="119.1"/>
    <line class="st0" x1="311.6" y1="141.1" x2="244" y2="141.1"/>
    <line class="st0" x1="346.2" y1="155.7" x2="244" y2="155.7"/>
    <line class="st3" x1="379.3" y1="250.7" x2="244" y2="250.7"/>
    <line class="st3" x1="379.3" y1="258.1" x2="244" y2="258.1"/>
    <line class="st2" x1="311.6" y1="287.3" x2="244" y2="287.3"/>
    <line class="st3" x1="379.3" y1="301.9" x2="244" y2="301.9"/>
    <line class="st3" x1="379.3" y1="309.2" x2="244" y2="309.2"/>
    <line class="st3" x1="379.3" y1="316.5" x2="244" y2="316.5"/>
    <line class="st2" x1="311.6" y1="345.8" x2="244" y2="345.8"/>
    <line class="st3" x1="379.3" y1="360.4" x2="244" y2="360.4"/>
    <line class="st3" x1="379.3" y1="367.7" x2="244" y2="367.7"/>
    <line class="st3" x1="379.3" y1="375" x2="244" y2="375"/>
  </g>
</svg>