<?xml version="1.0" encoding="UTF-8"?>
<svg id="Livello_1" xmlns="http://www.w3.org/2000/svg" xmlns:xlink="http://www.w3.org/1999/xlink" version="1.1" viewBox="0 0 24 24">
  <!-- Generator: Adobe Illustrator 29.0.1, SVG Export Plug-In . SVG Version: 2.1.0 Build 192)  -->
  <defs>
    <style>
      .st0, .st1 {
        fill: none;
      }

      .st1, .st2 {
        stroke: #7558db;
        stroke-linecap: round;
        stroke-linejoin: round;
        stroke-width: 1.5px;
      }

      .st2 {
        fill: #7558db;
      }

      .st3 {
        clip-path: url(#clippath);
      }
    </style>
    <clipPath id="clippath">
      <rect class="st0" width="24" height="24"/>
    </clipPath>
  </defs>
  <g class="st3">
    <g>
      <path class="st1" d="M17.7,11.4l-1.9,5.7c0,.2-.2.3-.4.4l-11.7,3.5c-.5.1-.9-.3-.7-.8l3.8-11.4c0-.2.2-.3.3-.4l5.4-2.2c.2,0,.5,0,.7.1l4.4,4.4c.2.2.2.4.1.6Z"/>
      <path class="st1" d="M3.3,20.6l6.4-6.4"/>
      <path class="st2" d="M18.4,3.2l2.4,2.4c.7.7.7,1.8,0,2.6-.7.8-1.9.8-2.6,0l-2.4-2.4c-.7-.7-.7-1.9,0-2.6.7-.7,1.9-.7,2.6,0Z"/>
      <path class="st1" d="M11.8,12.1c-.6-.6-1.5-.6-2.1,0-.6.6-.6,1.5,0,2.1.6.6,1.5.6,2.1,0,.6-.6.6-1.5,0-2.1Z"/>
    </g>
  </g>
</svg>