<svg xmlns="http://www.w3.org/2000/svg" viewBox="0 0 500 500"><g id="freepik--background-simple--inject-61"><path d="M226.9,77.24C111,97.87,78.84,195.55,99.28,276.23c20.66,81.56,147.22,120.62,223.15,100.29,79-21.15,144.8-122.3,123.38-206.25C423.15,81.51,342.77,56.62,226.9,77.24Z" style="fill:#7558DB"></path><path d="M226.9,77.24C111,97.87,78.84,195.55,99.28,276.23c20.66,81.56,147.22,120.62,223.15,100.29,79-21.15,144.8-122.3,123.38-206.25C423.15,81.51,342.77,56.62,226.9,77.24Z" style="fill:#fff;opacity:0.9"></path></g><g id="freepik--Portfolio--inject-61"><path d="M429.39,96.79H70.62A9.65,9.65,0,0,0,61,106.4V345.86a9.64,9.64,0,0,0,9.62,9.61H429.39a9.64,9.64,0,0,0,9.61-9.61V106.4A9.65,9.65,0,0,0,429.39,96.79Z" style="fill:#7558DB"></path><path d="M61,121.65V345.86a9.64,9.64,0,0,0,9.62,9.61H429.39a9.64,9.64,0,0,0,9.61-9.61V121.65Z" style="fill:#7558DB"></path><path d="M61,121.65V345.86a9.64,9.64,0,0,0,9.62,9.61H429.39a9.64,9.64,0,0,0,9.61-9.61V121.65Z" style="fill:#fff;opacity:0.6000000000000001"></path><path d="M62.78,121.65V337.23a5.45,5.45,0,0,0,5.45,5.46H431.77a5.45,5.45,0,0,0,5.45-5.46V121.65Z" style="fill:#fff"></path><rect x="78.66" y="145.97" width="104.71" height="151.9" style="fill:#7558DB"></rect><rect x="76.95" y="145.97" width="104.71" height="151.9" style="fill:#7558DB"></rect><rect x="76.95" y="145.97" width="104.71" height="151.9" style="fill:#fff;opacity:0.2"></rect><path d="M132.44,112.33H81.66a3,3,0,0,1-3-3h0a3,3,0,0,1,3-3h50.78a3,3,0,0,1,3,3h0A3,3,0,0,1,132.44,112.33Z" style="fill:#f5f5f5;opacity:0.61"></path><path d="M145.78,112.33h3.39a3,3,0,0,0,3-3h0a3,3,0,0,0-3-3h-3.39a3,3,0,0,0-3,3h0A3,3,0,0,0,145.78,112.33Z" style="fill:#f5f5f5;opacity:0.61"></path><path d="M160.66,285.91c-4.15-6-1.95-12,.17-17.74s4.15-11.24.3-16.83-9.67-5.65-15.83-5.71-12.5-.13-16.64-6.15-2-12,.17-17.74,4.15-11.23.29-16.82-9.66-5.65-15.82-5.72-12.49-.13-16.64-6.14-2-12,.18-17.74,4.14-11.23.29-16.82l.82-.57c4.15,6,2,12-.18,17.74s-4.14,11.23-.29,16.82,9.67,5.65,15.83,5.71,12.49.13,16.64,6.15,2,12-.18,17.74-4.14,11.23-.29,16.82,9.67,5.65,15.83,5.72,12.49.13,16.64,6.14,2,12-.18,17.74-4.14,11.24-.29,16.83Z" style="fill:#fff"></path><rect x="318.34" y="145.97" width="104.71" height="151.9" style="fill:#7558DB"></rect><rect x="316.64" y="145.97" width="104.7" height="151.9" style="fill:#7558DB"></rect><rect x="316.64" y="145.97" width="104.7" height="151.9" style="fill:#fff;opacity:0.6000000000000001"></rect><path d="M380.66,176.3a52.42,52.42,0,0,1-64,51.06V146H371A52.15,52.15,0,0,1,380.66,176.3Z" style="fill:#7558DB;opacity:0.65"></path><path d="M421.34,205v70.64a35.32,35.32,0,1,1,0-70.64Z" style="fill:#fff"></path><path d="M391.36,297.87h-69.2a35.32,35.32,0,0,1,69.2,0Z" style="fill:#7558DB;opacity:0.78"></path><rect x="198.5" y="218.69" width="104.71" height="124" style="fill:#7558DB"></rect><rect x="196.79" y="218.69" width="104.71" height="124" style="fill:#7558DB"></rect><rect x="196.79" y="218.69" width="104.71" height="124" style="fill:#fff;opacity:0.5"></rect><path d="M249.15,232.17h0a22.57,22.57,0,0,1,22.57,22.57v87.95a0,0,0,0,1,0,0H226.58a0,0,0,0,1,0,0V254.74A22.57,22.57,0,0,1,249.15,232.17Z" style="fill:#fff"></path><rect x="183.91" y="264.33" width="39.05" height="91.14" style="fill:#d5e1fd"></rect><rect x="101.75" y="311.88" width="16.8" height="1" transform="translate(-209.21 400.28) rotate(-85.97)" style="fill:#7558DB"></rect><rect x="104.65" y="332.17" width="8.12" height="1" transform="translate(-230.78 417.72) rotate(-85.97)" style="fill:#7558DB"></rect><polygon points="212.23 416.24 107.52 416.24 118.25 264.33 222.96 264.33 212.23 416.24" style="fill:#7558DB"></polygon><polygon points="212.23 416.24 107.52 416.24 118.25 264.33 222.96 264.33 212.23 416.24" style="opacity:0.5"></polygon><polygon points="210.53 416.24 105.82 416.24 116.55 264.33 221.25 264.33 210.53 416.24" style="fill:#7558DB"></polygon><path d="M150.34,343.5a27.31,27.31,0,0,1-27.61-30c1.3-16.49,15.78-29.9,32.27-29.9a27.31,27.31,0,0,1,27.61,30C181.31,330.08,166.83,343.5,150.34,343.5ZM155,284.61c-16,0-30,13-31.28,29a26.31,26.31,0,0,0,26.62,28.91c16,0,30-13,31.27-29A26.3,26.3,0,0,0,155,284.61Z" style="fill:#fff"></path><ellipse cx="181.71" cy="367.46" rx="18.56" ry="17.15" transform="translate(-203.94 228.47) rotate(-43.87)" style="fill:#fff"></ellipse><rect x="196.79" y="121.65" width="104.71" height="80.93" style="fill:#7558DB"></rect><rect x="198.5" y="121.65" width="104.71" height="80.93" style="opacity:0.5"></rect><rect x="219.33" y="121.65" width="44.5" height="68.18" style="fill:#7558DB"></rect><path d="M204.67,121.65a22.67,22.67,0,1,0,45.33,0Z" style="fill:#f0f0f0"></path><path d="M258.44,121.65a17.62,17.62,0,0,0,35.23,0Z" style="fill:#f0f0f0"></path><rect x="219.33" y="121.65" width="44.5" height="68.18" style="fill:#fff;opacity:0.5"></rect></g><g id="freepik--Character--inject-61"><path d="M244.87,186.66c.12.58-.09,1.11-.47,1.19s-.79-.32-.91-.9.09-1.12.47-1.2S244.75,186.08,244.87,186.66Z" style="fill:#263238"></path><path d="M244.83,187.76a21.11,21.11,0,0,1-1.74,5.54,3.39,3.39,0,0,0,2.88-.06Z" style="fill:#de5753"></path><path d="M243.34,183.11a.37.37,0,0,1-.3-.16.35.35,0,0,1,.11-.48,3.41,3.41,0,0,1,3.17-.11.34.34,0,0,1,.18.46.35.35,0,0,1-.46.17,2.82,2.82,0,0,0-2.52.06A.3.3,0,0,1,243.34,183.11Z" style="fill:#263238"></path><path d="M264.92,188.52c-1.05,5.37-1.57,15.22,2.19,18.8,0,0-1.47,5.46-11.46,5.46-11,0-5.24-5.46-5.24-5.46,6-1.43,5.83-5.87,4.79-10Z" style="fill:#e4897b"></path><path d="M264,181.4c1.05,7.21,2,11.38-.81,15.79-4.27,6.63-13.74,5.2-16.92-1.56-2.87-6.08-4.1-16.86,2.28-21.15A10,10,0,0,1,264,181.4Z" style="fill:#e4897b"></path><path d="M271.24,177.08c3.83-7-4.95-10.2-8.2-9.5a7.8,7.8,0,0,0-7.83-4.16c-3.93.34-5.69,2.31-6.63,4.83-2.2-1.17-8.76.6-7.83,5.92.83,4.75,6,6.2,8.63,6.47,2,8.09,7.29,18.19,14.37,14.58,2.32-1.19,4.33-4.17,5.65-8C275,185.56,273.79,179.26,271.24,177.08Z" style="fill:#263238"></path><path d="M254.78,185.47a8.32,8.32,0,0,1-1.81,5c-1.51,1.84-3.23.83-3.63-1.3-.36-1.92,0-5.19,1.9-6.26S254.79,183.29,254.78,185.47Z" style="fill:#e4897b"></path><path d="M268.63,208.86c2.12,1.06,1.93-2.3.07-5.05-1.17-1.72-13.18-.17-16.85,1.24a3.84,3.84,0,0,0-2.49,4.87Z" style="fill:#7558DB"></path><path d="M268.63,208.86c2.12,1.06,1.93-2.3.07-5.05-1.17-1.72-13.18-.17-16.85,1.24a3.84,3.84,0,0,0-2.49,4.87Z" style="opacity:0.8"></path><path d="M283.51,222.35c-.65,1.44-1.26,2.69-2,4s-1.36,2.56-2.08,3.82c-1.45,2.52-3,5-4.68,7.39a76.67,76.67,0,0,1-5.49,7,46,46,0,0,1-6.78,6.39,65.65,65.65,0,0,1-7.62,4.75c-2.53,1.37-5.07,2.63-7.63,3.84-5.12,2.41-10.29,4.56-15.61,6.49l-2.39-5,14-8.79c2.31-1.48,4.59-3,6.82-4.47a70,70,0,0,0,6.16-4.6,41.23,41.23,0,0,0,4.93-5.42q2.34-3,4.46-6.35c1.4-2.22,2.76-4.49,4.06-6.8.66-1.16,1.3-2.32,1.92-3.49l1.77-3.46Z" style="fill:#e4897b"></path><path d="M285.75,213.41c3,6.41-6.59,26.65-6.59,26.65l-16.38-7.6a115.93,115.93,0,0,1,6.66-16.74C273.72,207.23,282.71,206.86,285.75,213.41Z" style="fill:#7558DB"></path><path d="M285.75,213.41c3,6.41-6.59,26.65-6.59,26.65l-16.38-7.6a115.93,115.93,0,0,1,6.66-16.74C273.72,207.23,282.71,206.86,285.75,213.41Z" style="opacity:0.6000000000000001"></path><path d="M293.16,410a2.35,2.35,0,0,1-1.76-.48.71.71,0,0,1,0-.83.83.83,0,0,1,.55-.41c1.07-.24,3.1,1.14,3.19,1.2a.2.2,0,0,1,.07.18.17.17,0,0,1-.13.13A9.34,9.34,0,0,1,293.16,410Zm-.92-1.4-.21,0a.47.47,0,0,0-.32.24c-.16.28-.07.4,0,.44.32.42,1.82.42,2.91.24A5.69,5.69,0,0,0,292.24,408.62Z" style="fill:#7558DB"></path><path d="M295,409.82l-.09,0c-.76-.42-2.23-2-2.07-2.84a.57.57,0,0,1,.55-.46,1,1,0,0,1,.74.22c.86.7,1,2.82,1,2.91a.16.16,0,0,1-.08.16Zm-1.49-3h-.07c-.23,0-.25.14-.26.18-.09.48.85,1.7,1.6,2.27A4.13,4.13,0,0,0,294,407,.6.6,0,0,0,293.55,406.84Z" style="fill:#7558DB"></path><polygon points="303.51 409.64 296.17 409.64 289.4 392.63 296.74 392.63 303.51 409.64" style="fill:#e4897b"></polygon><path d="M295.59,408.79h8.25a.63.63,0,0,1,.62.51l1.46,6.53a1.08,1.08,0,0,1-1.08,1.3c-2.88-.05-4.28-.22-7.91-.22-2.23,0-6.83.24-9.92.24s-3.48-3-2.22-3.33c5.66-1.24,7.79-2.95,9.6-4.57A1.78,1.78,0,0,1,295.59,408.79Z" style="fill:#263238"></path><polygon points="296.75 392.64 289.4 392.64 294.27 404.86 301.07 403.48 296.75 392.64" style="fill:#ce6f64"></polygon><path d="M255.88,272.86s-1.47,29.76-6.91,56c-1.72,8.31-.59,17.21,4.28,24.16,14.31,20.41,37,47.59,37,47.59l11.89-1.33S282.85,363.56,273,345.83c-2.24-4-4.22-7.66-2.53-12,16.33-41.45,7.5-61,7.5-61Z" style="fill:#7558DB"></path><path d="M255.88,272.86s-1.47,29.76-6.91,56c-1.72,8.31-.59,17.21,4.28,24.16,14.31,20.41,37,47.59,37,47.59l11.89-1.33S282.85,363.56,273,345.83c-2.24-4-4.22-7.66-2.53-12,16.33-41.45,7.5-61,7.5-61Z" style="opacity:0.5"></path><path d="M230.93,260.23l-5.38-.84,1.94,9.18s4.12-.51,5.87-3.61Z" style="fill:#e4897b"></path><polygon points="219.13 260.28 221.08 267.79 227.49 268.57 225.55 259.39 219.13 260.28" style="fill:#e4897b"></polygon><path d="M245.65,219.62c-2.31,4.57-4.73,9-7.25,13.49s-5.13,8.84-7.89,13.19l-1,1.63-.72,1-.75,1a29.77,29.77,0,0,1-3.13,3.2,54,54,0,0,1-6.54,4.94,88.66,88.66,0,0,1-13.9,7.39l-2.72-4.8c3.9-3,7.85-6.16,11.46-9.37a65.29,65.29,0,0,0,5-4.91,24.59,24.59,0,0,0,2-2.46l.36-.58.3-.55.88-1.65c4.68-8.84,9.28-17.87,14.09-26.69Z" style="fill:#e4897b"></path><path d="M277,214.72l3.7,21.95c-.88,2.07-1.5,3.39-1.5,3.39l-16.38-7.6S270.18,219.67,277,214.72Z" style="opacity:0.30000000000000004"></path><path d="M235.94,222.37l6.07,15-6.07,8.83A158,158,0,0,1,235.94,222.37Z" style="fill:#1f2d43"></path><path d="M203.49,260.4l-7.69-.94.3,8.9s6.05.53,9.31-3.44Z" style="fill:#e4897b"></path><polygon points="188.15 261.57 191.21 268.79 196.1 268.36 195.8 259.46 188.15 261.57" style="fill:#e4897b"></polygon><path d="M253.67,298.58,265.05,285c.43,6.09-3.25,28.87-15.87,42.87C251.19,318,252.64,307.59,253.67,298.58Z" style="opacity:0.1"></path><polygon points="244.2 409.64 236.85 409.64 234.71 392.63 242.05 392.63 244.2 409.64" style="fill:#e4897b"></polygon><path d="M233.64,410c-.94,0-1.85-.13-2.15-.55a.66.66,0,0,1,0-.76.86.86,0,0,1,.55-.41c1.23-.33,3.79,1.13,3.9,1.19a.19.19,0,0,1,.09.18.17.17,0,0,1-.14.14A12.3,12.3,0,0,1,233.64,410Zm-1.16-1.42a1.27,1.27,0,0,0-.34,0,.51.51,0,0,0-.34.24c-.12.22-.07.32,0,.38.33.46,2.19.49,3.56.3A7.82,7.82,0,0,0,232.48,408.6Z" style="fill:#7558DB"></path><path d="M235.87,409.82l-.08,0c-.88-.39-2.64-2-2.5-2.81,0-.2.16-.44.64-.49a1.25,1.25,0,0,1,1,.3c.93.76,1.13,2.74,1.14,2.83a.2.2,0,0,1-.07.16A.19.19,0,0,1,235.87,409.82Zm-1.8-3H234c-.31,0-.33.16-.34.2-.08.5,1.11,1.75,2,2.29a4.12,4.12,0,0,0-1-2.26A.91.91,0,0,0,234.07,406.84Z" style="fill:#7558DB"></path><path d="M236.65,408.79h8a.63.63,0,0,1,.62.51l1.45,6.53a1.06,1.06,0,0,1-1.05,1.3c-2.9-.05-7.08-.22-10.72-.22-4.25,0-7.92.24-12.91.24-3,0-3.85-3-2.59-3.33,5.75-1.26,10.44-1.39,15.41-4.45A3.33,3.33,0,0,1,236.65,408.79Z" style="fill:#263238"></path><polygon points="242.05 392.64 234.7 392.64 236.28 405.03 243.49 403.92 242.05 392.64" style="fill:#ce6f64"></polygon><polygon points="286.9 398.8 289.23 403.62 303.56 399.94 302.42 395.47 286.9 398.8" style="fill:#7558DB"></polygon><path d="M238.67,272.86s-6.15,20.56-16.31,47c-3.31,8.6-4.59,16.88-2.29,24.16,7.13,22.6,13.29,56.59,13.29,56.59l12.25-1.33s.47-34.67-3.87-52.54c-2.23-9.17-1.47-12.51.81-15.54,31.21-41.51,22.83-58.31,22.83-58.31Z" style="fill:#7558DB"></path><path d="M238.67,272.86s-6.15,20.56-16.31,47c-3.31,8.6-4.59,16.88-2.29,24.16,7.13,22.6,13.29,56.59,13.29,56.59l12.25-1.33s.47-34.67-3.87-52.54c-2.23-9.17-1.47-12.51.81-15.54,31.21-41.51,22.83-58.31,22.83-58.31Z" style="opacity:0.5"></path><polygon points="231.24 398.53 231.88 403.41 246.34 400.96 246.77 396.5 231.24 398.53" style="fill:#7558DB"></polygon><path d="M239.11,209.36s-7.82,8.84-.44,63.5H278c.27-6-3.52-35.45,2.3-63.88a102.56,102.56,0,0,0-13.15-1.66,145.27,145.27,0,0,0-16.7,0A74.93,74.93,0,0,0,239.11,209.36Z" style="fill:#7558DB"></path><path d="M239.11,209.36s-7.82,8.84-.44,63.5H278c.27-6-3.52-35.45,2.3-63.88a102.56,102.56,0,0,0-13.15-1.66,145.27,145.27,0,0,0-16.7,0A74.93,74.93,0,0,0,239.11,209.36Z" style="opacity:0.6000000000000001"></path><path d="M248.67,214.21c2.42,6.6-7.3,26.62-7.3,26.62L223.77,232a89.92,89.92,0,0,1,8.62-17.13C237.65,207.13,246,207,248.67,214.21Z" style="fill:#7558DB"></path><path d="M248.67,214.21c2.42,6.6-7.3,26.62-7.3,26.62L223.77,232a89.92,89.92,0,0,1,8.62-17.13C237.65,207.13,246,207,248.67,214.21Z" style="fill:#7558DB"></path><path d="M248.67,214.21c2.42,6.6-7.3,26.62-7.3,26.62L223.77,232a89.92,89.92,0,0,1,8.62-17.13C237.65,207.13,246,207,248.67,214.21Z" style="opacity:0.6000000000000001"></path></g></svg>